<?xml version="1.0" encoding="utf-8"?>
<!-- Generator: Adobe Illustrator 21.1.0, SVG Export Plug-In . SVG Version: 6.00 Build 0)  -->
<svg version="1.1" xmlns="http://www.w3.org/2000/svg" xmlns:xlink="http://www.w3.org/1999/xlink" x="0px" y="0px"
	 viewBox="0 0 44 44" style="enable-background:new 0 0 44 44;" xml:space="preserve">
<style type="text/css">
	.st0{fill:#F5B445;}
	.st1{fill:#0B3A5B;}
	.st2{fill:#FFCA5D;}
	.st3{fill:#B0C4D8;}
	.st4{fill:#7B9FBE;}
	.st5{fill:#F7964B;}
	.st6{fill:#F47423;}
	.st7{fill:#FFE37C;}
	.st8{fill:#F8A247;}
	.st9{fill:#676A75;}
	.st10{fill:#0F395A;}
	.st11{fill:#585B67;}
	.st12{fill:#EAA239;}
	.st13{fill:#DA8C36;}
	.st14{fill:#C87629;}
	.st15{fill:#FFCB5B;}
	.st16{fill:#D3E2EB;}
	.st17{fill:#FFFFFF;}
	.st18{fill:#F5AE44;}
	.st19{fill:#D5E3EF;}
	.st20{fill:#0E395A;}
	.st21{fill:#C97629;}
	.st22{fill:#C0CED7;}
	.st23{fill:#8CA6BC;}
	.st24{fill:#4C9CD6;}
	.st25{fill:#3689C9;}
	.st26{fill:#FFE27A;}
	.st27{fill:#90CEF1;}
	.st28{fill:#ABE1FA;}
	.st29{fill:#70B7E5;}
	.st30{fill:#71747C;}
	.st31{fill:#F6B545;}
	.st32{fill:#E99C35;}
	.st33{fill:#3BB54A;}
	.st34{fill:#89C763;}
	.st35{fill:#AED477;}
	.st36{fill:#B0C4D9;}
	.st37{fill:#C9D5E3;}
	.st38{fill:#D3E2EB;stroke:#0B3A5B;stroke-width:2;stroke-linecap:round;stroke-linejoin:round;stroke-miterlimit:10;}
	.st39{fill:#99B5CD;}
	.st40{fill:#ECF0F9;}
	.st41{fill:#82A7C4;}
	.st42{fill:#F26A56;}
	.st43{fill:#FFD167;}
	.st44{fill:#2B5367;}
	.st45{fill:#FFCB5D;}
	.st46{fill:#F04D4E;}
	.st47{fill:#D5E3EE;}
	.st48{fill:#EDF1F9;}
	.st49{fill:#577280;}
	.st50{fill:#F16B56;}
	.st51{fill:#DCE4EE;}
	.st52{fill:#ECEFF9;}
	.st53{fill:#CEDAE6;}
	.st54{fill:#5F7B93;}
	.st55{fill:#EFC9AE;}
	.st56{fill:#E2B698;}
	.st57{fill:#4A6B84;}
	.st58{fill:#7592A5;}
</style>
<g id="trolley">
</g>
<g id="wallet">
</g>
<g id="shield">
</g>
<g id="pickaxe">
</g>
<g id="lock">
</g>
<g id="key">
</g>
<g id="mobile">
</g>
<g id="coins">
</g>
<g id="trade">
</g>
<g id="blockchain">
</g>
<g id="exchange">
</g>
<g id="graph">
</g>
<g id="video_x5F_card">
</g>
<g id="bitcoin">
</g>
<g id="code">
</g>
<g id="contract">
</g>
<g id="network">
</g>
<g id="cloud">
</g>
<g id="pc">
</g>
<g id="anonymous">
	<g>
		<path class="st54" d="M1,41l0.5-2.5c0.3-1.5,1.5-2.8,3-3.1L15,33l7,5l7-5l10.5,2.4c1.5,0.4,2.7,1.6,3,3.1L43,41
			C33.6,43.7,10.4,43.7,1,41z"/>
		<g>
			<path class="st55" d="M33,15H11.1c0,0.3-0.1,0.7-0.1,1h-1v2c0,1.1,0.9,2,2,2v3.7c0,2.1,1.1,4,2.8,5.1l3.7,2.3
				c1,0.6,2.1,0.9,3.3,0.9h0.5c1.2,0,2.3-0.3,3.3-0.9l3.7-2.3c1.8-1.1,2.8-3,2.8-5.1V20c1.1,0,2-0.9,2-2v-2h-1
				C33,15.7,33,15.3,33,15z"/>
			<path class="st1" d="M34,15L34,15H32c0,0.3,0.1,0.7,0.1,1c0,0.6,0.4,1,1,1v1c0,0.6-0.4,1-1,1c-0.6,0-1,0.4-1,1v3.7
				c0,1.7-0.9,3.3-2.3,4.2L25,30.2c-0.8,0.5-1.8,0.8-2.7,0.8h-0.5c-1,0-1.9-0.3-2.7-0.8l-3.7-2.3C13.9,27,13,25.4,13,23.7V20
				c0-0.6-0.4-1-1-1c-0.6,0-1-0.4-1-1v-1c0.6,0,1-0.4,1-1c0-0.3,0-0.7,0.1-1h-2h0c-0.6,0-1,0.4-1,1v2c0,1.3,0.8,2.4,2,2.8v2.8
				c0,2.4,1.2,4.6,3.3,5.9l3.7,2.3c1.1,0.7,2.5,1.1,3.8,1.1h0.5c1.3,0,2.7-0.4,3.8-1.1l3.7-2.3c2.1-1.3,3.3-3.5,3.3-5.9v-2.8
				c1.2-0.4,2-1.5,2-2.8v-2C35,15.4,34.6,15,34,15z"/>
		</g>
		<path class="st1" d="M44,40.8l-0.5-2.5c-0.4-1.9-1.9-3.4-3.8-3.9L29.3,32c-0.3-0.1-0.6,0-0.8,0.2L22,36.8l-6.4-4.6
			C15.4,32,15.1,32,14.8,32L4.3,34.4c-1.9,0.4-3.4,2-3.8,3.9L0,40.8c-0.1,0.5,0.2,1,0.7,1.2c4.8,1.4,13,2,21.3,2c0,0,0,0,0,0
			c0,0,0,0,0,0c0,0,0,0,0,0c8.2,0,16.5-0.7,21.2-2C43.8,41.8,44.1,41.3,44,40.8z M2.5,38.7c0.2-1.2,1.1-2.1,2.3-2.3l10.1-2.3
			l6.3,4.5C21,38.7,21,38.9,21,39v3c-7.2,0-14.3-0.6-18.8-1.7L2.5,38.7z M23,42l0-3c0-0.1,0-0.3-0.1-0.4l6.3-4.5l10,2.3
			c1.1,0.3,2,1.2,2.3,2.3l0.3,1.5C37.3,41.4,30.2,42,23,42z"/>
		<g>
			<path class="st10" d="M22,28C22,28,22,28,22,28c-1.4,0-2.7-0.4-3.6-1.2c-0.4-0.3-0.5-1-0.2-1.4c0.3-0.4,1-0.5,1.4-0.2
				c0.6,0.5,1.4,0.8,2.3,0.8c0.9,0,1.8-0.3,2.4-0.8c0.4-0.3,1.1-0.3,1.4,0.2c0.3,0.4,0.3,1.1-0.2,1.4C24.7,27.6,23.4,28,22,28z"/>
		</g>
		<path class="st56" d="M32,16c0,0-20-0.3-20,0c0,0.6-0.4,1-1,1h15c1.1,0,2,0.9,2,2v9.3l0.7-0.4c1.5-0.9,2.3-2.5,2.3-4.2V20
			c0-0.5,0.4-1,1-1c0.6,0,1-0.4,1-1v-1C32.5,17,32,16.6,32,16z"/>
		<g>
			<circle class="st54" cx="18" cy="19" r="3"/>
		</g>
		<g>
			<circle class="st54" cx="26" cy="19" r="3"/>
		</g>
		<g>
			<path class="st54" d="M32,12H12l0-2.1c0-2.6,0.5-5.1,1.4-7.5l0,0c0.3-0.8,1.1-1.4,2-1.4h0c0.3,0,0.7,0.1,1,0.2l1.7,0.9
				C19.4,2.7,20.7,3,22,3h0c1.3,0,2.6-0.3,3.8-0.9l1.7-0.9c0.3-0.2,0.6-0.2,1-0.2h0c0.9,0,1.7,0.5,2,1.4l0,0c1,2.4,1.4,4.9,1.4,7.5
				V12z"/>
			<path class="st54" d="M7,14h30c0.3,0,0.5-0.2,0.5-0.5S37.3,13,37,13h-5H12H7c-0.3,0-0.5,0.2-0.5,0.5S6.7,14,7,14z"/>
			<path class="st1" d="M37,11h-4V9.9c0-2.7-0.5-5.4-1.5-7.9c-0.5-1.2-1.6-2-3-2c-0.5,0-1,0.1-1.4,0.3l-1.7,0.9c-2.1,1-4.6,1-6.7,0
				l-1.7-0.9C16.5,0.1,16,0,15.5,0c-1.3,0-2.5,0.8-3,2c-1,2.5-1.5,5.2-1.5,7.9V11H7c-1.4,0-2.5,1.1-2.5,2.5S5.6,16,7,16h8.4
				c-0.8,0.7-1.4,1.8-1.4,3c0,2.2,1.8,4,4,4c2.2,0,4-1.8,4-4c0,2.2,1.8,4,4,4c2.2,0,4-1.8,4-4c0-1.2-0.5-2.3-1.4-3H37
				c1.4,0,2.5-1.1,2.5-2.5S38.4,11,37,11z M13,9.9c0-2.5,0.5-4.9,1.4-7.2c0.2-0.6,1-0.9,1.6-0.6L17.8,3c2.6,1.3,5.9,1.3,8.5,0
				L28,2.1c0.6-0.3,1.4,0,1.6,0.6C30.5,5,31,7.4,31,9.9V11H13V9.9z M18,22c-1.7,0-3-1.3-3-3c0-1.7,1.3-3,3-3s3,1.3,3,3
				C21,20.7,19.7,22,18,22z M29,19c0,1.7-1.3,3-3,3s-3-1.3-3-3c0-1.7,1.3-3,3-3S29,17.3,29,19z M37,14H7c-0.3,0-0.5-0.2-0.5-0.5
				S6.7,13,7,13h5h20h5c0.3,0,0.5,0.2,0.5,0.5S37.3,14,37,14z"/>
		</g>
		<g>
			<g>
				<path class="st57" d="M29.6,2.7c-0.2-0.6-1-0.9-1.6-0.6l-0.6,0.3c0.1,0.1,0.2,0.2,0.2,0.3C28.5,5,29,7.4,29,9.9V11h2V9.9
					C31,7.4,30.5,5,29.6,2.7z"/>
			</g>
		</g>
		<g>
			<path class="st29" d="M30.9,8H13.1C13,8.6,13,9.3,13,9.9V11h18V9.9C31,9.3,31,8.6,30.9,8z"/>
		</g>
		<g>
			<path class="st58" d="M18,16c-1.7,0-3,1.3-3,3c0,0.3,0.1,0.6,0.1,0.9l3.7-3.7C18.6,16.1,18.3,16,18,16z"/>
		</g>
		<g>
			<path class="st58" d="M26,16c-1.7,0-3,1.3-3,3c0,0.3,0.1,0.6,0.1,0.9l3.7-3.7C26.6,16.1,26.3,16,26,16z"/>
		</g>
		<g>
			<path class="st58" d="M19.6,16.4l-4.1,4.1c0.1,0.2,0.3,0.4,0.4,0.6l4.2-4.2C20,16.7,19.8,16.6,19.6,16.4z"/>
		</g>
		<g>
			<path class="st58" d="M27.6,16.4l-4.1,4.1c0.1,0.2,0.3,0.4,0.4,0.6l4.2-4.2C28,16.7,27.8,16.6,27.6,16.4z"/>
		</g>
		<g>
			<path class="st24" d="M30.9,8h-2c0,0.2,0,0.6,0.1,1c0,0.6-0.4,1-1,1H13v1h16h2V9.9C31,9.3,31,8.6,30.9,8z"/>
		</g>
		<g>
			<path class="st54" d="M22,39v-4.4c0-2.2,1.2-4.2,3.1-5.3L33,25v8L22,39z"/>
			<path class="st1" d="M22,40c-0.2,0-0.4,0-0.5-0.1C21.2,39.7,21,39.4,21,39v-4.4c0-2.6,1.4-4.9,3.6-6.1l7.9-4.3
				c0.3-0.2,0.7-0.2,1,0c0.3,0.2,0.5,0.5,0.5,0.9v8c0,0.4-0.2,0.7-0.5,0.9l-11,6C22.3,40,22.2,40,22,40z M32,26.7l-6.4,3.5
				C24,31,23,32.7,23,34.6v2.8l9-4.9V26.7z"/>
		</g>
		<g>
			<path class="st57" d="M31,27.2v3.3c0,0.7-0.4,1.4-1,1.8l-7,3.8v1.2l9-4.9v-5.7L31,27.2z"/>
		</g>
		<g>
			<path class="st54" d="M22,39v-4.4c0-2.2-1.2-4.2-3.1-5.3L11,25l0,8L22,39z"/>
			<path class="st1" d="M22,40c-0.2,0-0.3,0-0.5-0.1l-11-6C10.2,33.7,10,33.4,10,33v-8c0-0.4,0.2-0.7,0.5-0.9c0.3-0.2,0.7-0.2,1,0
				l7.9,4.3c2.2,1.2,3.6,3.6,3.6,6.1V39c0,0.4-0.2,0.7-0.5,0.9C22.4,40,22.2,40,22,40z M12,32.4l9,4.9v-2.8c0-1.8-1-3.5-2.6-4.4
				L12,26.7V32.4z"/>
		</g>
		<g>
			<polygon class="st57" points="12,32.4 21,37.3 21,36 12,31.1 			"/>
		</g>
		<g>
			<circle class="st1" cx="19.5" cy="33.5" r="0.5"/>
		</g>
		<g>
			<circle class="st1" cx="24.5" cy="33.5" r="0.5"/>
		</g>
	</g>
</g>
</svg>
