<?xml version="1.0" encoding="utf-8"?>
<!-- Generator: Adobe Illustrator 21.1.0, SVG Export Plug-In . SVG Version: 6.00 Build 0)  -->
<svg version="1.1" xmlns="http://www.w3.org/2000/svg" xmlns:xlink="http://www.w3.org/1999/xlink" x="0px" y="0px"
	 viewBox="0 0 44 44" style="enable-background:new 0 0 44 44;" xml:space="preserve">
<style type="text/css">
	.st0{fill:#F5B445;}
	.st1{fill:#0B3A5B;}
	.st2{fill:#FFCA5D;}
	.st3{fill:#B0C4D8;}
	.st4{fill:#7B9FBE;}
	.st5{fill:#F7964B;}
	.st6{fill:#F47423;}
	.st7{fill:#FFE37C;}
	.st8{fill:#F8A247;}
	.st9{fill:#676A75;}
	.st10{fill:#0F395A;}
	.st11{fill:#585B67;}
	.st12{fill:#EAA239;}
	.st13{fill:#DA8C36;}
	.st14{fill:#C87629;}
	.st15{fill:#FFCB5B;}
	.st16{fill:#D3E2EB;}
	.st17{fill:#FFFFFF;}
	.st18{fill:#F5AE44;}
	.st19{fill:#D5E3EF;}
	.st20{fill:#0E395A;}
	.st21{fill:#C97629;}
	.st22{fill:#C0CED7;}
	.st23{fill:#8CA6BC;}
	.st24{fill:#4C9CD6;}
	.st25{fill:#3689C9;}
	.st26{fill:#FFE27A;}
	.st27{fill:#90CEF1;}
	.st28{fill:#ABE1FA;}
	.st29{fill:#70B7E5;}
	.st30{fill:#71747C;}
	.st31{fill:#F6B545;}
	.st32{fill:#E99C35;}
	.st33{fill:#3BB54A;}
	.st34{fill:#89C763;}
	.st35{fill:#AED477;}
	.st36{fill:#B0C4D9;}
	.st37{fill:#C9D5E3;}
	.st38{fill:#D3E2EB;stroke:#0B3A5B;stroke-width:2;stroke-linecap:round;stroke-linejoin:round;stroke-miterlimit:10;}
	.st39{fill:#99B5CD;}
	.st40{fill:#ECF0F9;}
	.st41{fill:#82A7C4;}
	.st42{fill:#F26A56;}
	.st43{fill:#FFD167;}
	.st44{fill:#2B5367;}
	.st45{fill:#FFCB5D;}
	.st46{fill:#F04D4E;}
	.st47{fill:#D5E3EE;}
	.st48{fill:#EDF1F9;}
	.st49{fill:#577280;}
	.st50{fill:#F16B56;}
	.st51{fill:#DCE4EE;}
	.st52{fill:#ECEFF9;}
	.st53{fill:#CEDAE6;}
	.st54{fill:#5F7B93;}
	.st55{fill:#EFC9AE;}
	.st56{fill:#E2B698;}
	.st57{fill:#4A6B84;}
	.st58{fill:#7592A5;}
</style>
<g id="trolley">
</g>
<g id="wallet">
</g>
<g id="shield">
</g>
<g id="pickaxe">
</g>
<g id="lock">
</g>
<g id="key">
</g>
<g id="mobile">
</g>
<g id="coins">
</g>
<g id="trade">
</g>
<g id="blockchain">
</g>
<g id="exchange">
</g>
<g id="graph">
</g>
<g id="video_x5F_card">
</g>
<g id="bitcoin">
	<g>
		<g>
			<circle class="st16" cx="22" cy="22" r="21"/>
			<path class="st1" d="M22,44C9.9,44,0,34.1,0,22S9.9,0,22,0s22,9.9,22,22S34.1,44,22,44z M22,2C11,2,2,11,2,22s9,20,20,20
				s20-9,20-20S33,2,22,2z"/>
		</g>
		<g>
			<path class="st17" d="M22,42c11,0,20-9,20-20c0-2.8-0.6-5.5-1.6-7.9L14.1,40.4C16.5,41.4,19.2,42,22,42z"/>
		</g>
		<g>
			<path class="st17" d="M35.7,7.5L7.5,35.7c1.3,1.3,2.7,2.5,4.3,3.5l27.4-27.4C38.2,10.2,37.1,8.7,35.7,7.5z"/>
		</g>
		<g>
			<g>
				<path class="st0" d="M22,36c-7.7,0-14-6.3-14-14S14.3,8,22,8s14,6.3,14,14S29.7,36,22,36z"/>
			</g>
			<g>
				<path class="st1" d="M22,8c7.7,0,14,6.3,14,14s-6.3,14-14,14S8,29.7,8,22S14.3,8,22,8 M22,7C13.7,7,7,13.7,7,22s6.7,15,15,15
					s15-6.7,15-15S30.3,7,22,7L22,7z"/>
			</g>
		</g>
		<g>
			<path class="st12" d="M9,23c0-7.7,6.3-14,14-14c3.6,0,6.9,1.4,9.4,3.6C29.8,9.8,26.1,8,22,8C14.3,8,8,14.3,8,22
				c0,4.1,1.8,7.8,4.6,10.4C10.4,29.9,9,26.6,9,23z"/>
		</g>
		<g>
			<path class="st43" d="M22,36c7.7,0,14-6.3,14-14c0-1.1-0.1-2.2-0.4-3.2L18.8,35.6C19.8,35.9,20.9,36,22,36z"/>
		</g>
		<g>
			<path class="st43" d="M31.5,11.7L11.7,31.5c1.3,1.4,2.8,2.5,4.5,3.3l18.5-18.5C34,14.5,32.8,13,31.5,11.7z"/>
		</g>
		<g>
			<path class="st1" d="M28.1,20.5c0.5-0.7,0.9-1.5,0.9-2.5c0-1.8-1.2-3.3-2.9-3.8c0,0,0,0-0.1,0C25,13.8,25,13.3,25,13v-1
				c0-0.6-0.4-1-1-1s-1,0.4-1,1v1c0,0.6-0.4,1-1,1s-1-0.4-1-1v-1c0-0.6-0.4-1-1-1s-1,0.4-1,1v1c0,0.6-0.4,1-1,1h-3v2h1
				c0.6,0,1,0.4,1,1v10c0,0.6-0.4,1-1,1h-1v2h3c0.6,0,1,0.4,1,1v1c0,0.6,0.4,1,1,1s1-0.4,1-1v-1c0-0.6,0.4-1,1-1s1,0.4,1,1v1
				c0,0.6,0.4,1,1,1s1-0.4,1-1v-1c0-0.6,0.4-1,1-1c2.8,0,5-2.2,5-5C31,23,29.8,21.3,28.1,20.5z M23,16c1.1,0,2,0.9,2,2s-0.9,2-2,2
				h-2v-4H23z M21,28v-6h3c1.7,0,3,1.3,3,3s-1.3,3-3,3H21z"/>
		</g>
		<g>
			<g>
				<ellipse transform="matrix(0.2588 -0.9659 0.9659 0.2588 11.4764 24.9558)" class="st41" cx="22" cy="5" rx="1" ry="1"/>
			</g>
			<g>
				<ellipse transform="matrix(0.2588 -0.9659 0.9659 0.2588 -21.3655 50.1564)" class="st41" cx="22" cy="39" rx="1" ry="1"/>
			</g>
			<g>
				<ellipse transform="matrix(0.9659 -0.2588 0.2588 0.9659 -1.4235 3.7419)" class="st41" cx="13.5" cy="7.3" rx="1" ry="1"/>
			</g>
			<g>
				<ellipse transform="matrix(0.9659 -0.2588 0.2588 0.9659 -8.4653 9.1452)" class="st41" cx="30.5" cy="36.7" rx="1" ry="1"/>
			</g>
			<g>
				<ellipse transform="matrix(0.7071 -0.7071 0.7071 0.7071 -7.4144 9.0997)" class="st41" cx="7.3" cy="13.5" rx="1" ry="1"/>
			</g>
			<g>
				<ellipse transform="matrix(0.7071 -0.7071 0.7071 0.7071 -10.8111 34.8999)" class="st41" cx="36.7" cy="30.5" rx="1" ry="1"/>
			</g>
			<g>
				<ellipse transform="matrix(0.2588 -0.9659 0.9659 0.2588 -17.5448 21.1351)" class="st41" cx="5" cy="22" rx="1" ry="1"/>
			</g>
			<g>
				<ellipse transform="matrix(0.2588 -0.9659 0.9659 0.2588 7.6557 53.9771)" class="st41" cx="39" cy="22" rx="1" ry="1"/>
			</g>
			<g>
				<ellipse transform="matrix(0.9659 -0.2588 0.2588 0.9659 -7.6461 2.9227)" class="st41" cx="7.3" cy="30.5" rx="1" ry="1"/>
			</g>
			<g>
				<ellipse transform="matrix(0.9659 -0.2588 0.2588 0.9659 -2.2427 9.9645)" class="st41" cx="36.7" cy="13.5" rx="1" ry="1"/>
			</g>
			<g>
				<ellipse transform="matrix(0.7071 -0.7071 0.7071 0.7071 -22.0129 20.3015)" class="st41" cx="13.5" cy="36.7" rx="1" ry="1"/>
			</g>
			<g>
				<ellipse transform="matrix(0.7071 -0.7071 0.7071 0.7071 3.7873 23.6982)" class="st41" cx="30.5" cy="7.3" rx="1" ry="1"/>
			</g>
		</g>
		<g>
			<g>
				<circle class="st41" cx="17.6" cy="5.6" r="1"/>
			</g>
			<g>
				<circle class="st41" cx="26.4" cy="38.4" r="1"/>
			</g>
			<g>
				<ellipse transform="matrix(0.866 -0.5 0.5 0.866 -3.6526 6.3263)" class="st41" cx="10" cy="10" rx="1" ry="1"/>
			</g>
			<g>
				<ellipse transform="matrix(0.866 -0.5 0.5 0.866 -12.4526 21.5683)" class="st41" cx="34" cy="34" rx="1" ry="1"/>
			</g>
			<g>
				<ellipse transform="matrix(0.5 -0.866 0.866 0.5 -12.4527 13.6314)" class="st41" cx="5.6" cy="17.6" rx="1" ry="1"/>
			</g>
			<g>
				<ellipse transform="matrix(0.5 -0.866 0.866 0.5 -3.6527 46.4733)" class="st41" cx="38.4" cy="26.4" rx="1" ry="1"/>
			</g>
			<g>
				<circle class="st41" cx="5.6" cy="26.4" r="1"/>
			</g>
			<g>
				<circle class="st41" cx="38.4" cy="17.6" r="1"/>
			</g>
			<g>
				<ellipse transform="matrix(0.866 -0.5 0.5 0.866 -15.6736 9.5473)" class="st41" cx="10" cy="34" rx="1" ry="1"/>
			</g>
			<g>
				<ellipse transform="matrix(0.866 -0.5 0.5 0.866 -0.4316 18.3473)" class="st41" cx="34" cy="10" rx="1" ry="1"/>
			</g>
			<g>
				<ellipse transform="matrix(0.5 -0.866 0.866 0.5 -24.4737 34.4523)" class="st41" cx="17.6" cy="38.4" rx="1" ry="1"/>
			</g>
			<g>
				<ellipse transform="matrix(0.5 -0.866 0.866 0.5 8.3683 25.6524)" class="st41" cx="26.4" cy="5.6" rx="1" ry="1"/>
			</g>
		</g>
	</g>
</g>
<g id="code">
</g>
<g id="contract">
</g>
<g id="network">
</g>
<g id="cloud">
</g>
<g id="pc">
</g>
<g id="anonymous">
</g>
</svg>
