<?xml version="1.0" encoding="utf-8"?>
<!-- Generator: Adobe Illustrator 21.1.0, SVG Export Plug-In . SVG Version: 6.00 Build 0)  -->
<svg version="1.1" xmlns="http://www.w3.org/2000/svg" xmlns:xlink="http://www.w3.org/1999/xlink" x="0px" y="0px"
	 viewBox="0 0 44 44" style="enable-background:new 0 0 44 44;" xml:space="preserve">
<style type="text/css">
	.st0{fill:#F5B445;}
	.st1{fill:#0B3A5B;}
	.st2{fill:#FFCA5D;}
	.st3{fill:#B0C4D8;}
	.st4{fill:#7B9FBE;}
	.st5{fill:#F7964B;}
	.st6{fill:#F47423;}
	.st7{fill:#FFE37C;}
	.st8{fill:#F8A247;}
	.st9{fill:#676A75;}
	.st10{fill:#0F395A;}
	.st11{fill:#585B67;}
	.st12{fill:#EAA239;}
	.st13{fill:#DA8C36;}
	.st14{fill:#C87629;}
	.st15{fill:#FFCB5B;}
	.st16{fill:#D3E2EB;}
	.st17{fill:#FFFFFF;}
	.st18{fill:#F5AE44;}
	.st19{fill:#D5E3EF;}
	.st20{fill:#0E395A;}
	.st21{fill:#C97629;}
	.st22{fill:#C0CED7;}
	.st23{fill:#8CA6BC;}
	.st24{fill:#4C9CD6;}
	.st25{fill:#3689C9;}
	.st26{fill:#FFE27A;}
	.st27{fill:#90CEF1;}
	.st28{fill:#ABE1FA;}
	.st29{fill:#70B7E5;}
	.st30{fill:#71747C;}
	.st31{fill:#F6B545;}
	.st32{fill:#E99C35;}
	.st33{fill:#3BB54A;}
	.st34{fill:#89C763;}
	.st35{fill:#AED477;}
	.st36{fill:#B0C4D9;}
	.st37{fill:#C9D5E3;}
	.st38{fill:#D3E2EB;stroke:#0B3A5B;stroke-width:2;stroke-linecap:round;stroke-linejoin:round;stroke-miterlimit:10;}
	.st39{fill:#99B5CD;}
	.st40{fill:#ECF0F9;}
	.st41{fill:#82A7C4;}
	.st42{fill:#F26A56;}
	.st43{fill:#FFD167;}
	.st44{fill:#2B5367;}
	.st45{fill:#FFCB5D;}
	.st46{fill:#F04D4E;}
	.st47{fill:#D5E3EE;}
	.st48{fill:#EDF1F9;}
	.st49{fill:#577280;}
	.st50{fill:#F16B56;}
	.st51{fill:#DCE4EE;}
	.st52{fill:#ECEFF9;}
	.st53{fill:#CEDAE6;}
	.st54{fill:#5F7B93;}
	.st55{fill:#EFC9AE;}
	.st56{fill:#E2B698;}
	.st57{fill:#4A6B84;}
	.st58{fill:#7592A5;}
</style>
<g id="trolley">
</g>
<g id="wallet">
</g>
<g id="shield">
</g>
<g id="pickaxe">
</g>
<g id="lock">
</g>
<g id="key">
</g>
<g id="mobile">
</g>
<g id="coins">
</g>
<g id="trade">
</g>
<g id="blockchain">
	<g>
		<circle class="st1" cx="30" cy="22" r="1"/>
		<circle class="st1" cx="14" cy="22" r="1"/>
		<circle class="st1" cx="10" cy="29" r="1"/>
		<circle class="st1" cx="34" cy="15" r="1"/>
		<circle class="st1" cx="10" cy="10" r="1"/>
		<circle class="st1" cx="7" cy="12" r="1"/>
		<circle class="st1" cx="13" cy="8" r="1"/>
		<circle class="st1" cx="17" cy="8" r="1"/>
		<circle class="st1" cx="21" cy="8" r="1"/>
		<circle class="st1" cx="34" cy="34" r="1"/>
		<circle class="st1" cx="37" cy="32" r="1"/>
		<circle class="st1" cx="31" cy="36" r="1"/>
		<circle class="st1" cx="27" cy="36" r="1"/>
		<circle class="st1" cx="23" cy="36" r="1"/>
		<polygon class="st38" points="6,28 1,25 1,19 6,22 		"/>
		<g>
			<g>
				<polygon class="st17" points="30,8 25,5 30,2 35,5 				"/>
			</g>
			<g>
				<polygon class="st16" points="30,14 25,11 25,5 30,8 				"/>
			</g>
			<g>
				<polygon class="st39" points="30,14 35,11 35,5 30,8 				"/>
			</g>
			<path class="st1" d="M35.5,4.1l-5-3c-0.3-0.2-0.7-0.2-1,0l-5,3C24.2,4.3,24,4.6,24,5v6c0,0.4,0.2,0.7,0.5,0.9l5,3
				C29.6,15,29.8,15,30,15s0.4,0,0.5-0.1l5-3c0.3-0.2,0.5-0.5,0.5-0.9V5C36,4.6,35.8,4.3,35.5,4.1z M30,3.2L33.1,5L30,6.8L26.9,5
				L30,3.2z M26,6.8l3,1.8v3.7l-3-1.8V6.8z M31,12.2V8.6l3-1.8v3.7L31,12.2z"/>
		</g>
		<g>
			<g>
				<polygon class="st17" points="38,22 33,19 38,16 43,19 				"/>
			</g>
			<g>
				<polygon class="st16" points="38,28 33,25 33,19 38,22 				"/>
			</g>
			<g>
				<polygon class="st39" points="38,28 43,25 43,19 38,22 				"/>
			</g>
			<path class="st1" d="M43.5,18.1l-5-3c-0.3-0.2-0.7-0.2-1,0l-5,3C32.2,18.3,32,18.6,32,19v6c0,0.4,0.2,0.7,0.5,0.9l5,3
				C37.6,29,37.8,29,38,29s0.4,0,0.5-0.1l5-3c0.3-0.2,0.5-0.5,0.5-0.9v-6C44,18.6,43.8,18.3,43.5,18.1z M38,17.2l3.1,1.8L38,20.8
				L34.9,19L38,17.2z M34,20.8l3,1.8v3.7l-3-1.8V20.8z M39,26.2v-3.7l3-1.8v3.7L39,26.2z"/>
		</g>
		<g>
			<g>
				<polygon class="st17" points="14,36 9,33 14,30 19,33 				"/>
			</g>
			<g>
				<polygon class="st16" points="14,42 9,39 9,33 14,36 				"/>
			</g>
			<g>
				<polygon class="st39" points="14,42 19,39 19,33 14,36 				"/>
			</g>
			<path class="st1" d="M19.5,32.1l-5-3c-0.3-0.2-0.7-0.2-1,0l-5,3C8.2,32.3,8,32.6,8,33v6c0,0.4,0.2,0.7,0.5,0.9l5,3
				C13.6,43,13.8,43,14,43s0.4,0,0.5-0.1l5-3c0.3-0.2,0.5-0.5,0.5-0.9v-6C20,32.6,19.8,32.3,19.5,32.1z M14,31.2l3.1,1.8L14,34.8
				L10.9,33L14,31.2z M10,34.8l3,1.8v3.7l-3-1.8V34.8z M15,40.2v-3.7l3-1.8v3.7L15,40.2z"/>
		</g>
		<g>
			<g>
				<polygon class="st27" points="22,22 17,19 22,16 27,19 				"/>
			</g>
			<g>
				<polygon class="st29" points="22,28 17,25 17,19 22,22 				"/>
			</g>
			<g>
				<polygon class="st25" points="22,28 27,25 27,19 22,22 				"/>
			</g>
			<path class="st1" d="M27.5,18.1l-5-3c-0.3-0.2-0.7-0.2-1,0l-5,3C16.2,18.3,16,18.6,16,19v6c0,0.4,0.2,0.7,0.5,0.9l5,3
				C21.6,29,21.8,29,22,29s0.4,0,0.5-0.1l5-3c0.3-0.2,0.5-0.5,0.5-0.9v-6C28,18.6,27.8,18.3,27.5,18.1z M22,17.2l3.1,1.8L22,20.8
				L18.9,19L22,17.2z M18,20.8l3,1.8v3.7l-3-1.8V20.8z M23,26.2v-3.7l3-1.8v3.7L23,26.2z"/>
		</g>
		<g>
			<g>
				<polygon class="st17" points="6,22 1,19 6,16 11,19 				"/>
			</g>
			<g>
				<polygon class="st16" points="6,28 1,25 1,19 6,22 				"/>
			</g>
			<g>
				<polygon class="st39" points="6,28 11,25 11,19 6,22 				"/>
			</g>
			<path class="st1" d="M11.5,18.1l-5-3c-0.3-0.2-0.7-0.2-1,0l-5,3C0.2,18.3,0,18.6,0,19v6c0,0.4,0.2,0.7,0.5,0.9l5,3
				C5.6,29,5.8,29,6,29s0.4,0,0.5-0.1l5-3c0.3-0.2,0.5-0.5,0.5-0.9v-6C12,18.6,11.8,18.3,11.5,18.1z M6,17.2L9.1,19L6,20.8L2.9,19
				L6,17.2z M2,20.8l3,1.8v3.7l-3-1.8V20.8z M7,26.2v-3.7l3-1.8v3.7L7,26.2z"/>
		</g>
	</g>
</g>
<g id="exchange">
</g>
<g id="graph">
</g>
<g id="video_x5F_card">
</g>
<g id="bitcoin">
</g>
<g id="code">
</g>
<g id="contract">
</g>
<g id="network">
</g>
<g id="cloud">
</g>
<g id="pc">
</g>
<g id="anonymous">
</g>
</svg>
