<?xml version="1.0" encoding="utf-8"?>
<!-- Generator: Adobe Illustrator 21.1.0, SVG Export Plug-In . SVG Version: 6.00 Build 0)  -->
<svg version="1.1" xmlns="http://www.w3.org/2000/svg" xmlns:xlink="http://www.w3.org/1999/xlink" x="0px" y="0px"
	 viewBox="0 0 44 44" style="enable-background:new 0 0 44 44;" xml:space="preserve">
<style type="text/css">
	.st0{fill:#F5B445;}
	.st1{fill:#0B3A5B;}
	.st2{fill:#FFCA5D;}
	.st3{fill:#B0C4D8;}
	.st4{fill:#7B9FBE;}
	.st5{fill:#F7964B;}
	.st6{fill:#F47423;}
	.st7{fill:#FFE37C;}
	.st8{fill:#F8A247;}
	.st9{fill:#676A75;}
	.st10{fill:#0F395A;}
	.st11{fill:#585B67;}
	.st12{fill:#EAA239;}
	.st13{fill:#DA8C36;}
	.st14{fill:#C87629;}
	.st15{fill:#FFCB5B;}
	.st16{fill:#D3E2EB;}
	.st17{fill:#FFFFFF;}
	.st18{fill:#F5AE44;}
	.st19{fill:#D5E3EF;}
	.st20{fill:#0E395A;}
	.st21{fill:#C97629;}
	.st22{fill:#C0CED7;}
	.st23{fill:#8CA6BC;}
	.st24{fill:#4C9CD6;}
	.st25{fill:#3689C9;}
	.st26{fill:#FFE27A;}
	.st27{fill:#90CEF1;}
	.st28{fill:#ABE1FA;}
	.st29{fill:#70B7E5;}
	.st30{fill:#71747C;}
	.st31{fill:#F6B545;}
	.st32{fill:#E99C35;}
	.st33{fill:#3BB54A;}
	.st34{fill:#89C763;}
	.st35{fill:#AED477;}
	.st36{fill:#B0C4D9;}
	.st37{fill:#C9D5E3;}
	.st38{fill:#D3E2EB;stroke:#0B3A5B;stroke-width:2;stroke-linecap:round;stroke-linejoin:round;stroke-miterlimit:10;}
	.st39{fill:#99B5CD;}
	.st40{fill:#ECF0F9;}
	.st41{fill:#82A7C4;}
	.st42{fill:#F26A56;}
	.st43{fill:#FFD167;}
	.st44{fill:#2B5367;}
	.st45{fill:#FFCB5D;}
	.st46{fill:#F04D4E;}
	.st47{fill:#D5E3EE;}
	.st48{fill:#EDF1F9;}
	.st49{fill:#577280;}
	.st50{fill:#F16B56;}
	.st51{fill:#DCE4EE;}
	.st52{fill:#ECEFF9;}
	.st53{fill:#CEDAE6;}
	.st54{fill:#5F7B93;}
	.st55{fill:#EFC9AE;}
	.st56{fill:#E2B698;}
	.st57{fill:#4A6B84;}
	.st58{fill:#7592A5;}
</style>
<g id="trolley">
</g>
<g id="wallet">
</g>
<g id="shield">
</g>
<g id="pickaxe">
</g>
<g id="lock">
</g>
<g id="key">
</g>
<g id="mobile">
</g>
<g id="coins">
</g>
<g id="trade">
</g>
<g id="blockchain">
</g>
<g id="exchange">
</g>
<g id="graph">
</g>
<g id="video_x5F_card">
</g>
<g id="bitcoin">
</g>
<g id="code">
</g>
<g id="contract">
</g>
<g id="network">
</g>
<g id="cloud">
	<g>
		<g>
			<g>
				<path class="st1" d="M40.5,33c-0.3,0-0.5-0.2-0.5-0.5v-1c0-0.3,0.2-0.5,0.5-0.5s0.5,0.2,0.5,0.5v1C41,32.8,40.8,33,40.5,33z"/>
			</g>
		</g>
		<g>
			<g>
				<path class="st1" d="M8.5,37C8.2,37,8,36.8,8,36.5v-1C8,35.2,8.2,35,8.5,35S9,35.2,9,35.5v1C9,36.8,8.8,37,8.5,37z"/>
			</g>
		</g>
		<g>
			<g>
				<path class="st1" d="M40.5,29c-0.3,0-0.5-0.2-0.5-0.5v-3c0-0.3,0.2-0.5,0.5-0.5s0.5,0.2,0.5,0.5v3C41,28.8,40.8,29,40.5,29z"/>
			</g>
		</g>
		<g>
			<g>
				<path class="st1" d="M32.5,34c-0.3,0-0.5-0.2-0.5-0.5v-5c0-0.3,0.2-0.5,0.5-0.5s0.5,0.2,0.5,0.5v5C33,33.8,32.8,34,32.5,34z"/>
			</g>
		</g>
		<g>
			<g>
				<path class="st1" d="M19.5,42c-0.3,0-0.5-0.2-0.5-0.5v-5c0-0.3,0.2-0.5,0.5-0.5s0.5,0.2,0.5,0.5v5C20,41.8,19.8,42,19.5,42z"/>
			</g>
		</g>
		<g>
			<g>
				<path class="st1" d="M26.5,39c-0.3,0-0.5-0.2-0.5-0.5v-3c0-0.3,0.2-0.5,0.5-0.5s0.5,0.2,0.5,0.5v3C27,38.8,26.8,39,26.5,39z"/>
			</g>
		</g>
		<g>
			<g>
				<path class="st1" d="M5.5,41C5.2,41,5,40.8,5,40.5v-3C5,37.2,5.2,37,5.5,37S6,37.2,6,37.5v3C6,40.8,5.8,41,5.5,41z"/>
			</g>
		</g>
		<g>
			<g>
				<path class="st1" d="M12.5,36c-0.3,0-0.5-0.2-0.5-0.5v-5c0-0.3,0.2-0.5,0.5-0.5s0.5,0.2,0.5,0.5v5C13,35.8,12.8,36,12.5,36z"/>
			</g>
		</g>
		<g>
			<path class="st17" d="M36,9c-0.4,0-0.8,0-1.2,0.1C33.9,4.5,29.9,1,25,1c-1.8,0-3.5,0.5-5,1.3c-1.6,0.9-3,2.3-3.9,4
				C15,5.5,13.6,5,12,5c-3.9,0-7,3.1-7,7c0,0.4,0,0.7,0.1,1.1C2.8,13.5,1,15.5,1,18c0,2.8,2.2,5,5,5c2.5,0,27.5,0,30,0
				c3.9,0,7-3.1,7-7C43,12.1,39.9,9,36,9z"/>
			<g>
				<g>
					<path class="st51" d="M31,9.8c0.8-0.6,1.7-1.1,2.6-1.4c-1-3.3-3.8-5.7-7.3-6.3C29,3.6,30.9,6.5,31,9.8z"/>
				</g>
			</g>
			<g>
				<path class="st51" d="M39.1,10.9c0.6,0.9,0.9,2,0.9,3.1c0,2-1,3.8-2.5,4.9c-1,0.7-2.2,1.1-3.5,1.1h-2.4H11.9
					c-1.1,0-1.9-0.9-1.9-2c0,0,0,0,0,0c0-2-1.4-3.6-3.3-3.9C7.5,14.8,8,15.8,8,17c0,1.2-0.5,2.3-1.4,3C5.9,20.6,5,21,4,21
					c-0.2,0-0.5,0-0.7-0.1c0.6,0.6,1.5,1,2.4,1c0,0,0.1,0,0.3,0h30c1.3,0,2.5-0.4,3.5-1.1C41,19.8,42,18,42,16
					C42,13.8,40.8,11.9,39.1,10.9z"/>
			</g>
		</g>
		<path class="st1" d="M36,24c4.4,0,8-3.6,8-8s-3.6-8-8-8c-0.1,0-0.3,0-0.4,0C34.3,3.3,30,0,25,0c-1.9,0-3.8,0.5-5.5,1.5
			C18,2.3,16.7,3.5,15.8,5c-1.2-0.6-2.5-1-3.8-1c-4.4,0-8,3.6-8,8c0,0.1,0,0.2,0,0.3c-2.4,0.8-4,3.1-4,5.7c0,3,2.2,5.4,5,5.9v2.8
			c0,0.4-0.2,0.8-0.4,1.1l-1.8,1.8C2.3,30,2,30.7,2,31.3v1.8c-0.6,0.2-1,0.8-1,1.4C1,35.3,1.7,36,2.5,36S4,35.3,4,34.5
			c0-0.7-0.4-1.2-1-1.4v-1.8c0-0.4,0.2-0.8,0.4-1.1l1.8-1.8C5.7,28,6,27.3,6,26.7V24h2v6.1c-0.6,0.2-1,0.8-1,1.4
			C7,32.3,7.7,33,8.5,33s1.5-0.7,1.5-1.5c0-0.7-0.4-1.2-1-1.4V24h25v0.7c0,0.7,0.3,1.3,0.7,1.8l1.8,1.8c0.3,0.3,0.4,0.7,0.4,1.1v2.3
			c0,0.4-0.2,0.8-0.4,1.1l-0.8,0.8C35.3,34,35,34.7,35,35.3v0.8c-0.6,0.2-1,0.8-1,1.4c0,0.8,0.7,1.5,1.5,1.5s1.5-0.7,1.5-1.5
			c0-0.7-0.4-1.2-1-1.4v-0.8c0-0.4,0.2-0.8,0.4-1.1l0.8-0.8c0.5-0.5,0.7-1.1,0.7-1.8v-2.3c0-0.7-0.3-1.3-0.7-1.8l-1.8-1.8
			c-0.3-0.3-0.4-0.7-0.4-1.1V24H36z M2.5,35C2.2,35,2,34.8,2,34.5S2.2,34,2.5,34S3,34.2,3,34.5S2.8,35,2.5,35z M35.5,38
			c-0.3,0-0.5-0.2-0.5-0.5s0.2-0.5,0.5-0.5s0.5,0.2,0.5,0.5S35.8,38,35.5,38z M8.5,32C8.2,32,8,31.8,8,31.5S8.2,31,8.5,31
			S9,31.2,9,31.5S8.8,32,8.5,32z M6,22c-2.2,0-4-1.8-4-4c0-1.9,1.4-3.6,3.3-3.9c0,0,0,0,0,0C5.5,14,5.8,14,6,14c1.6,0,3,0.9,3.7,2.4
			c0.2,0.5,0.8,0.7,1.3,0.5c0.5-0.2,0.7-0.8,0.5-1.3C10.5,13.4,8.4,12,6,12c0-3.3,2.7-6,6-6c1.2,0,2.4,0.4,3.5,1.1
			c0.8,0.6,1.5,1.4,2,2.3C17.6,9.8,18,10,18.3,10c0.1,0,0.3,0,0.4-0.1c0.5-0.2,0.7-0.8,0.5-1.3c-0.4-0.9-1.1-1.7-1.8-2.4
			c0.8-1.2,1.8-2.2,3.1-3C21.9,2.4,23.4,2,25,2c4,0,7.5,2.6,8.6,6.4c-1.8,0.6-3.4,1.8-4.5,3.5c-0.3,0.5-0.1,1.1,0.3,1.4
			c0.2,0.1,0.3,0.1,0.5,0.1c0.3,0,0.7-0.2,0.9-0.5c0.9-1.5,2.4-2.5,4.2-2.8c0.1,0,0.3,0,0.4-0.1c0.2,0,0.4,0,0.6,0c3.3,0,6,2.7,6,6
			s-2.7,6-6,6H6z"/>
		<g>
			<g>
				<circle class="st0" cx="22" cy="22" r="9"/>
				<path class="st1" d="M31,41.1v-4.3c0-0.7-0.3-1.3-0.7-1.8l-2.8-2.8c-0.3-0.3-0.4-0.7-0.4-1.1v-0.5c3-1.7,5-5,5-8.6
					c0-5.5-4.5-10-10-10s-10,4.5-10,10c0,4.5,2.9,8.2,7,9.5c-0.1,0.3-0.2,0.5-0.4,0.7l-3.8,3.8c-0.5,0.5-0.7,1.1-0.7,1.8v2.3
					c-0.6,0.2-1,0.8-1,1.4c0,0.8,0.7,1.5,1.5,1.5s1.5-0.7,1.5-1.5c0-0.7-0.4-1.2-1-1.4v-2.3c0-0.4,0.2-0.8,0.4-1.1l3.8-3.8
					c0.3-0.3,0.5-0.7,0.6-1.2c0.7,0.1,1.4,0.2,2.1,0.2c0.3,0,0.7,0,1-0.1v7.1c-0.6,0.2-1,0.8-1,1.4c0,0.8,0.7,1.5,1.5,1.5
					s1.5-0.7,1.5-1.5c0-0.7-0.4-1.2-1-1.4v-7.3c0.7-0.1,1.4-0.4,2-0.6v0c0,0.7,0.3,1.3,0.7,1.8l2.8,2.8c0.3,0.3,0.4,0.7,0.4,1.1v4.3
					c-0.6,0.2-1,0.8-1,1.4c0,0.8,0.7,1.5,1.5,1.5s1.5-0.7,1.5-1.5C32,41.8,31.6,41.3,31,41.1z M14.5,42c-0.3,0-0.5-0.2-0.5-0.5
					s0.2-0.5,0.5-0.5s0.5,0.2,0.5,0.5S14.8,42,14.5,42z M23.5,41c-0.3,0-0.5-0.2-0.5-0.5s0.2-0.5,0.5-0.5s0.5,0.2,0.5,0.5
					S23.8,41,23.5,41z M14,22c0-4.4,3.6-8,8-8s8,3.6,8,8s-3.6,8-8,8S14,26.4,14,22z M30.5,43c-0.3,0-0.5-0.2-0.5-0.5
					s0.2-0.5,0.5-0.5s0.5,0.2,0.5,0.5S30.8,43,30.5,43z"/>
			</g>
			<g>
				<path class="st15" d="M24.3,14.4l-10,10c0.6,1.8,1.8,3.4,3.4,4.4l11-11C27.7,16.1,26.2,14.9,24.3,14.4z"/>
			</g>
			<g>
				<path class="st15" d="M22,30c4.4,0,8-3.6,8-8c0-0.6-0.1-1.3-0.2-1.9l-9.6,9.6C20.7,29.9,21.4,30,22,30z"/>
			</g>
			<path class="st1" d="M25.6,21.5C25.8,21,26,20.5,26,20c0-1.7-1.3-3-3-3c0-0.6-0.4-1-1-1s-1,0.4-1,1h-2c-0.6,0-1,0.4-1,1
				s0.4,1,1,1v6c-0.6,0-1,0.4-1,1s0.4,1,1,1h2c0,0.6,0.4,1,1,1s1-0.4,1-1h1c1.7,0,3-1.3,3-3C27,22.9,26.4,22,25.6,21.5z M23,19
				c0.6,0,1,0.4,1,1s-0.4,1-1,1h-2v-2H23z M24,25h-3v-2h3c0.6,0,1,0.4,1,1S24.6,25,24,25z"/>
		</g>
	</g>
</g>
<g id="pc">
</g>
<g id="anonymous">
</g>
</svg>
