<?xml version="1.0" encoding="utf-8"?>
<!-- Generator: Adobe Illustrator 21.1.0, SVG Export Plug-In . SVG Version: 6.00 Build 0)  -->
<svg version="1.1" xmlns="http://www.w3.org/2000/svg" xmlns:xlink="http://www.w3.org/1999/xlink" x="0px" y="0px"
	 viewBox="0 0 44 44" style="enable-background:new 0 0 44 44;" xml:space="preserve">
<style type="text/css">
	.st0{fill:#F5B445;}
	.st1{fill:#0B3A5B;}
	.st2{fill:#FFCA5D;}
	.st3{fill:#B0C4D8;}
	.st4{fill:#7B9FBE;}
	.st5{fill:#F7964B;}
	.st6{fill:#F47423;}
	.st7{fill:#FFE37C;}
	.st8{fill:#F8A247;}
	.st9{fill:#676A75;}
	.st10{fill:#0F395A;}
	.st11{fill:#585B67;}
	.st12{fill:#EAA239;}
	.st13{fill:#DA8C36;}
	.st14{fill:#C87629;}
	.st15{fill:#FFCB5B;}
	.st16{fill:#D3E2EB;}
	.st17{fill:#FFFFFF;}
	.st18{fill:#F5AE44;}
	.st19{fill:#D5E3EF;}
	.st20{fill:#0E395A;}
	.st21{fill:#C97629;}
	.st22{fill:#C0CED7;}
	.st23{fill:#8CA6BC;}
	.st24{fill:#4C9CD6;}
	.st25{fill:#3689C9;}
	.st26{fill:#FFE27A;}
	.st27{fill:#90CEF1;}
	.st28{fill:#ABE1FA;}
	.st29{fill:#70B7E5;}
	.st30{fill:#71747C;}
	.st31{fill:#F6B545;}
	.st32{fill:#E99C35;}
	.st33{fill:#3BB54A;}
	.st34{fill:#89C763;}
	.st35{fill:#AED477;}
	.st36{fill:#B0C4D9;}
	.st37{fill:#C9D5E3;}
	.st38{fill:#D3E2EB;stroke:#0B3A5B;stroke-width:2;stroke-linecap:round;stroke-linejoin:round;stroke-miterlimit:10;}
	.st39{fill:#99B5CD;}
	.st40{fill:#ECF0F9;}
	.st41{fill:#82A7C4;}
	.st42{fill:#F26A56;}
	.st43{fill:#FFD167;}
	.st44{fill:#2B5367;}
	.st45{fill:#FFCB5D;}
	.st46{fill:#F04D4E;}
	.st47{fill:#D5E3EE;}
	.st48{fill:#EDF1F9;}
	.st49{fill:#577280;}
	.st50{fill:#F16B56;}
	.st51{fill:#DCE4EE;}
	.st52{fill:#ECEFF9;}
	.st53{fill:#CEDAE6;}
	.st54{fill:#5F7B93;}
	.st55{fill:#EFC9AE;}
	.st56{fill:#E2B698;}
	.st57{fill:#4A6B84;}
	.st58{fill:#7592A5;}
</style>
<g id="trolley">
</g>
<g id="wallet">
</g>
<g id="shield">
</g>
<g id="pickaxe">
</g>
<g id="lock">
</g>
<g id="key">
</g>
<g id="mobile">
</g>
<g id="coins">
</g>
<g id="trade">
</g>
<g id="blockchain">
</g>
<g id="exchange">
</g>
<g id="graph">
</g>
<g id="video_x5F_card">
</g>
<g id="bitcoin">
</g>
<g id="code">
	<g>
		<path class="st44" d="M41,37H3c-1.1,0-2-0.9-2-2V9h42v26C43,36.1,42.1,37,41,37z"/>
		<g>
			<path class="st40" d="M43,9H1V5c0-1.1,0.9-2,2-2h38c1.1,0,2,0.9,2,2V9z"/>
			<path class="st1" d="M41,2H3C1.3,2,0,3.3,0,5v4v26c0,1.7,1.3,3,3,3h38c1.7,0,3-1.3,3-3V9V5C44,3.3,42.7,2,41,2z M2,5
				c0-0.6,0.4-1,1-1h38c0.6,0,1,0.4,1,1v3H2V5z M42,35c0,0.6-0.4,1-1,1H3c-0.6,0-1-0.4-1-1V10h40V35z"/>
		</g>
		<g>
			<circle class="st1" cx="5" cy="6" r="1"/>
		</g>
		<g>
			<circle class="st1" cx="9" cy="6" r="1"/>
		</g>
		<g>
			<circle class="st1" cx="13" cy="6" r="1"/>
		</g>
		<g>
			<g>
				<path class="st17" d="M4,12.5C4,12.2,4.2,12,4.5,12h6c0.3,0,0.5,0.2,0.5,0.5S10.8,13,10.5,13h-6C4.2,13,4,12.8,4,12.5z"/>
			</g>
		</g>
		<g>
			<g>
				<path class="st17" d="M13,33.5c0-0.3,0.2-0.5,0.5-0.5h6c0.3,0,0.5,0.2,0.5,0.5S19.8,34,19.5,34h-6C13.2,34,13,33.8,13,33.5z"/>
			</g>
		</g>
		<g>
			<g>
				<path class="st17" d="M7,15.5C7,15.2,7.2,15,7.5,15h6c0.3,0,0.5,0.2,0.5,0.5S13.8,16,13.5,16h-6C7.2,16,7,15.8,7,15.5z"/>
			</g>
		</g>
		<g>
			<g>
				<path class="st17" d="M21,30.5c0-0.3,0.2-0.5,0.5-0.5h6c0.3,0,0.5,0.2,0.5,0.5S27.8,31,27.5,31h-6C21.2,31,21,30.8,21,30.5z"/>
			</g>
		</g>
		<g>
			<g>
				<path class="st17" d="M28,15.5c0-0.3,0.2-0.5,0.5-0.5h6c0.3,0,0.5,0.2,0.5,0.5S34.8,16,34.5,16h-6C28.2,16,28,15.8,28,15.5z"/>
			</g>
		</g>
		<g>
			<g>
				<path class="st17" d="M16,24.5c0-0.3,0.2-0.5,0.5-0.5h6c0.3,0,0.5,0.2,0.5,0.5S22.8,25,22.5,25h-6C16.2,25,16,24.8,16,24.5z"/>
			</g>
		</g>
		<g>
			<g>
				<path class="st45" d="M21,18.5c0-0.3,0.2-0.5,0.5-0.5h6c0.3,0,0.5,0.2,0.5,0.5S27.8,19,27.5,19h-6C21.2,19,21,18.8,21,18.5z"/>
			</g>
		</g>
		<g>
			<g>
				<path class="st45" d="M7,24.5C7,24.2,7.2,24,7.5,24h6c0.3,0,0.5,0.2,0.5,0.5S13.8,25,13.5,25h-6C7.2,25,7,24.8,7,24.5z"/>
			</g>
		</g>
		<g>
			<g>
				<path class="st45" d="M22,33.5c0-0.3,0.2-0.5,0.5-0.5h4c0.3,0,0.5,0.2,0.5,0.5S26.8,34,26.5,34h-4C22.2,34,22,33.8,22,33.5z"/>
			</g>
		</g>
		<g>
			<g>
				<path class="st46" d="M16,15.5c0-0.3,0.2-0.5,0.5-0.5h3c0.3,0,0.5,0.2,0.5,0.5S19.8,16,19.5,16h-3C16.2,16,16,15.8,16,15.5z"/>
			</g>
		</g>
		<g>
			<g>
				<path class="st17" d="M22,15.5c0-0.3,0.2-0.5,0.5-0.5h3c0.3,0,0.5,0.2,0.5,0.5S25.8,16,25.5,16h-3C22.2,16,22,15.8,22,15.5z"/>
			</g>
		</g>
		<g>
			<g>
				<path class="st17" d="M7,27.5C7,27.2,7.2,27,7.5,27h3c0.3,0,0.5,0.2,0.5,0.5S10.8,28,10.5,28h-3C7.2,28,7,27.8,7,27.5z"/>
			</g>
		</g>
		<g>
			<g>
				<path class="st17" d="M4,21.5C4,21.2,4.2,21,4.5,21h3C7.8,21,8,21.2,8,21.5S7.8,22,7.5,22h-3C4.2,22,4,21.8,4,21.5z"/>
			</g>
		</g>
		<g>
			<g>
				<path class="st46" d="M27,27.5c0-0.3,0.2-0.5,0.5-0.5h3c0.3,0,0.5,0.2,0.5,0.5S30.8,28,30.5,28h-3C27.2,28,27,27.8,27,27.5z"/>
			</g>
		</g>
		<g>
			<g>
				<path class="st46" d="M7,33.5C7,33.2,7.2,33,7.5,33h3c0.3,0,0.5,0.2,0.5,0.5S10.8,34,10.5,34h-3C7.2,34,7,33.8,7,33.5z"/>
			</g>
		</g>
		<g>
			<g>
				<path class="st17" d="M7,18.5C7,18.2,7.2,18,7.5,18h11c0.3,0,0.5,0.2,0.5,0.5S18.8,19,18.5,19h-11C7.2,19,7,18.8,7,18.5z"/>
			</g>
		</g>
		<g>
			<g>
				<path class="st17" d="M13,27.5c0-0.3,0.2-0.5,0.5-0.5h11c0.3,0,0.5,0.2,0.5,0.5S24.8,28,24.5,28h-11C13.2,28,13,27.8,13,27.5z"
					/>
			</g>
		</g>
		<g>
			<g>
				<path class="st17" d="M7,30.5C7,30.2,7.2,30,7.5,30h11c0.3,0,0.5,0.2,0.5,0.5S18.8,31,18.5,31h-11C7.2,31,7,30.8,7,30.5z"/>
			</g>
		</g>
		<g>
			<g>
				<circle class="st0" cx="34" cy="32" r="8"/>
				<path class="st1" d="M34,42c-5.5,0-10-4.5-10-10s4.5-10,10-10s10,4.5,10,10S39.5,42,34,42z M34,24c-4.4,0-8,3.6-8,8s3.6,8,8,8
					s8-3.6,8-8S38.4,24,34,24z"/>
			</g>
			<g>
				<path class="st15" d="M36.3,24.4l-10,10c0.6,1.8,1.8,3.4,3.4,4.4l11-11C39.7,26.1,38.2,24.9,36.3,24.4z"/>
			</g>
			<g>
				<path class="st15" d="M34,40c4.4,0,8-3.6,8-8c0-0.6-0.1-1.3-0.2-1.9l-9.6,9.6C32.7,39.9,33.4,40,34,40z"/>
			</g>
			<path class="st1" d="M37.6,31.5C37.8,31,38,30.5,38,30c0-1.7-1.3-3-3-3c0-0.6-0.4-1-1-1s-1,0.4-1,1h-2c-0.6,0-1,0.4-1,1
				s0.4,1,1,1v6c-0.6,0-1,0.4-1,1s0.4,1,1,1h2c0,0.6,0.4,1,1,1s1-0.4,1-1h1c1.7,0,3-1.3,3-3C39,32.9,38.4,32,37.6,31.5z M35,29
				c0.6,0,1,0.4,1,1s-0.4,1-1,1h-2v-2H35z M36,35h-3v-2h3c0.6,0,1,0.4,1,1S36.6,35,36,35z"/>
		</g>
	</g>
</g>
<g id="contract">
</g>
<g id="network">
</g>
<g id="cloud">
</g>
<g id="pc">
</g>
<g id="anonymous">
</g>
</svg>
