<?xml version="1.0" encoding="utf-8"?>
<!-- Generator: Adobe Illustrator 21.1.0, SVG Export Plug-In . SVG Version: 6.00 Build 0)  -->
<svg version="1.1" xmlns="http://www.w3.org/2000/svg" xmlns:xlink="http://www.w3.org/1999/xlink" x="0px" y="0px"
	 viewBox="0 0 44 44" style="enable-background:new 0 0 44 44;" xml:space="preserve">
<style type="text/css">
	.st0{fill:#F5B445;}
	.st1{fill:#0B3A5B;}
	.st2{fill:#FFCA5D;}
	.st3{fill:#B0C4D8;}
	.st4{fill:#7B9FBE;}
	.st5{fill:#F7964B;}
	.st6{fill:#F47423;}
	.st7{fill:#FFE37C;}
	.st8{fill:#F8A247;}
	.st9{fill:#676A75;}
	.st10{fill:#0F395A;}
	.st11{fill:#585B67;}
	.st12{fill:#EAA239;}
	.st13{fill:#DA8C36;}
	.st14{fill:#C87629;}
	.st15{fill:#FFCB5B;}
	.st16{fill:#D3E2EB;}
	.st17{fill:#FFFFFF;}
	.st18{fill:#F5AE44;}
	.st19{fill:#D5E3EF;}
	.st20{fill:#0E395A;}
	.st21{fill:#C97629;}
	.st22{fill:#C0CED7;}
	.st23{fill:#8CA6BC;}
	.st24{fill:#4C9CD6;}
	.st25{fill:#3689C9;}
	.st26{fill:#FFE27A;}
	.st27{fill:#90CEF1;}
	.st28{fill:#ABE1FA;}
	.st29{fill:#70B7E5;}
	.st30{fill:#71747C;}
	.st31{fill:#F6B545;}
	.st32{fill:#E99C35;}
	.st33{fill:#3BB54A;}
	.st34{fill:#89C763;}
	.st35{fill:#AED477;}
	.st36{fill:#B0C4D9;}
	.st37{fill:#C9D5E3;}
	.st38{fill:#D3E2EB;stroke:#0B3A5B;stroke-width:2;stroke-linecap:round;stroke-linejoin:round;stroke-miterlimit:10;}
	.st39{fill:#99B5CD;}
	.st40{fill:#ECF0F9;}
	.st41{fill:#82A7C4;}
	.st42{fill:#F26A56;}
	.st43{fill:#FFD167;}
	.st44{fill:#2B5367;}
	.st45{fill:#FFCB5D;}
	.st46{fill:#F04D4E;}
	.st47{fill:#D5E3EE;}
	.st48{fill:#EDF1F9;}
	.st49{fill:#577280;}
	.st50{fill:#F16B56;}
	.st51{fill:#DCE4EE;}
	.st52{fill:#ECEFF9;}
	.st53{fill:#CEDAE6;}
	.st54{fill:#5F7B93;}
	.st55{fill:#EFC9AE;}
	.st56{fill:#E2B698;}
	.st57{fill:#4A6B84;}
	.st58{fill:#7592A5;}
</style>
<g id="trolley">
</g>
<g id="wallet">
</g>
<g id="shield">
</g>
<g id="pickaxe">
</g>
<g id="lock">
</g>
<g id="key">
</g>
<g id="mobile">
</g>
<g id="coins">
	<g>
		<g>
			<rect x="16" y="33" class="st0" width="21" height="3"/>
			<g>
				<rect x="16" y="33" class="st15" width="21" height="1"/>
			</g>
			<g>
				<path class="st32" d="M16,33v3h6.3c1-0.9,1.9-1.9,2.6-3H16z"/>
			</g>
			<g>
				<path class="st0" d="M24.9,33H16v1h8.2C24.5,33.7,24.7,33.3,24.9,33z"/>
			</g>
			<path class="st1" d="M38,31H15c-0.6,0-1,0.4-1,1v5c0,0.6,0.4,1,1,1h23c0.6,0,1-0.4,1-1v-5C39,31.4,38.6,31,38,31z M37,36h-2v-1.5
				c0-0.3-0.2-0.5-0.5-0.5S34,34.2,34,34.5V36h-3v-1.5c0-0.3-0.2-0.5-0.5-0.5S30,34.2,30,34.5V36h-3v-1.5c0-0.3-0.2-0.5-0.5-0.5
				S26,34.2,26,34.5V36h-3v-1.5c0-0.3-0.2-0.5-0.5-0.5S22,34.2,22,34.5V36h-3v-1.5c0-0.3-0.2-0.5-0.5-0.5S18,34.2,18,34.5V36h-2v-3
				h21V36z"/>
		</g>
		<g>
			<rect x="21" y="28" class="st0" width="21" height="3"/>
			<g>
				<rect x="21" y="28" class="st15" width="21" height="1"/>
			</g>
			<g>
				<path class="st32" d="M26.8,28H23v3h3C26.4,30.1,26.7,29,26.8,28z"/>
			</g>
			<g>
				<path class="st0" d="M26.6,29c0.1-0.3,0.2-0.7,0.2-1H23v1H26.6z"/>
			</g>
			<path class="st1" d="M43,26H20c-0.6,0-1,0.4-1,1v5c0,0.6,0.4,1,1,1h23c0.6,0,1-0.4,1-1v-5C44,26.4,43.6,26,43,26z M42,31h-2v-1.5
				c0-0.3-0.2-0.5-0.5-0.5S39,29.2,39,29.5V31h-3v-1.5c0-0.3-0.2-0.5-0.5-0.5S35,29.2,35,29.5V31h-3v-1.5c0-0.3-0.2-0.5-0.5-0.5
				S31,29.2,31,29.5V31h-3v-1.5c0-0.3-0.2-0.5-0.5-0.5S27,29.2,27,29.5V31h-3v-1.5c0-0.3-0.2-0.5-0.5-0.5S23,29.2,23,29.5V31h-2v-3
				h21V31z"/>
		</g>
		<g>
			<rect x="18" y="23" class="st0" width="21" height="3"/>
			<g>
				<rect x="18" y="23" class="st15" width="21" height="1"/>
			</g>
			<g>
				<path class="st32" d="M22,23v3h5c0-1-0.1-2-0.4-3H22z"/>
			</g>
			<g>
				<path class="st0" d="M26.8,24c-0.1-0.3-0.1-0.7-0.2-1H22v1H26.8z"/>
			</g>
			<path class="st1" d="M40,21H17c-0.6,0-1,0.4-1,1v5c0,0.6,0.4,1,1,1h23c0.6,0,1-0.4,1-1v-5C41,21.4,40.6,21,40,21z M39,26h-2v-1.5
				c0-0.3-0.2-0.5-0.5-0.5S36,24.2,36,24.5V26h-3v-1.5c0-0.3-0.2-0.5-0.5-0.5S32,24.2,32,24.5V26h-3v-1.5c0-0.3-0.2-0.5-0.5-0.5
				S28,24.2,28,24.5V26h-3v-1.5c0-0.3-0.2-0.5-0.5-0.5S24,24.2,24,24.5V26h-3v-1.5c0-0.3-0.2-0.5-0.5-0.5S20,24.2,20,24.5V26h-2v-3
				h21V26z"/>
		</g>
		<g>
			<rect x="20" y="18" class="st0" width="21" height="3"/>
			<path class="st1" d="M42,16H19c-0.6,0-1,0.4-1,1v5c0,0.6,0.4,1,1,1h23c0.6,0,1-0.4,1-1v-5C43,16.4,42.6,16,42,16z M41,21h-2v-1.5
				c0-0.3-0.2-0.5-0.5-0.5S38,19.2,38,19.5V21h-3v-1.5c0-0.3-0.2-0.5-0.5-0.5S34,19.2,34,19.5V21h-3v-1.5c0-0.3-0.2-0.5-0.5-0.5
				S30,19.2,30,19.5V21h-3v-1.5c0-0.3-0.2-0.5-0.5-0.5S26,19.2,26,19.5V21h-3v-1.5c0-0.3-0.2-0.5-0.5-0.5S22,19.2,22,19.5V21h-2v-3
				h21V21z"/>
			<g>
				<rect x="20" y="18" class="st15" width="21" height="1"/>
			</g>
			<g>
				<path class="st32" d="M24.2,18H20v3h6C25.5,19.9,24.9,18.9,24.2,18z"/>
			</g>
			<g>
				<path class="st0" d="M24.2,18H20v1h4.9C24.7,18.7,24.5,18.3,24.2,18z"/>
			</g>
		</g>
		<g>
			<rect x="19" y="8" class="st0" width="21" height="3"/>
			<path class="st1" d="M41,6H18c-0.6,0-1,0.4-1,1v5c0,0.6,0.4,1,1,1h23c0.6,0,1-0.4,1-1V7C42,6.4,41.6,6,41,6z M40,11h-2V9.5
				C38,9.2,37.8,9,37.5,9S37,9.2,37,9.5V11h-3V9.5C34,9.2,33.8,9,33.5,9S33,9.2,33,9.5V11h-3V9.5C30,9.2,29.8,9,29.5,9
				S29,9.2,29,9.5V11h-3V9.5C26,9.2,25.8,9,25.5,9S25,9.2,25,9.5V11h-3V9.5C22,9.2,21.8,9,21.5,9S21,9.2,21,9.5V11h-2V8h21V11z"/>
			<g>
				<rect x="19" y="8" class="st15" width="21" height="1"/>
			</g>
		</g>
		<g>
			<rect x="16" y="13" class="st0" width="21" height="3"/>
			<path class="st1" d="M38,11H15c-0.6,0-1,0.4-1,1v5c0,0.6,0.4,1,1,1h23c0.6,0,1-0.4,1-1v-5C39,11.4,38.6,11,38,11z M37,16h-2v-1.5
				c0-0.3-0.2-0.5-0.5-0.5S34,14.2,34,14.5V16h-3v-1.5c0-0.3-0.2-0.5-0.5-0.5S30,14.2,30,14.5V16h-3v-1.5c0-0.3-0.2-0.5-0.5-0.5
				S26,14.2,26,14.5V16h-3v-1.5c0-0.3-0.2-0.5-0.5-0.5S22,14.2,22,14.5V16h-3v-1.5c0-0.3-0.2-0.5-0.5-0.5S18,14.2,18,14.5V16h-2v-3
				h21V16z"/>
			<g>
				<rect x="16" y="13" class="st15" width="21" height="1"/>
			</g>
		</g>
		<g>
			<g>
				<g>
					<g>
						<circle class="st0" cx="13" cy="25" r="11"/>
						<path class="st1" d="M13,38C5.8,38,0,32.2,0,25s5.8-13,13-13s13,5.8,13,13S20.2,38,13,38z M13,14C6.9,14,2,18.9,2,25
							s4.9,11,11,11s11-4.9,11-11S19.1,14,13,14z"/>
					</g>
				</g>
			</g>
			<g>
				<path class="st15" d="M6.6,33.9l15.3-15.3c-1.1-1.5-2.6-2.7-4.3-3.5L3,29.7C3.8,31.4,5.1,32.8,6.6,33.9z"/>
			</g>
			<g>
				<path class="st15" d="M13,36c6.1,0,11-4.9,11-11c0-1.5-0.3-2.9-0.8-4.2L8.8,35.2C10.1,35.7,11.5,36,13,36z"/>
			</g>
			<g>
				<g>
					<circle class="st15" cx="13" cy="25" r="8"/>
				</g>
				<g>
					<path class="st1" d="M13,17c4.4,0,8,3.6,8,8s-3.6,8-8,8s-8-3.6-8-8S8.6,17,13,17 M13,16c-5,0-9,4-9,9s4,9,9,9s9-4,9-9
						S18,16,13,16L13,16z"/>
				</g>
			</g>
			<g>
				<path class="st31" d="M6,26c0-4.4,3.6-8,8-8c2,0,3.7,0.7,5.1,1.9C17.7,18.1,15.5,17,13,17c-4.4,0-8,3.6-8,8
					c0,2.5,1.1,4.7,2.9,6.1C6.7,29.7,6,28,6,26z"/>
			</g>
			<g>
				<path class="st26" d="M15.3,17.4l-10,10c0.6,1.8,1.8,3.4,3.4,4.4l11-11C18.7,19.1,17.2,17.9,15.3,17.4z"/>
			</g>
			<g>
				<g>
					<path class="st15" d="M14.7,18c1.7,0.1,3.2,0.8,4.5,1.8c-1-1.2-2.3-2-3.8-2.5L14.7,18z"/>
				</g>
				<g>
					<path class="st15" d="M7.9,31.1c-1-1.2-1.7-2.8-1.8-4.5l-0.7,0.7C5.8,28.8,6.7,30.2,7.9,31.1z"/>
				</g>
			</g>
			<g>
				<path class="st26" d="M13,33c4.4,0,8-3.6,8-8c0-0.6-0.1-1.3-0.2-1.9l-9.6,9.6C11.7,32.9,12.4,33,13,33z"/>
			</g>
			<path class="st1" d="M16.6,24.5C16.8,24,17,23.5,17,23c0-1.7-1.3-3-3-3c0-0.6-0.4-1-1-1s-1,0.4-1,1h-2c-0.6,0-1,0.4-1,1
				s0.4,1,1,1v6c-0.6,0-1,0.4-1,1s0.4,1,1,1h2c0,0.6,0.4,1,1,1s1-0.4,1-1h1c1.7,0,3-1.3,3-3C18,25.9,17.4,25,16.6,24.5z M14,22
				c0.6,0,1,0.4,1,1s-0.4,1-1,1h-2v-2H14z M15,28h-3v-2h3c0.6,0,1,0.4,1,1S15.6,28,15,28z"/>
		</g>
	</g>
</g>
<g id="trade">
</g>
<g id="blockchain">
</g>
<g id="exchange">
</g>
<g id="graph">
</g>
<g id="video_x5F_card">
</g>
<g id="bitcoin">
</g>
<g id="code">
</g>
<g id="contract">
</g>
<g id="network">
</g>
<g id="cloud">
</g>
<g id="pc">
</g>
<g id="anonymous">
</g>
</svg>
