<?xml version="1.0" encoding="utf-8"?>
<!-- Generator: Adobe Illustrator 21.1.0, SVG Export Plug-In . SVG Version: 6.00 Build 0)  -->
<svg version="1.1" xmlns="http://www.w3.org/2000/svg" xmlns:xlink="http://www.w3.org/1999/xlink" x="0px" y="0px"
	 viewBox="0 0 44 44" style="enable-background:new 0 0 44 44;" xml:space="preserve">
<style type="text/css">
	.st0{fill:#F5B445;}
	.st1{fill:#0B3A5B;}
	.st2{fill:#FFCA5D;}
	.st3{fill:#B0C4D8;}
	.st4{fill:#7B9FBE;}
	.st5{fill:#F7964B;}
	.st6{fill:#F47423;}
	.st7{fill:#FFE37C;}
	.st8{fill:#F8A247;}
	.st9{fill:#676A75;}
	.st10{fill:#0F395A;}
	.st11{fill:#585B67;}
	.st12{fill:#EAA239;}
	.st13{fill:#DA8C36;}
	.st14{fill:#C87629;}
	.st15{fill:#FFCB5B;}
	.st16{fill:#D3E2EB;}
	.st17{fill:#FFFFFF;}
	.st18{fill:#F5AE44;}
	.st19{fill:#D5E3EF;}
	.st20{fill:#0E395A;}
	.st21{fill:#C97629;}
	.st22{fill:#C0CED7;}
	.st23{fill:#8CA6BC;}
	.st24{fill:#4C9CD6;}
	.st25{fill:#3689C9;}
	.st26{fill:#FFE27A;}
	.st27{fill:#90CEF1;}
	.st28{fill:#ABE1FA;}
	.st29{fill:#70B7E5;}
	.st30{fill:#71747C;}
	.st31{fill:#F6B545;}
	.st32{fill:#E99C35;}
	.st33{fill:#3BB54A;}
	.st34{fill:#89C763;}
	.st35{fill:#AED477;}
	.st36{fill:#B0C4D9;}
	.st37{fill:#C9D5E3;}
	.st38{fill:#D3E2EB;stroke:#0B3A5B;stroke-width:2;stroke-linecap:round;stroke-linejoin:round;stroke-miterlimit:10;}
	.st39{fill:#99B5CD;}
	.st40{fill:#ECF0F9;}
	.st41{fill:#82A7C4;}
	.st42{fill:#F26A56;}
	.st43{fill:#FFD167;}
	.st44{fill:#2B5367;}
	.st45{fill:#FFCB5D;}
	.st46{fill:#F04D4E;}
	.st47{fill:#D5E3EE;}
	.st48{fill:#EDF1F9;}
	.st49{fill:#577280;}
	.st50{fill:#F16B56;}
	.st51{fill:#DCE4EE;}
	.st52{fill:#ECEFF9;}
	.st53{fill:#CEDAE6;}
	.st54{fill:#5F7B93;}
	.st55{fill:#EFC9AE;}
	.st56{fill:#E2B698;}
	.st57{fill:#4A6B84;}
	.st58{fill:#7592A5;}
</style>
<g id="trolley">
</g>
<g id="wallet">
</g>
<g id="shield">
</g>
<g id="pickaxe">
</g>
<g id="lock">
</g>
<g id="key">
</g>
<g id="mobile">
</g>
<g id="coins">
</g>
<g id="trade">
</g>
<g id="blockchain">
</g>
<g id="exchange">
</g>
<g id="graph">
</g>
<g id="video_x5F_card">
</g>
<g id="bitcoin">
</g>
<g id="code">
</g>
<g id="contract">
	<g>
		<g>
			<g>
				<path class="st1" d="M33.5,6C33.2,6,33,5.8,33,5.5v-3C33,2.2,33.2,2,33.5,2S34,2.2,34,2.5v3C34,5.8,33.8,6,33.5,6z"/>
			</g>
		</g>
		<g>
			<g>
				<path class="st1" d="M38.5,43c-0.3,0-0.5-0.2-0.5-0.5v-2c0-0.3,0.2-0.5,0.5-0.5s0.5,0.2,0.5,0.5v2C39,42.8,38.8,43,38.5,43z"/>
			</g>
		</g>
		<g>
			<g>
				<path class="st1" d="M38.5,6C38.2,6,38,5.8,38,5.5v-2C38,3.2,38.2,3,38.5,3S39,3.2,39,3.5v2C39,5.8,38.8,6,38.5,6z"/>
			</g>
		</g>
		<g>
			<g>
				<path class="st1" d="M42.5,36c-0.3,0-0.5-0.2-0.5-0.5v-5c0-0.3,0.2-0.5,0.5-0.5s0.5,0.2,0.5,0.5v5C43,35.8,42.8,36,42.5,36z"/>
			</g>
		</g>
		<g>
			<g>
				<path class="st1" d="M42.5,15c-0.3,0-0.5-0.2-0.5-0.5v-3c0-0.3,0.2-0.5,0.5-0.5s0.5,0.2,0.5,0.5v3C43,14.8,42.8,15,42.5,15z"/>
			</g>
		</g>
		<g>
			<g>
				<path class="st47" d="M6,6H3C1.9,6,1,6.9,1,8v32c0,1.1,0.9,2,2,2h3h3V13l6.8-7H6z"/>
				<path class="st1" d="M15.8,5H6H3C1.3,5,0,6.3,0,8v32c0,1.7,1.3,3,3,3h3h3c0.6,0,1-0.4,1-1s-0.4-1-1-1H6c-0.6,0-1-0.4-1-1V8
					c0-0.6,0.4-1,1-1h9.8c0.6,0,1-0.4,1-1S16.4,5,15.8,5z M3.2,41H3c-0.6,0-1-0.4-1-1V8c0-0.6,0.4-1,1-1h0.2C3.1,7.3,3,7.6,3,8v32
					C3,40.4,3.1,40.7,3.2,41z"/>
			</g>
			<path class="st48" d="M9,42h20c1.1,0,2-0.9,2-2V8c0-1.1-0.9-2-2-2H15.8c-0.5,0-1,0.2-1.4,0.6l-6.8,6.8C7.2,13.8,7,14.3,7,14.8V40
				C7,41.1,7.9,42,9,42z"/>
			<g>
				<path class="st3" d="M14.3,16L14.3,16c-0.2,0-0.3,0-0.5,0L8,15l7-1l1-6l0.9,4.7c0,0.2,0.1,0.4,0.1,0.5v0
					C17,14.8,15.8,16,14.3,16z"/>
			</g>
			<path class="st1" d="M29,5h-2V4c0-1.7-1.3-3-3-3s-3,1.3-3,3v1h-5.2c-0.8,0-1.6,0.3-2.1,0.9l-6.8,6.8C6.3,13.3,6,14,6,14.8V40
				c0,1.7,1.3,3,3,3h20c1.7,0,3-1.3,3-3V8C32,6.3,30.7,5,29,5z M23,4c0-0.6,0.4-1,1-1s1,0.4,1,1v1h-2V4z M14,8.4V12c0,0.6-0.4,1-1,1
				H9.4L14,8.4z M30,40c0,0.6-0.4,1-1,1H9c-0.6,0-1-0.4-1-1V16c0-0.6,0.4-1,1-1h4c1.7,0,3-1.3,3-3V8c0-0.6,0.4-1,1-1h8v6
				c0,0.6-0.4,1-1,1s-1-0.4-1-1v-3c0-0.6-0.4-1-1-1s-1,0.4-1,1v3c0,1.7,1.3,3,3,3s3-1.3,3-3V7h2c0.6,0,1,0.4,1,1V40z"/>
			<g>
				<g>
					<path class="st49" d="M11,20.5c0-0.3,0.2-0.5,0.5-0.5h6c0.3,0,0.5,0.2,0.5,0.5S17.8,21,17.5,21h-6C11.2,21,11,20.8,11,20.5z"/>
				</g>
			</g>
			<g>
				<g>
					<path class="st49" d="M17,26.5c0-0.3,0.2-0.5,0.5-0.5h6c0.3,0,0.5,0.2,0.5,0.5S23.8,27,23.5,27h-6C17.2,27,17,26.8,17,26.5z"/>
				</g>
			</g>
			<g>
				<g>
					<path class="st49" d="M20,22.5c0-0.3,0.2-0.5,0.5-0.5h6c0.3,0,0.5,0.2,0.5,0.5S26.8,23,26.5,23h-6C20.2,23,20,22.8,20,22.5z"/>
				</g>
			</g>
			<g>
				<g>
					<path class="st49" d="M11,32.5c0-0.3,0.2-0.5,0.5-0.5h6c0.3,0,0.5,0.2,0.5,0.5S17.8,33,17.5,33h-6C11.2,33,11,32.8,11,32.5z"/>
				</g>
			</g>
			<g>
				<g>
					<path class="st49" d="M11,26.5c0-0.3,0.2-0.5,0.5-0.5h4c0.3,0,0.5,0.2,0.5,0.5S15.8,27,15.5,27h-4C11.2,27,11,26.8,11,26.5z"/>
				</g>
			</g>
			<g>
				<g>
					<path class="st49" d="M11,30.5c0-0.3,0.2-0.5,0.5-0.5h4c0.3,0,0.5,0.2,0.5,0.5S15.8,31,15.5,31h-4C11.2,31,11,30.8,11,30.5z"/>
				</g>
			</g>
			<g>
				<g>
					<path class="st49" d="M19,32.5c0-0.3,0.2-0.5,0.5-0.5h4c0.3,0,0.5,0.2,0.5,0.5S23.8,33,23.5,33h-4C19.2,33,19,32.8,19,32.5z"/>
				</g>
			</g>
			<g>
				<g>
					<path class="st49" d="M11,22.5c0-0.3,0.2-0.5,0.5-0.5h7c0.3,0,0.5,0.2,0.5,0.5S18.8,23,18.5,23h-7C11.2,23,11,22.8,11,22.5z"/>
				</g>
			</g>
			<g>
				<g>
					<path class="st49" d="M15,24.5c0-0.3,0.2-0.5,0.5-0.5h7c0.3,0,0.5,0.2,0.5,0.5S22.8,25,22.5,25h-7C15.2,25,15,24.8,15,24.5z"/>
				</g>
			</g>
			<g>
				<g>
					<path class="st49" d="M11,28.5c0-0.3,0.2-0.5,0.5-0.5h7c0.3,0,0.5,0.2,0.5,0.5S18.8,29,18.5,29h-7C11.2,29,11,28.8,11,28.5z"/>
				</g>
			</g>
			<g>
				<g>
					<path class="st49" d="M19,20.5c0-0.3,0.2-0.5,0.5-0.5h3c0.3,0,0.5,0.2,0.5,0.5S22.8,21,22.5,21h-3C19.2,21,19,20.8,19,20.5z"/>
				</g>
			</g>
			<g>
				<g>
					<path class="st49" d="M16,17.5c0-0.3,0.2-0.5,0.5-0.5h5c0.3,0,0.5,0.2,0.5,0.5S21.8,18,21.5,18h-5C16.2,18,16,17.8,16,17.5z"/>
				</g>
			</g>
			<g>
				<g>
					<path class="st49" d="M11,24.5c0-0.3,0.2-0.5,0.5-0.5h2c0.3,0,0.5,0.2,0.5,0.5S13.8,25,13.5,25h-2C11.2,25,11,24.8,11,24.5z"/>
				</g>
			</g>
			<g>
				<g>
					<path class="st49" d="M20,30.5c0-0.3,0.2-0.5,0.5-0.5h2c0.3,0,0.5,0.2,0.5,0.5S22.8,31,22.5,31h-2C20.2,31,20,30.8,20,30.5z"/>
				</g>
			</g>
			<g>
				<g>
					<path class="st49" d="M24,28.5c0-0.3,0.2-0.5,0.5-0.5h1c0.3,0,0.5,0.2,0.5,0.5S25.8,29,25.5,29h-1C24.2,29,24,28.8,24,28.5z"/>
				</g>
			</g>
			<g>
				<g>
					<path class="st49" d="M15,37.5c0-0.3,0.2-0.5,0.5-0.5h1c0.3,0,0.5,0.2,0.5,0.5S16.8,38,16.5,38h-1C15.2,38,15,37.8,15,37.5z"/>
				</g>
			</g>
			<g>
				<g>
					<path class="st49" d="M17,30.5c0-0.3,0.2-0.5,0.5-0.5h1c0.3,0,0.5,0.2,0.5,0.5S18.8,31,18.5,31h-1C17.2,31,17,30.8,17,30.5z"/>
				</g>
			</g>
			<g>
				<g>
					<path class="st49" d="M24,24.5c0-0.3,0.2-0.5,0.5-0.5h2c0.3,0,0.5,0.2,0.5,0.5S26.8,25,26.5,25h-2C24.2,25,24,24.8,24,24.5z"/>
				</g>
			</g>
			<g>
				<g>
					<path class="st49" d="M11,37.5c0-0.3,0.2-0.5,0.5-0.5h2c0.3,0,0.5,0.2,0.5,0.5S13.8,38,13.5,38h-2C11.2,38,11,37.8,11,37.5z"/>
				</g>
			</g>
			<g>
				<g>
					<path class="st49" d="M20,28.5c0-0.3,0.2-0.5,0.5-0.5h2c0.3,0,0.5,0.2,0.5,0.5S22.8,29,22.5,29h-2C20.2,29,20,28.8,20,28.5z"/>
				</g>
			</g>
			<g>
				<path class="st50" d="M24,39c-2.2,0-4-1.8-4-4s1.8-4,4-4s4,1.8,4,4S26.2,39,24,39z M24,33c-1.1,0-2,0.9-2,2s0.9,2,2,2s2-0.9,2-2
					S25.1,33,24,33z"/>
			</g>
			<g>
				<circle class="st50" cx="24" cy="35" r="1"/>
			</g>
		</g>
		<g>
			<circle class="st15" cx="35" cy="23" r="8"/>
			<path class="st1" d="M44,23c0-3.1-1.6-5.9-4-7.5v-4.2c0-0.4,0.2-0.8,0.4-1.1l1.8-1.8C42.7,8,43,7.3,43,6.7V4.9
				c0.6-0.2,1-0.8,1-1.4C44,2.7,43.3,2,42.5,2S41,2.7,41,3.5c0,0.7,0.4,1.2,1,1.4v1.8c0,0.4-0.2,0.8-0.4,1.1l-1.8,1.8
				C39.3,10,39,10.7,39,11.3v3.6c-0.6-0.3-1.3-0.6-2-0.7V9.9c0.6-0.2,1-0.8,1-1.4C38,7.7,37.3,7,36.5,7S35,7.7,35,8.5
				c0,0.7,0.4,1.2,1,1.4v4.2c-0.3,0-0.7-0.1-1-0.1c-5,0-9,4-9,9s4,9,9,9v6.1c-0.6,0.2-1,0.8-1,1.4c0,0.8,0.7,1.5,1.5,1.5
				s1.5-0.7,1.5-1.5c0-0.7-0.4-1.2-1-1.4v-6.2c0.7-0.1,1.4-0.2,2-0.5v2.2c0,0.7,0.3,1.3,0.7,1.8l1.8,1.8c0.3,0.3,0.4,0.7,0.4,1.1
				v1.8c-0.6,0.2-1,0.8-1,1.4c0,0.8,0.7,1.5,1.5,1.5s1.5-0.7,1.5-1.5c0-0.7-0.4-1.2-1-1.4v-1.8c0-0.7-0.3-1.3-0.7-1.8l-1.8-1.8
				c-0.3-0.3-0.4-0.7-0.4-1.1v-2.6C42,29.6,44,26.5,44,23z M42.5,3C42.8,3,43,3.2,43,3.5S42.8,4,42.5,4S42,3.8,42,3.5S42.2,3,42.5,3
				z M36.5,8C36.8,8,37,8.2,37,8.5S36.8,9,36.5,9S36,8.8,36,8.5S36.2,8,36.5,8z M35.5,40c-0.3,0-0.5-0.2-0.5-0.5s0.2-0.5,0.5-0.5
				s0.5,0.2,0.5,0.5S35.8,40,35.5,40z M41.5,42c-0.3,0-0.5-0.2-0.5-0.5s0.2-0.5,0.5-0.5s0.5,0.2,0.5,0.5S41.8,42,41.5,42z M28,23
				c0-3.9,3.1-7,7-7s7,3.1,7,7s-3.1,7-7,7S28,26.9,28,23z"/>
		</g>
		<path class="st1" d="M38,22v-2c0-1.7-1.3-3-3-3s-3,1.3-3,3v2c-0.6,0-1,0.4-1,1v4c0,0.6,0.4,1,1,1h6c0.6,0,1-0.4,1-1v-4
			C39,22.4,38.6,22,38,22z M35,26c-0.6,0-1-0.4-1-1c0-0.6,0.4-1,1-1c0.6,0,1,0.4,1,1C36,25.6,35.6,26,35,26z M36,22h-2v-2
			c0-0.6,0.4-1,1-1s1,0.4,1,1V22z"/>
	</g>
</g>
<g id="network">
</g>
<g id="cloud">
</g>
<g id="pc">
</g>
<g id="anonymous">
</g>
</svg>
