<?xml version="1.0" encoding="utf-8"?>
<!-- Generator: Adobe Illustrator 21.1.0, SVG Export Plug-In . SVG Version: 6.00 Build 0)  -->
<svg version="1.1" xmlns="http://www.w3.org/2000/svg" xmlns:xlink="http://www.w3.org/1999/xlink" x="0px" y="0px"
	 viewBox="0 0 44 44" style="enable-background:new 0 0 44 44;" xml:space="preserve">
<style type="text/css">
	.st0{fill:#F5B445;}
	.st1{fill:#0B3A5B;}
	.st2{fill:#FFCA5D;}
	.st3{fill:#B0C4D8;}
	.st4{fill:#7B9FBE;}
	.st5{fill:#F7964B;}
	.st6{fill:#F47423;}
	.st7{fill:#FFE37C;}
	.st8{fill:#F8A247;}
	.st9{fill:#676A75;}
	.st10{fill:#0F395A;}
	.st11{fill:#585B67;}
	.st12{fill:#EAA239;}
	.st13{fill:#DA8C36;}
	.st14{fill:#C87629;}
	.st15{fill:#FFCB5B;}
	.st16{fill:#D3E2EB;}
	.st17{fill:#FFFFFF;}
	.st18{fill:#F5AE44;}
	.st19{fill:#D5E3EF;}
	.st20{fill:#0E395A;}
	.st21{fill:#C97629;}
	.st22{fill:#C0CED7;}
	.st23{fill:#8CA6BC;}
	.st24{fill:#4C9CD6;}
	.st25{fill:#3689C9;}
	.st26{fill:#FFE27A;}
	.st27{fill:#90CEF1;}
	.st28{fill:#ABE1FA;}
	.st29{fill:#70B7E5;}
	.st30{fill:#71747C;}
	.st31{fill:#F6B545;}
	.st32{fill:#E99C35;}
	.st33{fill:#3BB54A;}
	.st34{fill:#89C763;}
	.st35{fill:#AED477;}
	.st36{fill:#B0C4D9;}
	.st37{fill:#C9D5E3;}
	.st38{fill:#D3E2EB;stroke:#0B3A5B;stroke-width:2;stroke-linecap:round;stroke-linejoin:round;stroke-miterlimit:10;}
	.st39{fill:#99B5CD;}
	.st40{fill:#ECF0F9;}
	.st41{fill:#82A7C4;}
	.st42{fill:#F26A56;}
	.st43{fill:#FFD167;}
	.st44{fill:#2B5367;}
	.st45{fill:#FFCB5D;}
	.st46{fill:#F04D4E;}
	.st47{fill:#D5E3EE;}
	.st48{fill:#EDF1F9;}
	.st49{fill:#577280;}
	.st50{fill:#F16B56;}
	.st51{fill:#DCE4EE;}
	.st52{fill:#ECEFF9;}
	.st53{fill:#CEDAE6;}
	.st54{fill:#5F7B93;}
	.st55{fill:#EFC9AE;}
	.st56{fill:#E2B698;}
	.st57{fill:#4A6B84;}
	.st58{fill:#7592A5;}
</style>
<g id="trolley">
</g>
<g id="wallet">
</g>
<g id="shield">
</g>
<g id="pickaxe">
</g>
<g id="lock">
</g>
<g id="key">
</g>
<g id="mobile">
</g>
<g id="coins">
</g>
<g id="trade">
</g>
<g id="blockchain">
</g>
<g id="exchange">
	<g>
		<g>
			<g>
				<path class="st1" d="M37.5,41c-0.3,0-0.5-0.2-0.5-0.5v-3c0-0.3,0.2-0.5,0.5-0.5s0.5,0.2,0.5,0.5v3C38,40.8,37.8,41,37.5,41z"/>
			</g>
		</g>
		<g>
			<g>
				<path class="st1" d="M42.5,27c-0.3,0-0.5-0.2-0.5-0.5v-3c0-0.3,0.2-0.5,0.5-0.5s0.5,0.2,0.5,0.5v3C43,26.8,42.8,27,42.5,27z"/>
			</g>
		</g>
		<g>
			<g>
				<path class="st1" d="M24,40.5c0-0.3,0.2-0.5,0.5-0.5h3c0.3,0,0.5,0.2,0.5,0.5S27.8,41,27.5,41h-3C24.2,41,24,40.8,24,40.5z"/>
			</g>
		</g>
		<g>
			<g>
				<path class="st1" d="M27,38.5c0-0.3,0.2-0.5,0.5-0.5h3c0.3,0,0.5,0.2,0.5,0.5S30.8,39,30.5,39h-3C27.2,39,27,38.8,27,38.5z"/>
			</g>
		</g>
		<g>
			<g>
				<path class="st1" d="M15,3.5C15,3.2,15.2,3,15.5,3h3C18.8,3,19,3.2,19,3.5S18.8,4,18.5,4h-3C15.2,4,15,3.8,15,3.5z"/>
			</g>
		</g>
		<g>
			<g>
				<path class="st1" d="M2.5,6C2.2,6,2,5.8,2,5.5v-3C2,2.2,2.2,2,2.5,2S3,2.2,3,2.5v3C3,5.8,2.8,6,2.5,6z"/>
			</g>
		</g>
		<g>
			<g>
				<path class="st1" d="M40.5,43c-0.3,0-0.5-0.2-0.5-0.5v-6c0-0.3,0.2-0.5,0.5-0.5s0.5,0.2,0.5,0.5v6C41,42.8,40.8,43,40.5,43z"/>
			</g>
		</g>
		<g>
			<g>
				<path class="st1" d="M4.5,16C4.2,16,4,15.8,4,15.5v-6C4,9.2,4.2,9,4.5,9S5,9.2,5,9.5v6C5,15.8,4.8,16,4.5,16z"/>
			</g>
		</g>
		<g>
			<g>
				<path class="st1" d="M15.5,7h-2C13.2,7,13,6.8,13,6.5S13.2,6,13.5,6h2C15.8,6,16,6.2,16,6.5S15.8,7,15.5,7z"/>
			</g>
		</g>
		<g>
			<g>
				<path class="st1" d="M1.5,20C1.2,20,1,19.8,1,19.5v-5C1,14.2,1.2,14,1.5,14S2,14.2,2,14.5v5C2,19.8,1.8,20,1.5,20z"/>
			</g>
		</g>
		<g>
			<g>
				<path class="st1" d="M40.5,27c0.3,0,0.5,0.2,0.5,0.5v5c0,0.3-0.2,0.5-0.5,0.5S40,32.8,40,32.5v-5C40,27.2,40.2,27,40.5,27z"/>
			</g>
		</g>
		<g>
			<g>
				<path class="st1" d="M6.5,0C6.8,0,7,0.2,7,0.5v5C7,5.8,6.8,6,6.5,6S6,5.8,6,5.5v-5C6,0.2,6.2,0,6.5,0z"/>
			</g>
		</g>
		<g>
			<g>
				<g>
					<circle class="st36" cx="12" cy="32" r="11"/>
					<path class="st1" d="M12,44C5.4,44,0,38.6,0,32s5.4-12,12-12s12,5.4,12,12S18.6,44,12,44z M12,22C6.5,22,2,26.5,2,32
						s4.5,10,10,10s10-4.5,10-10S17.5,22,12,22z"/>
				</g>
			</g>
		</g>
		<g>
			<g>
				<circle class="st19" cx="12" cy="32" r="8"/>
			</g>
			<g>
				<path class="st1" d="M12,24c4.4,0,8,3.6,8,8s-3.6,8-8,8s-8-3.6-8-8S7.6,24,12,24 M12,23c-5,0-9,4-9,9s4,9,9,9s9-4,9-9
					S17,23,12,23L12,23z"/>
			</g>
		</g>
		<g>
			<path class="st40" d="M14.3,24.4l-10,10c0.6,1.8,1.8,3.4,3.4,4.4l11-11C17.7,26.1,16.2,24.9,14.3,24.4z"/>
		</g>
		<g>
			<path class="st40" d="M12,40c4.4,0,8-3.6,8-8c0-0.6-0.1-1.3-0.2-1.9l-9.6,9.6C10.7,39.9,11.4,40,12,40z"/>
		</g>
		<path class="st1" d="M15.6,31.5C15.8,31,16,30.5,16,30c0-1.7-1.3-3-3-3c0-0.6-0.4-1-1-1s-1,0.4-1,1H9c-0.6,0-1,0.4-1,1s0.4,1,1,1
			v6c-0.6,0-1,0.4-1,1s0.4,1,1,1h2c0,0.6,0.4,1,1,1s1-0.4,1-1h1c1.7,0,3-1.3,3-3C17,32.9,16.4,32,15.6,31.5z M13,29c0.6,0,1,0.4,1,1
			s-0.4,1-1,1h-2v-2H13z M14,35h-3v-2h3c0.6,0,1,0.4,1,1S14.6,35,14,35z"/>
		<g>
			<g>
				<g>
					<circle class="st33" cx="32" cy="12" r="11"/>
					<path class="st1" d="M32,24c-6.6,0-12-5.4-12-12S25.4,0,32,0s12,5.4,12,12S38.6,24,32,24z M32,2c-5.5,0-10,4.5-10,10
						s4.5,10,10,10s10-4.5,10-10S37.5,2,32,2z"/>
				</g>
			</g>
		</g>
		<g>
			<g>
				<circle class="st34" cx="32" cy="12" r="8"/>
			</g>
			<g>
				<path class="st1" d="M32,4c4.4,0,8,3.6,8,8s-3.6,8-8,8s-8-3.6-8-8S27.6,4,32,4 M32,3c-5,0-9,4-9,9s4,9,9,9s9-4,9-9S37,3,32,3
					L32,3z"/>
			</g>
		</g>
		<g>
			<path class="st35" d="M34.3,4.4l-10,10c0.6,1.8,1.8,3.4,3.4,4.4l11-11C37.7,6.1,36.2,4.9,34.3,4.4z"/>
		</g>
		<g>
			<path class="st35" d="M32,20c4.4,0,8-3.6,8-8c0-0.6-0.1-1.3-0.2-1.9l-9.6,9.6C30.7,19.9,31.4,20,32,20z"/>
		</g>
		<path class="st1" d="M33,11h-2c-0.6,0-1-0.4-1-1s0.4-1,1-1h3c0.6,0,1-0.4,1-1s-0.4-1-1-1h-1c0-0.6-0.4-1-1-1s-1,0.4-1,1
			c-1.7,0-3,1.3-3,3s1.3,3,3,3h2c0.6,0,1,0.4,1,1s-0.4,1-1,1h-3c-0.6,0-1,0.4-1,1s0.4,1,1,1h1c0,0.6,0.4,1,1,1s1-0.4,1-1
			c1.7,0,3-1.3,3-3S34.7,11,33,11z"/>
		<path class="st1" d="M36.9,30.6l-2-4c-0.3-0.7-1.5-0.7-1.8,0l-2,4c-0.2,0.3-0.1,0.7,0,1S31.7,32,32,32h1v9c0,0.6-0.4,1-1,1h-8
			c-0.6,0-1,0.4-1,1s0.4,1,1,1h8c1.7,0,3-1.3,3-3v-9h1c0.3,0,0.7-0.2,0.9-0.5S37,30.9,36.9,30.6z"/>
		<path class="st1" d="M20,0h-8c-1.7,0-3,1.3-3,3v9H8c-0.3,0-0.7,0.2-0.9,0.5s-0.2,0.7,0,1l2,4C9.3,17.8,9.6,18,10,18
			s0.7-0.2,0.9-0.6l2-4c0.2-0.3,0.1-0.7,0-1S12.3,12,12,12h-1V3c0-0.6,0.4-1,1-1h8c0.6,0,1-0.4,1-1C21,0.4,20.6,0,20,0z"/>
	</g>
</g>
<g id="graph">
</g>
<g id="video_x5F_card">
</g>
<g id="bitcoin">
</g>
<g id="code">
</g>
<g id="contract">
</g>
<g id="network">
</g>
<g id="cloud">
</g>
<g id="pc">
</g>
<g id="anonymous">
</g>
</svg>
