<?xml version="1.0" encoding="utf-8"?>
<!-- Generator: Adobe Illustrator 21.1.0, SVG Export Plug-In . SVG Version: 6.00 Build 0)  -->
<svg version="1.1" xmlns="http://www.w3.org/2000/svg" xmlns:xlink="http://www.w3.org/1999/xlink" x="0px" y="0px"
	 viewBox="0 0 44 44" style="enable-background:new 0 0 44 44;" xml:space="preserve">
<style type="text/css">
	.st0{fill:#F5B445;}
	.st1{fill:#0B3A5B;}
	.st2{fill:#FFCA5D;}
	.st3{fill:#B0C4D8;}
	.st4{fill:#7B9FBE;}
	.st5{fill:#F7964B;}
	.st6{fill:#F47423;}
	.st7{fill:#FFE37C;}
	.st8{fill:#F8A247;}
	.st9{fill:#676A75;}
	.st10{fill:#0F395A;}
	.st11{fill:#585B67;}
	.st12{fill:#EAA239;}
	.st13{fill:#DA8C36;}
	.st14{fill:#C87629;}
	.st15{fill:#FFCB5B;}
	.st16{fill:#D3E2EB;}
	.st17{fill:#FFFFFF;}
	.st18{fill:#F5AE44;}
	.st19{fill:#D5E3EF;}
	.st20{fill:#0E395A;}
	.st21{fill:#C97629;}
	.st22{fill:#C0CED7;}
	.st23{fill:#8CA6BC;}
	.st24{fill:#4C9CD6;}
	.st25{fill:#3689C9;}
	.st26{fill:#FFE27A;}
	.st27{fill:#90CEF1;}
	.st28{fill:#ABE1FA;}
	.st29{fill:#70B7E5;}
	.st30{fill:#71747C;}
	.st31{fill:#F6B545;}
	.st32{fill:#E99C35;}
	.st33{fill:#3BB54A;}
	.st34{fill:#89C763;}
	.st35{fill:#AED477;}
	.st36{fill:#B0C4D9;}
	.st37{fill:#C9D5E3;}
	.st38{fill:#D3E2EB;stroke:#0B3A5B;stroke-width:2;stroke-linecap:round;stroke-linejoin:round;stroke-miterlimit:10;}
	.st39{fill:#99B5CD;}
	.st40{fill:#ECF0F9;}
	.st41{fill:#82A7C4;}
	.st42{fill:#F26A56;}
	.st43{fill:#FFD167;}
	.st44{fill:#2B5367;}
	.st45{fill:#FFCB5D;}
	.st46{fill:#F04D4E;}
	.st47{fill:#D5E3EE;}
	.st48{fill:#EDF1F9;}
	.st49{fill:#577280;}
	.st50{fill:#F16B56;}
	.st51{fill:#DCE4EE;}
	.st52{fill:#ECEFF9;}
	.st53{fill:#CEDAE6;}
	.st54{fill:#5F7B93;}
	.st55{fill:#EFC9AE;}
	.st56{fill:#E2B698;}
	.st57{fill:#4A6B84;}
	.st58{fill:#7592A5;}
</style>
<g id="trolley">
</g>
<g id="wallet">
</g>
<g id="shield">
</g>
<g id="pickaxe">
</g>
<g id="lock">
</g>
<g id="key">
</g>
<g id="mobile">
</g>
<g id="coins">
</g>
<g id="trade">
</g>
<g id="blockchain">
</g>
<g id="exchange">
</g>
<g id="graph">
	<g>
		<g>
			<polygon class="st41" points="6.7,28.7 5.3,27.3 12.9,19.7 19.9,24.7 27.3,17.3 34.1,11.6 41.8,20.3 40.2,21.7 33.9,14.4 
				28.6,18.8 20.1,27.3 13.1,22.3 			"/>
		</g>
		<path class="st1" d="M43.6,38.2l-3-2c-0.5-0.3-1.1-0.2-1.4,0.3s-0.2,1.1,0.3,1.4l0.3,0.2H2V8.3l0.2,0.3C2.5,9,3.1,9.1,3.6,8.8
			C4,8.5,4.1,7.9,3.8,7.4l-2-3C1.6,4.1,1.1,3.9,0.7,4C0.3,4.2,0,4.6,0,5v34c0,0.6,0.4,1,1,1h42c0.4,0,0.8-0.3,1-0.7
			C44.1,38.9,43.9,38.4,43.6,38.2z"/>
		<g>
			<g>
				<path class="st42" d="M5,32.5c-0.3,0-0.5-0.2-0.5-0.5v-8c0-0.3,0.2-0.5,0.5-0.5h3c0.3,0,0.5,0.2,0.5,0.5v8
					c0,0.3-0.2,0.5-0.5,0.5H5z"/>
			</g>
			<path class="st1" d="M8,23H7v-2.5C7,20.2,6.8,20,6.5,20S6,20.2,6,20.5V23H5c-0.6,0-1,0.4-1,1v8c0,0.6,0.4,1,1,1h1v2.5
				C6,35.8,6.2,36,6.5,36S7,35.8,7,35.5V33h1c0.6,0,1-0.4,1-1v-8C9,23.4,8.6,23,8,23z M8,32H5v-8h3V32z"/>
		</g>
		<g>
			<g>
				<path class="st33" d="M19,32.5c-0.3,0-0.5-0.2-0.5-0.5V20c0-0.3,0.2-0.5,0.5-0.5h3c0.3,0,0.5,0.2,0.5,0.5v12
					c0,0.3-0.2,0.5-0.5,0.5H19z"/>
			</g>
			<path class="st1" d="M22,19h-1v-2.5c0-0.3-0.2-0.5-0.5-0.5S20,16.2,20,16.5V19h-1c-0.6,0-1,0.4-1,1v12c0,0.6,0.4,1,1,1h1v2.5
				c0,0.3,0.2,0.5,0.5,0.5s0.5-0.2,0.5-0.5V33h1c0.6,0,1-0.4,1-1V20C23,19.4,22.6,19,22,19z M22,32h-3V20h3V32z"/>
		</g>
		<g>
			<g>
				<path class="st33" d="M12,24.5c-0.3,0-0.5-0.2-0.5-0.5v-6c0-0.3,0.2-0.5,0.5-0.5h3c0.3,0,0.5,0.2,0.5,0.5v6
					c0,0.3-0.2,0.5-0.5,0.5H12z"/>
			</g>
			<path class="st1" d="M15,17h-1v-6.5c0-0.3-0.2-0.5-0.5-0.5S13,10.2,13,10.5V17h-1c-0.6,0-1,0.4-1,1v6c0,0.6,0.4,1,1,1h1v6.5
				c0,0.3,0.2,0.5,0.5,0.5s0.5-0.2,0.5-0.5V25h1c0.6,0,1-0.4,1-1v-6C16,17.4,15.6,17,15,17z M15,24h-3v-6h3V24z"/>
		</g>
		<g>
			<g>
				<path class="st33" d="M40,24.5c-0.3,0-0.5-0.2-0.5-0.5v-6c0-0.3,0.2-0.5,0.5-0.5h3c0.3,0,0.5,0.2,0.5,0.5v6
					c0,0.3-0.2,0.5-0.5,0.5H40z"/>
			</g>
			<path class="st1" d="M43,17h-1v-4.5c0-0.3-0.2-0.5-0.5-0.5S41,12.2,41,12.5V17h-1c-0.6,0-1,0.4-1,1v6c0,0.6,0.4,1,1,1h1v4.5
				c0,0.3,0.2,0.5,0.5,0.5s0.5-0.2,0.5-0.5V25h1c0.6,0,1-0.4,1-1v-6C44,17.4,43.6,17,43,17z M43,24h-3v-6h3V24z"/>
		</g>
		<g>
			<g>
				<path class="st33" d="M33,18.5c-0.3,0-0.5-0.2-0.5-0.5V8c0-0.3,0.2-0.5,0.5-0.5h3c0.3,0,0.5,0.2,0.5,0.5v10
					c0,0.3-0.2,0.5-0.5,0.5H33z"/>
			</g>
			<path class="st1" d="M36,7h-1V4.5C35,4.2,34.8,4,34.5,4S34,4.2,34,4.5V7h-1c-0.6,0-1,0.4-1,1v10c0,0.6,0.4,1,1,1h1v4.5
				c0,0.3,0.2,0.5,0.5,0.5s0.5-0.2,0.5-0.5V19h1c0.6,0,1-0.4,1-1V8C37,7.4,36.6,7,36,7z M36,18h-3V8h3V18z"/>
		</g>
		<g>
			<g>
				<path class="st42" d="M26,21.5c-0.3,0-0.5-0.2-0.5-0.5v-7c0-0.3,0.2-0.5,0.5-0.5h3c0.3,0,0.5,0.2,0.5,0.5v7
					c0,0.3-0.2,0.5-0.5,0.5H26z"/>
			</g>
			<path class="st1" d="M29,13h-1v-2.5c0-0.3-0.2-0.5-0.5-0.5S27,10.2,27,10.5V13h-1c-0.6,0-1,0.4-1,1v7c0,0.6,0.4,1,1,1h1v2.5
				c0,0.3,0.2,0.5,0.5,0.5s0.5-0.2,0.5-0.5V22h1c0.6,0,1-0.4,1-1v-7C30,13.4,29.6,13,29,13z M29,21h-3v-7h3V21z"/>
		</g>
	</g>
</g>
<g id="video_x5F_card">
</g>
<g id="bitcoin">
</g>
<g id="code">
</g>
<g id="contract">
</g>
<g id="network">
</g>
<g id="cloud">
</g>
<g id="pc">
</g>
<g id="anonymous">
</g>
</svg>
