<?xml version="1.0" encoding="utf-8"?>
<!-- Generator: Adobe Illustrator 21.1.0, SVG Export Plug-In . SVG Version: 6.00 Build 0)  -->
<svg version="1.1" xmlns="http://www.w3.org/2000/svg" xmlns:xlink="http://www.w3.org/1999/xlink" x="0px" y="0px"
	 viewBox="0 0 44 44" style="enable-background:new 0 0 44 44;" xml:space="preserve">
<style type="text/css">
	.st0{fill:#F5B445;}
	.st1{fill:#0B3A5B;}
	.st2{fill:#FFCA5D;}
	.st3{fill:#B0C4D8;}
	.st4{fill:#7B9FBE;}
	.st5{fill:#F7964B;}
	.st6{fill:#F47423;}
	.st7{fill:#FFE37C;}
	.st8{fill:#F8A247;}
	.st9{fill:#676A75;}
	.st10{fill:#0F395A;}
	.st11{fill:#585B67;}
	.st12{fill:#EAA239;}
	.st13{fill:#DA8C36;}
	.st14{fill:#C87629;}
	.st15{fill:#FFCB5B;}
	.st16{fill:#D3E2EB;}
	.st17{fill:#FFFFFF;}
	.st18{fill:#F5AE44;}
	.st19{fill:#D5E3EF;}
	.st20{fill:#0E395A;}
	.st21{fill:#C97629;}
	.st22{fill:#C0CED7;}
	.st23{fill:#8CA6BC;}
	.st24{fill:#4C9CD6;}
	.st25{fill:#3689C9;}
	.st26{fill:#FFE27A;}
	.st27{fill:#90CEF1;}
	.st28{fill:#ABE1FA;}
	.st29{fill:#70B7E5;}
	.st30{fill:#71747C;}
	.st31{fill:#F6B545;}
	.st32{fill:#E99C35;}
	.st33{fill:#3BB54A;}
	.st34{fill:#89C763;}
	.st35{fill:#AED477;}
	.st36{fill:#B0C4D9;}
	.st37{fill:#C9D5E3;}
	.st38{fill:#D3E2EB;stroke:#0B3A5B;stroke-width:2;stroke-linecap:round;stroke-linejoin:round;stroke-miterlimit:10;}
	.st39{fill:#99B5CD;}
	.st40{fill:#ECF0F9;}
	.st41{fill:#82A7C4;}
	.st42{fill:#F26A56;}
	.st43{fill:#FFD167;}
	.st44{fill:#2B5367;}
	.st45{fill:#FFCB5D;}
	.st46{fill:#F04D4E;}
	.st47{fill:#D5E3EE;}
	.st48{fill:#EDF1F9;}
	.st49{fill:#577280;}
	.st50{fill:#F16B56;}
	.st51{fill:#DCE4EE;}
	.st52{fill:#ECEFF9;}
	.st53{fill:#CEDAE6;}
	.st54{fill:#5F7B93;}
	.st55{fill:#EFC9AE;}
	.st56{fill:#E2B698;}
	.st57{fill:#4A6B84;}
	.st58{fill:#7592A5;}
</style>
<g id="trolley">
</g>
<g id="wallet">
</g>
<g id="shield">
</g>
<g id="pickaxe">
</g>
<g id="lock">
</g>
<g id="key">
	<g>
		<polygon class="st0" points="16,23 1,38 1,43 6,43 8,41 9,38 11,38 11,38 12,35 14,35 14,35 15,32 17,32 21,28 		"/>
		<path class="st0" d="M17,18l-1.3,1.3C15.3,19.7,15,20.4,15,21v0c0,0.6,0.3,1.3,0.7,1.7l5.6,5.6c0.5,0.5,1.1,0.7,1.7,0.7h0
			c0.6,0,1.3-0.3,1.7-0.7L26,27L17,18z"/>
		<g>
			<path class="st8" d="M16.8,19.6c1.2,3.5,3.8,6.4,7.2,8c0,0,0,0,0,0l1.3-1.3L26,27l-8.3-8.3L16.8,19.6z"/>
		</g>
		<circle class="st0" cx="30" cy="14" r="13"/>
		<g>
			<g>
				<path class="st1" d="M40.5,32c-0.3,0-0.5-0.2-0.5-0.5v-5c0-0.3,0.2-0.5,0.5-0.5s0.5,0.2,0.5,0.5v5C41,31.8,40.8,32,40.5,32z"/>
			</g>
		</g>
		<g>
			<g>
				<path class="st1" d="M2,8.5C2,8.2,2.2,8,2.5,8h5C7.8,8,8,8.2,8,8.5S7.8,9,7.5,9h-5C2.2,9,2,8.8,2,8.5z"/>
			</g>
		</g>
		<g>
			<g>
				<path class="st1" d="M29.5,41.5c-0.3,0-0.5-0.2-0.5-0.5v-5c0-0.3,0.2-0.5,0.5-0.5S30,35.7,30,36v5C30,41.3,29.8,41.5,29.5,41.5z
					"/>
			</g>
		</g>
		<g>
			<g>
				<path class="st1" d="M36.5,38.5c-0.3,0-0.5-0.2-0.5-0.5v-3c0-0.3,0.2-0.5,0.5-0.5S37,34.7,37,35v3C37,38.3,36.8,38.5,36.5,38.5z
					"/>
			</g>
		</g>
		<g>
			<g>
				<path class="st1" d="M6.5,16h-3C3.2,16,3,15.8,3,15.5S3.2,15,3.5,15h3C6.8,15,7,15.2,7,15.5S6.8,16,6.5,16z"/>
			</g>
		</g>
		<g>
			<g>
				<path class="st1" d="M11.5,22h-2C9.2,22,9,21.8,9,21.5S9.2,21,9.5,21h2c0.3,0,0.5,0.2,0.5,0.5S11.8,22,11.5,22z"/>
			</g>
		</g>
		<g>
			<g>
				<path class="st1" d="M21.5,37.5c-0.3,0-0.5-0.2-0.5-0.5v-5c0-0.3,0.2-0.5,0.5-0.5S22,31.7,22,32v5C22,37.3,21.8,37.5,21.5,37.5z
					"/>
			</g>
		</g>
		<g>
			<g>
				<path class="st1" d="M3,24.5C3,24.2,3.2,24,3.5,24h5C8.8,24,9,24.2,9,24.5S8.8,25,8.5,25h-5C3.2,25,3,24.8,3,24.5z"/>
			</g>
		</g>
		<path class="st1" d="M41,40.1v-4.3c0-0.7-0.3-1.3-0.7-1.8l-2.8-2.8c-0.3-0.3-0.4-0.7-0.4-1.1v-4.1c4.2-2.4,7-6.9,7-12.1
			c0-7.7-6.3-14-14-14c-3.3,0-6.3,1.1-8.6,3H17c-0.3,0-0.5,0.2-0.5,0.5S16.7,4,17,4h3.2c-0.9,0.9-1.7,1.9-2.3,3h-3.6
			c-0.4,0-0.8-0.2-1.1-0.4l-1.8-1.8C11,4.3,10.3,4,9.7,4H8.9C8.7,3.4,8.2,3,7.5,3C6.7,3,6,3.7,6,4.5S6.7,6,7.5,6
			c0.7,0,1.2-0.4,1.4-1h0.8c0.4,0,0.8,0.2,1.1,0.4l1.8,1.8C13,7.7,13.7,8,14.3,8h3c-0.5,0.9-0.8,1.9-1,3H9.9c-0.2-0.6-0.8-1-1.4-1
			C7.7,10,7,10.7,7,11.5S7.7,13,8.5,13c0.7,0,1.2-0.4,1.4-1h6.3c-0.1,0.7-0.2,1.3-0.2,2h-3.2c-0.7,0-1.3,0.3-1.8,0.7l-4.8,4.8
			C5.9,19.8,5.6,20,5.2,20H2.9c-0.2-0.6-0.8-1-1.4-1C0.7,19,0,19.7,0,20.5S0.7,22,1.5,22c0.7,0,1.2-0.4,1.4-1h2.3
			c0.7,0,1.3-0.3,1.8-0.7l4.8-4.8c0.3-0.3,0.7-0.4,1.1-0.4h3.2c0.1,0.7,0.2,1.5,0.3,2.2L15,18.6c-0.6,0.6-1,1.5-1,2.4
			c0,0.7,0.2,1.4,0.6,2L0.3,37.3C0.1,37.5,0,37.7,0,38v5c0,0.6,0.4,1,1,1h5c0.3,0,0.5-0.1,0.7-0.3l2-2c0.1-0.1,0.2-0.2,0.2-0.4
			L9.7,39H11c0.4,0,0.8-0.3,0.9-0.7l0.8-2.3H14c0.4,0,0.8-0.3,0.9-0.7l0.8-2.3H17c0.3,0,0.5-0.1,0.7-0.3l3.3-3.3
			c0.6,0.4,1.2,0.6,2,0.6c0,0,0,0,0,0c0.9,0,1.8-0.4,2.4-1l1.4-1.4c0.7,0.2,1.5,0.3,2.2,0.3v2.2c0,0.4-0.2,0.8-0.4,1.1l-3.8,3.8
			c-0.5,0.5-0.7,1.1-0.7,1.8v2.3c-0.6,0.2-1,0.8-1,1.4c0,0.8,0.7,1.5,1.5,1.5s1.5-0.7,1.5-1.5c0-0.7-0.4-1.2-1-1.4v-2.3
			c0-0.4,0.2-0.8,0.4-1.1l3.8-3.8c0.5-0.5,0.7-1.1,0.7-1.8V28c1,0,2-0.1,3-0.3v10.4c-0.6,0.2-1,0.8-1,1.4c0,0.8,0.7,1.5,1.5,1.5
			s1.5-0.7,1.5-1.5c0-0.7-0.4-1.2-1-1.4V27.4c0.7-0.2,1.4-0.5,2-0.8v3.5c0,0.7,0.3,1.3,0.7,1.8l2.8,2.8c0.3,0.3,0.4,0.7,0.4,1.1v4.3
			c-0.6,0.2-1,0.8-1,1.4c0,0.8,0.7,1.5,1.5,1.5s1.5-0.7,1.5-1.5C42,40.8,41.6,40.3,41,40.1z M7.5,5C7.2,5,7,4.8,7,4.5S7.2,4,7.5,4
			S8,4.2,8,4.5S7.8,5,7.5,5z M8.5,12C8.2,12,8,11.8,8,11.5S8.2,11,8.5,11S9,11.2,9,11.5S8.8,12,8.5,12z M1.5,21
			C1.2,21,1,20.8,1,20.5S1.2,20,1.5,20S2,20.2,2,20.5S1.8,21,1.5,21z M24.5,41c-0.3,0-0.5-0.2-0.5-0.5s0.2-0.5,0.5-0.5
			s0.5,0.2,0.5,0.5S24.8,41,24.5,41z M33.5,40c-0.3,0-0.5-0.2-0.5-0.5s0.2-0.5,0.5-0.5s0.5,0.2,0.5,0.5S33.8,40,33.5,40z M16.6,31
			H15c-0.4,0-0.8,0.3-0.9,0.7L13.3,34H12c-0.4,0-0.8,0.3-0.9,0.7L10.3,37H9c-0.4,0-0.8,0.3-0.9,0.7l-0.9,2.8L5.6,42H2v-3.6l14-14
			l0.9,0.9L5.1,37.1c-0.2,0.2-0.2,0.5,0,0.7C5.2,38,5.4,38,5.5,38s0.3,0,0.4-0.1l11.8-11.8l1.9,1.9L16.6,31z M24,27.6
			c-0.3,0.3-0.6,0.4-1,0.4c0,0,0,0,0,0c-0.4,0-0.7-0.1-1-0.4L16.4,22c-0.3-0.3-0.4-0.6-0.4-1c0-0.4,0.1-0.7,0.4-1l0.7-0.7
			c1.4,3.4,4.2,6.2,7.6,7.6L24,27.6z M18,14c0-6.6,5.4-12,12-12s12,5.4,12,12s-5.4,12-12,12S18,20.6,18,14z M40.5,42
			c-0.3,0-0.5-0.2-0.5-0.5s0.2-0.5,0.5-0.5s0.5,0.2,0.5,0.5S40.8,42,40.5,42z"/>
		<g>
			<path class="st15" d="M23.5,24.1L40.1,7.5c-1-1.6-2.4-2.9-3.9-3.8L19.7,20.2C20.7,21.8,22,23.1,23.5,24.1z"/>
		</g>
		<g>
			<path class="st15" d="M25.9,25.2c1.3,0.5,2.7,0.8,4.1,0.8c6.6,0,12-5.4,12-12c0-1.5-0.3-2.9-0.8-4.1L25.9,25.2z"/>
		</g>
		<g>
			<path class="st1" d="M30,5c5,0,9,4,9,9s-4,9-9,9c-5,0-9-4-9-9S25,5,30,5 M30,4c-5.5,0-10,4.5-10,10s4.5,10,10,10
				c5.5,0,10-4.5,10-10S35.5,4,30,4L30,4z"/>
		</g>
		<g>
			<path class="st15" d="M30,23c-5,0-9-4-9-9s4-9,9-9s9,4,9,9S35,23,30,23z"/>
		</g>
		<g>
			<path class="st15" d="M30,23c-5,0-9-4-9-9s4-9,9-9s9,4,9,9S35,23,30,23z"/>
		</g>
		<g>
			<path class="st18" d="M22,15c0-5,4-9,9-9c2.2,0,4.3,0.8,5.8,2.2C35.2,6.2,32.7,5,30,5c-5,0-9,4-9,9c0,2.7,1.2,5.2,3.2,6.8
				C22.8,19.3,22,17.2,22,15z"/>
		</g>
		<g>
			<path class="st26" d="M34,5.9l-12,12c0.8,1.7,2.2,3.1,3.8,4L37.9,9.7C37,8.1,35.6,6.8,34,5.9z"/>
		</g>
		<g>
			<g>
				<path class="st15" d="M36.8,8.2C36,7.2,35.1,6.5,34,5.9l-0.4,0.4C34.8,6.7,35.9,7.3,36.8,8.2z"/>
			</g>
			<g>
				<path class="st15" d="M24.2,20.8c-0.8-1-1.4-2.1-1.8-3.3L21.9,18C22.5,19.1,23.2,20,24.2,20.8z"/>
			</g>
		</g>
		<g>
			<path class="st26" d="M30,23c5,0,9-4,9-9c0-0.6-0.1-1.2-0.2-1.7L28.3,22.8C28.8,22.9,29.4,23,30,23z"/>
		</g>
		<path class="st1" d="M33.6,13.5C33.8,13,34,12.5,34,12c0-1.7-1.3-3-3-3c0-0.6-0.4-1-1-1s-1,0.4-1,1h-2c-0.6,0-1,0.4-1,1s0.4,1,1,1
			v6c-0.6,0-1,0.4-1,1s0.4,1,1,1h2c0,0.6,0.4,1,1,1s1-0.4,1-1h1c1.7,0,3-1.3,3-3C35,14.9,34.4,14,33.6,13.5z M31,11c0.6,0,1,0.4,1,1
			s-0.4,1-1,1h-2v-2H31z M32,17h-3v-2h3c0.6,0,1,0.4,1,1S32.6,17,32,17z"/>
	</g>
</g>
<g id="mobile">
</g>
<g id="coins">
</g>
<g id="trade">
</g>
<g id="blockchain">
</g>
<g id="exchange">
</g>
<g id="graph">
</g>
<g id="video_x5F_card">
</g>
<g id="bitcoin">
</g>
<g id="code">
</g>
<g id="contract">
</g>
<g id="network">
</g>
<g id="cloud">
</g>
<g id="pc">
</g>
<g id="anonymous">
</g>
</svg>
