<?xml version="1.0" encoding="utf-8"?>
<!-- Generator: Adobe Illustrator 21.1.0, SVG Export Plug-In . SVG Version: 6.00 Build 0)  -->
<svg version="1.1" xmlns="http://www.w3.org/2000/svg" xmlns:xlink="http://www.w3.org/1999/xlink" x="0px" y="0px"
	 viewBox="0 0 44 44" style="enable-background:new 0 0 44 44;" xml:space="preserve">
<style type="text/css">
	.st0{fill:#F5B445;}
	.st1{fill:#0B3A5B;}
	.st2{fill:#FFCA5D;}
	.st3{fill:#B0C4D8;}
	.st4{fill:#7B9FBE;}
	.st5{fill:#F7964B;}
	.st6{fill:#F47423;}
	.st7{fill:#FFE37C;}
	.st8{fill:#F8A247;}
	.st9{fill:#676A75;}
	.st10{fill:#0F395A;}
	.st11{fill:#585B67;}
	.st12{fill:#EAA239;}
	.st13{fill:#DA8C36;}
	.st14{fill:#C87629;}
	.st15{fill:#FFCB5B;}
	.st16{fill:#D3E2EB;}
	.st17{fill:#FFFFFF;}
	.st18{fill:#F5AE44;}
	.st19{fill:#D5E3EF;}
	.st20{fill:#0E395A;}
	.st21{fill:#C97629;}
	.st22{fill:#C0CED7;}
	.st23{fill:#8CA6BC;}
	.st24{fill:#4C9CD6;}
	.st25{fill:#3689C9;}
	.st26{fill:#FFE27A;}
	.st27{fill:#90CEF1;}
	.st28{fill:#ABE1FA;}
	.st29{fill:#70B7E5;}
	.st30{fill:#71747C;}
	.st31{fill:#F6B545;}
	.st32{fill:#E99C35;}
	.st33{fill:#3BB54A;}
	.st34{fill:#89C763;}
	.st35{fill:#AED477;}
	.st36{fill:#B0C4D9;}
	.st37{fill:#C9D5E3;}
	.st38{fill:#D3E2EB;stroke:#0B3A5B;stroke-width:2;stroke-linecap:round;stroke-linejoin:round;stroke-miterlimit:10;}
	.st39{fill:#99B5CD;}
	.st40{fill:#ECF0F9;}
	.st41{fill:#82A7C4;}
	.st42{fill:#F26A56;}
	.st43{fill:#FFD167;}
	.st44{fill:#2B5367;}
	.st45{fill:#FFCB5D;}
	.st46{fill:#F04D4E;}
	.st47{fill:#D5E3EE;}
	.st48{fill:#EDF1F9;}
	.st49{fill:#577280;}
	.st50{fill:#F16B56;}
	.st51{fill:#DCE4EE;}
	.st52{fill:#ECEFF9;}
	.st53{fill:#CEDAE6;}
	.st54{fill:#5F7B93;}
	.st55{fill:#EFC9AE;}
	.st56{fill:#E2B698;}
	.st57{fill:#4A6B84;}
	.st58{fill:#7592A5;}
</style>
<g id="trolley">
</g>
<g id="wallet">
</g>
<g id="shield">
</g>
<g id="pickaxe">
</g>
<g id="lock">
	<g>
		<path class="st24" d="M34,40H10c-1.1,0-2-0.9-2-2V22c0-1.1,0.9-2,2-2h24c1.1,0,2,0.9,2,2v16C36,39.1,35.1,40,34,40z"/>
		<g>
			<path class="st25" d="M34,21v16c0,0.6-0.4,1-1,1H9c0,0.6,0.4,1,1,1h24c0.6,0,1-0.4,1-1V22C35,21.4,34.6,21,34,21z"/>
		</g>
		<path class="st16" d="M22,1c-5.5,0-10,4.5-10,10v7h4v-7c0-3.3,2.7-6,6-6s6,2.7,6,6v7h4v-7C32,5.5,27.5,1,22,1z"/>
		<g>
			<g>
				<path class="st17" d="M22.5,2c-0.2,0-0.3,0-0.5,0c-5,0-9,4-9,9v7h1v-7C14,6.2,17.8,2.3,22.5,2z"/>
			</g>
			<g>
				<path class="st17" d="M23,4c-0.2,0-0.3,0-0.5,0c3.6,0.3,6.5,3.3,6.5,7v7h1v-7C30,7.1,26.9,4,23,4z"/>
			</g>
		</g>
		<path class="st9" d="M31,43H13c-1.1,0-2-0.9-2-2v-1h22v1C33,42.1,32.1,43,31,43z"/>
		<g>
			<path class="st11" d="M28,42h3c0.6,0,1-0.4,1-1h-4V42z"/>
		</g>
		<path class="st1" d="M25.6,29.5C25.8,29,26,28.5,26,28c0-1.7-1.3-3-3-3c0-0.6-0.4-1-1-1s-1,0.4-1,1h-2c-0.6,0-1,0.4-1,1s0.4,1,1,1
			v6c-0.6,0-1,0.4-1,1s0.4,1,1,1h2c0,0.6,0.4,1,1,1s1-0.4,1-1h1c1.7,0,3-1.3,3-3C27,30.9,26.4,30,25.6,29.5z M23,27c0.6,0,1,0.4,1,1
			s-0.4,1-1,1h-2v-2H23z M24,33h-3v-2h3c0.6,0,1,0.4,1,1S24.6,33,24,33z"/>
		<path class="st1" d="M34,19c0-0.6-0.4-1-1-1v-7c0-6.1-4.9-11-11-11S11,4.9,11,11v7c-0.6,0-1,0.4-1,1c-1.7,0-3,1.3-3,3v16
			c0,1.7,1.3,3,3,3c0,1.7,1.3,3,3,3h18c1.7,0,3-1.3,3-3c1.7,0,3-1.3,3-3V22C37,20.3,35.7,19,34,19z M13,11c0-5,4-9,9-9s9,4,9,9v7h-2
			v-7c0-3.9-3.1-7-7-7s-7,3.1-7,7v7h-2V11z M26,19h-8c0-0.6-0.4-1-1-1v-7c0-2.8,2.2-5,5-5s5,2.2,5,5v7C26.4,18,26,18.4,26,19z
			 M31,42H13c-0.6,0-1-0.4-1-1h20C32,41.6,31.6,42,31,42z M35,23h-4.5c-0.3,0-0.5,0.2-0.5,0.5s0.2,0.5,0.5,0.5H35v3h-4.5
			c-0.3,0-0.5,0.2-0.5,0.5s0.2,0.5,0.5,0.5H35v3h-4.5c-0.3,0-0.5,0.2-0.5,0.5s0.2,0.5,0.5,0.5H35v3h-4.5c-0.3,0-0.5,0.2-0.5,0.5
			s0.2,0.5,0.5,0.5H35v2c0,0.6-0.4,1-1,1H10c-0.6,0-1-0.4-1-1v-2h4.5c0.3,0,0.5-0.2,0.5-0.5S13.8,35,13.5,35H9v-3h4.5
			c0.3,0,0.5-0.2,0.5-0.5S13.8,31,13.5,31H9v-3h4.5c0.3,0,0.5-0.2,0.5-0.5S13.8,27,13.5,27H9v-3h4.5c0.3,0,0.5-0.2,0.5-0.5
			S13.8,23,13.5,23H9v-1c0-0.6,0.4-1,1-1h24c0.6,0,1,0.4,1,1V23z"/>
	</g>
</g>
<g id="key">
</g>
<g id="mobile">
</g>
<g id="coins">
</g>
<g id="trade">
</g>
<g id="blockchain">
</g>
<g id="exchange">
</g>
<g id="graph">
</g>
<g id="video_x5F_card">
</g>
<g id="bitcoin">
</g>
<g id="code">
</g>
<g id="contract">
</g>
<g id="network">
</g>
<g id="cloud">
</g>
<g id="pc">
</g>
<g id="anonymous">
</g>
</svg>
