<?xml version="1.0" encoding="utf-8"?>
<!-- Generator: Adobe Illustrator 21.1.0, SVG Export Plug-In . SVG Version: 6.00 Build 0)  -->
<svg version="1.1" xmlns="http://www.w3.org/2000/svg" xmlns:xlink="http://www.w3.org/1999/xlink" x="0px" y="0px"
	 viewBox="0 0 44 44" style="enable-background:new 0 0 44 44;" xml:space="preserve">
<style type="text/css">
	.st0{fill:#F5B445;}
	.st1{fill:#0B3A5B;}
	.st2{fill:#FFCA5D;}
	.st3{fill:#B0C4D8;}
	.st4{fill:#7B9FBE;}
	.st5{fill:#F7964B;}
	.st6{fill:#F47423;}
	.st7{fill:#FFE37C;}
	.st8{fill:#F8A247;}
	.st9{fill:#676A75;}
	.st10{fill:#0F395A;}
	.st11{fill:#585B67;}
	.st12{fill:#EAA239;}
	.st13{fill:#DA8C36;}
	.st14{fill:#C87629;}
	.st15{fill:#FFCB5B;}
	.st16{fill:#D3E2EB;}
	.st17{fill:#FFFFFF;}
	.st18{fill:#F5AE44;}
	.st19{fill:#D5E3EF;}
	.st20{fill:#0E395A;}
	.st21{fill:#C97629;}
	.st22{fill:#C0CED7;}
	.st23{fill:#8CA6BC;}
	.st24{fill:#4C9CD6;}
	.st25{fill:#3689C9;}
	.st26{fill:#FFE27A;}
	.st27{fill:#90CEF1;}
	.st28{fill:#ABE1FA;}
	.st29{fill:#70B7E5;}
	.st30{fill:#71747C;}
	.st31{fill:#F6B545;}
	.st32{fill:#E99C35;}
	.st33{fill:#3BB54A;}
	.st34{fill:#89C763;}
	.st35{fill:#AED477;}
	.st36{fill:#B0C4D9;}
	.st37{fill:#C9D5E3;}
	.st38{fill:#D3E2EB;stroke:#0B3A5B;stroke-width:2;stroke-linecap:round;stroke-linejoin:round;stroke-miterlimit:10;}
	.st39{fill:#99B5CD;}
	.st40{fill:#ECF0F9;}
	.st41{fill:#82A7C4;}
	.st42{fill:#F26A56;}
	.st43{fill:#FFD167;}
	.st44{fill:#2B5367;}
	.st45{fill:#FFCB5D;}
	.st46{fill:#F04D4E;}
	.st47{fill:#D5E3EE;}
	.st48{fill:#EDF1F9;}
	.st49{fill:#577280;}
	.st50{fill:#F16B56;}
	.st51{fill:#DCE4EE;}
	.st52{fill:#ECEFF9;}
	.st53{fill:#CEDAE6;}
	.st54{fill:#5F7B93;}
	.st55{fill:#EFC9AE;}
	.st56{fill:#E2B698;}
	.st57{fill:#4A6B84;}
	.st58{fill:#7592A5;}
</style>
<g id="trolley">
</g>
<g id="wallet">
</g>
<g id="shield">
</g>
<g id="pickaxe">
</g>
<g id="lock">
</g>
<g id="key">
</g>
<g id="mobile">
	<g>
		<path class="st9" d="M19,39H3c-1.1,0-2-0.9-2-2V7c0-1.1,0.9-2,2-2h16c1.1,0,2,0.9,2,2v30C21,38.1,20.1,39,19,39z"/>
		<g>
			<path class="st11" d="M19,6v30c0,0.6-0.4,1-1,1H2c0,0.6,0.4,1,1,1h16c0.6,0,1-0.4,1-1V7C20,6.4,19.6,6,19,6z"/>
		</g>
		<g>
			<rect x="2" y="10" class="st27" width="18" height="23"/>
		</g>
		<g>
			<circle class="st1" cx="11" cy="36" r="1"/>
		</g>
		<g>
			<polygon class="st28" points="11,10 14,10 2,22 2,19 			"/>
		</g>
		<g>
			<polygon class="st28" points="2,10 9,10 2,17 			"/>
		</g>
		<g>
			<path class="st1" d="M15,21H7c-0.4,0-0.8-0.2-0.9-0.6C5.9,20,6,19.6,6.3,19.3l3-3c0.4-0.4,1-0.4,1.4,0s0.4,1,0,1.4L9.4,19H15
				c0.6,0,1,0.4,1,1S15.6,21,15,21z"/>
		</g>
		<g>
			<path class="st1" d="M12,27c-0.3,0-0.5-0.1-0.7-0.3c-0.4-0.4-0.4-1,0-1.4l1.3-1.3H7c-0.6,0-1-0.4-1-1s0.4-1,1-1h8
				c0.4,0,0.8,0.2,0.9,0.6c0.2,0.4,0.1,0.8-0.2,1.1l-3,3C12.5,26.9,12.3,27,12,27z"/>
		</g>
		<g>
			<rect x="19" y="10" class="st29" width="1" height="23"/>
		</g>
		<g>
			<path class="st30" d="M13,6H3C2.4,6,2,6.4,2,7v2h8L13,6z"/>
		</g>
		<g>
			<polygon class="st30" points="12,9 15,9 18,6 15,6 			"/>
		</g>
		<g>
			<g>
				<path class="st1" d="M9,7.5C9,7.2,9.2,7,9.5,7h3C12.8,7,13,7.2,13,7.5S12.8,8,12.5,8h-3C9.2,8,9,7.8,9,7.5z"/>
			</g>
		</g>
		<g>
			<path class="st1" d="M42.4,33.1c-0.2-0.2-0.5-0.2-0.7,0c-1.7,1.5-3.7,2.7-5.8,3.3c-0.3,0.1-0.4,0.4-0.3,0.6
				c0.1,0.2,0.3,0.4,0.5,0.4c0,0,0.1,0,0.1,0c2.3-0.7,4.4-1.9,6.2-3.5C42.5,33.6,42.6,33.3,42.4,33.1z"/>
			<path class="st1" d="M35.9,7.6c1.4,0.4,2.7,1,3.9,1.8c0.1,0.1,0.2,0.1,0.3,0.1c0.2,0,0.3-0.1,0.4-0.2c0.2-0.2,0.1-0.5-0.1-0.7
				c-1.3-0.8-2.7-1.5-4.1-1.9c-0.3-0.1-0.5,0.1-0.6,0.3S35.6,7.6,35.9,7.6z"/>
			<path class="st1" d="M31.1,7c0.2,0.6,0.8,1,1.4,1C33.3,8,34,7.3,34,6.5S33.3,5,32.5,5c-0.7,0-1.2,0.4-1.4,1
				c-3.4,0.1-6.5,1.2-9.1,3.1V7c0-1.7-1.3-3-3-3H3C1.3,4,0,5.3,0,7v30c0,1.7,1.3,3,3,3h16c1.7,0,3-1.3,3-3v-2.2
				c2.6,1.9,5.7,3.1,9.1,3.1c0.2,0.6,0.8,1,1.4,1c0.8,0,1.5-0.7,1.5-1.5S33.3,36,32.5,36c-0.6,0-1.2,0.4-1.4,1
				c-3.4-0.1-6.6-1.4-9.1-3.4V10.4C24.5,8.4,27.6,7.1,31.1,7z M32.5,6C32.8,6,33,6.2,33,6.5S32.8,7,32.5,7S32,6.8,32,6.5
				S32.2,6,32.5,6z M32.5,37c0.3,0,0.5,0.2,0.5,0.5S32.8,38,32.5,38S32,37.8,32,37.5S32.2,37,32.5,37z M20,37c0,0.6-0.4,1-1,1H3
				c-0.6,0-1-0.4-1-1v-3h18V37z M20,33H2V10h18V33z M20,9H2V7c0-0.6,0.4-1,1-1h16c0.6,0,1,0.4,1,1V9z"/>
		</g>
		<g>
			<g>
				<g>
					<g>
						<circle class="st0" cx="31" cy="22" r="11"/>
						<path class="st1" d="M31,35c-7.2,0-13-5.8-13-13S23.8,9,31,9s13,5.8,13,13S38.2,35,31,35z M31,11c-6.1,0-11,4.9-11,11
							s4.9,11,11,11s11-4.9,11-11S37.1,11,31,11z"/>
					</g>
				</g>
			</g>
			<g>
				<path class="st15" d="M24.6,30.9l15.3-15.3c-1.1-1.5-2.6-2.7-4.3-3.5L21,26.7C21.8,28.4,23.1,29.8,24.6,30.9z"/>
			</g>
			<g>
				<path class="st15" d="M31,33c6.1,0,11-4.9,11-11c0-1.5-0.3-2.9-0.8-4.2L26.8,32.2C28.1,32.7,29.5,33,31,33z"/>
			</g>
			<g>
				<g>
					<circle class="st15" cx="31" cy="22" r="8"/>
				</g>
				<g>
					<path class="st1" d="M31,14c4.4,0,8,3.6,8,8s-3.6,8-8,8s-8-3.6-8-8S26.6,14,31,14 M31,13c-5,0-9,4-9,9s4,9,9,9s9-4,9-9
						S36,13,31,13L31,13z"/>
				</g>
			</g>
			<g>
				<path class="st31" d="M24,23c0-4.4,3.6-8,8-8c2,0,3.7,0.7,5.1,1.9C35.7,15.1,33.5,14,31,14c-4.4,0-8,3.6-8,8
					c0,2.5,1.1,4.7,2.9,6.1C24.7,26.7,24,25,24,23z"/>
			</g>
			<g>
				<path class="st26" d="M33.3,14.4l-10,10c0.6,1.8,1.8,3.4,3.4,4.4l11-11C36.7,16.1,35.2,14.9,33.3,14.4z"/>
			</g>
			<g>
				<g>
					<path class="st15" d="M32.7,15c1.7,0.1,3.2,0.8,4.5,1.8c-1-1.2-2.3-2-3.8-2.5L32.7,15z"/>
				</g>
				<g>
					<path class="st15" d="M25.9,28.1c-1-1.2-1.7-2.8-1.8-4.5l-0.7,0.7C23.8,25.8,24.7,27.2,25.9,28.1z"/>
				</g>
			</g>
			<g>
				<path class="st26" d="M31,30c4.4,0,8-3.6,8-8c0-0.6-0.1-1.3-0.2-1.9l-9.6,9.6C29.7,29.9,30.4,30,31,30z"/>
			</g>
			<path class="st1" d="M34.6,21.5C34.8,21,35,20.5,35,20c0-1.7-1.3-3-3-3c0-0.6-0.4-1-1-1s-1,0.4-1,1h-2c-0.6,0-1,0.4-1,1
				s0.4,1,1,1v6c-0.6,0-1,0.4-1,1s0.4,1,1,1h2c0,0.6,0.4,1,1,1s1-0.4,1-1h1c1.7,0,3-1.3,3-3C36,22.9,35.4,22,34.6,21.5z M32,19
				c0.6,0,1,0.4,1,1s-0.4,1-1,1h-2v-2H32z M33,25h-3v-2h3c0.6,0,1,0.4,1,1S33.6,25,33,25z"/>
		</g>
	</g>
</g>
<g id="coins">
</g>
<g id="trade">
</g>
<g id="blockchain">
</g>
<g id="exchange">
</g>
<g id="graph">
</g>
<g id="video_x5F_card">
</g>
<g id="bitcoin">
</g>
<g id="code">
</g>
<g id="contract">
</g>
<g id="network">
</g>
<g id="cloud">
</g>
<g id="pc">
</g>
<g id="anonymous">
</g>
</svg>
