<?xml version="1.0" encoding="utf-8"?>
<!-- Generator: Adobe Illustrator 21.1.0, SVG Export Plug-In . SVG Version: 6.00 Build 0)  -->
<svg version="1.1" xmlns="http://www.w3.org/2000/svg" xmlns:xlink="http://www.w3.org/1999/xlink" x="0px" y="0px"
	 viewBox="0 0 44 44" style="enable-background:new 0 0 44 44;" xml:space="preserve">
<style type="text/css">
	.st0{fill:#F5B445;}
	.st1{fill:#0B3A5B;}
	.st2{fill:#FFCA5D;}
	.st3{fill:#B0C4D8;}
	.st4{fill:#7B9FBE;}
	.st5{fill:#F7964B;}
	.st6{fill:#F47423;}
	.st7{fill:#FFE37C;}
	.st8{fill:#F8A247;}
	.st9{fill:#676A75;}
	.st10{fill:#0F395A;}
	.st11{fill:#585B67;}
	.st12{fill:#EAA239;}
	.st13{fill:#DA8C36;}
	.st14{fill:#C87629;}
	.st15{fill:#FFCB5B;}
	.st16{fill:#D3E2EB;}
	.st17{fill:#FFFFFF;}
	.st18{fill:#F5AE44;}
	.st19{fill:#D5E3EF;}
	.st20{fill:#0E395A;}
	.st21{fill:#C97629;}
	.st22{fill:#C0CED7;}
	.st23{fill:#8CA6BC;}
	.st24{fill:#4C9CD6;}
	.st25{fill:#3689C9;}
	.st26{fill:#FFE27A;}
	.st27{fill:#90CEF1;}
	.st28{fill:#ABE1FA;}
	.st29{fill:#70B7E5;}
	.st30{fill:#71747C;}
	.st31{fill:#F6B545;}
	.st32{fill:#E99C35;}
	.st33{fill:#3BB54A;}
	.st34{fill:#89C763;}
	.st35{fill:#AED477;}
	.st36{fill:#B0C4D9;}
	.st37{fill:#C9D5E3;}
	.st38{fill:#D3E2EB;stroke:#0B3A5B;stroke-width:2;stroke-linecap:round;stroke-linejoin:round;stroke-miterlimit:10;}
	.st39{fill:#99B5CD;}
	.st40{fill:#ECF0F9;}
	.st41{fill:#82A7C4;}
	.st42{fill:#F26A56;}
	.st43{fill:#FFD167;}
	.st44{fill:#2B5367;}
	.st45{fill:#FFCB5D;}
	.st46{fill:#F04D4E;}
	.st47{fill:#D5E3EE;}
	.st48{fill:#EDF1F9;}
	.st49{fill:#577280;}
	.st50{fill:#F16B56;}
	.st51{fill:#DCE4EE;}
	.st52{fill:#ECEFF9;}
	.st53{fill:#CEDAE6;}
	.st54{fill:#5F7B93;}
	.st55{fill:#EFC9AE;}
	.st56{fill:#E2B698;}
	.st57{fill:#4A6B84;}
	.st58{fill:#7592A5;}
</style>
<g id="trolley">
</g>
<g id="wallet">
</g>
<g id="shield">
</g>
<g id="pickaxe">
</g>
<g id="lock">
</g>
<g id="key">
</g>
<g id="mobile">
</g>
<g id="coins">
</g>
<g id="trade">
</g>
<g id="blockchain">
</g>
<g id="exchange">
</g>
<g id="graph">
</g>
<g id="video_x5F_card">
</g>
<g id="bitcoin">
</g>
<g id="code">
</g>
<g id="contract">
</g>
<g id="network">
	<g>
		<g>
			<circle class="st0" cx="22" cy="22" r="11"/>
			<g>
				<path class="st15" d="M15.6,30.9l15.3-15.3c-1.1-1.5-2.6-2.7-4.3-3.5L12,26.7C12.8,28.4,14.1,29.8,15.6,30.9z"/>
			</g>
			<g>
				<path class="st15" d="M22,33c6.1,0,11-4.9,11-11c0-1.5-0.3-2.9-0.8-4.2L17.8,32.2C19.1,32.7,20.5,33,22,33z"/>
			</g>
			<g>
				<g>
					<circle class="st15" cx="22" cy="22" r="8"/>
				</g>
				<g>
					<path class="st1" d="M22,14c4.4,0,8,3.6,8,8s-3.6,8-8,8s-8-3.6-8-8S17.6,14,22,14 M22,13c-5,0-9,4-9,9s4,9,9,9s9-4,9-9
						S27,13,22,13L22,13z"/>
				</g>
			</g>
			<g>
				<path class="st31" d="M15,23c0-4.4,3.6-8,8-8c2,0,3.7,0.7,5.1,1.9C26.7,15.1,24.5,14,22,14c-4.4,0-8,3.6-8,8
					c0,2.5,1.1,4.7,2.9,6.1C15.7,26.7,15,25,15,23z"/>
			</g>
			<g>
				<path class="st26" d="M24.3,14.4l-10,10c0.6,1.8,1.8,3.4,3.4,4.4l11-11C27.7,16.1,26.2,14.9,24.3,14.4z"/>
			</g>
			<g>
				<g>
					<path class="st15" d="M23.7,15c1.7,0.1,3.2,0.8,4.5,1.8c-1-1.2-2.3-2-3.8-2.5L23.7,15z"/>
				</g>
				<g>
					<path class="st15" d="M16.9,28.1c-1-1.2-1.7-2.8-1.8-4.5l-0.7,0.7C14.8,25.8,15.7,27.2,16.9,28.1z"/>
				</g>
			</g>
			<g>
				<path class="st26" d="M22,30c4.4,0,8-3.6,8-8c0-0.6-0.1-1.3-0.2-1.9l-9.6,9.6C20.7,29.9,21.4,30,22,30z"/>
			</g>
			<path class="st1" d="M25.6,21.5C25.8,21,26,20.5,26,20c0-1.7-1.3-3-3-3c0-0.6-0.4-1-1-1s-1,0.4-1,1h-2c-0.6,0-1,0.4-1,1
				s0.4,1,1,1v6c-0.6,0-1,0.4-1,1s0.4,1,1,1h2c0,0.6,0.4,1,1,1s1-0.4,1-1h1c1.7,0,3-1.3,3-3C27,22.9,26.4,22,25.6,21.5z M23,19
				c0.6,0,1,0.4,1,1s-0.4,1-1,1h-2v-2H23z M24,25h-3v-2h3c0.6,0,1,0.4,1,1S24.6,25,24,25z"/>
		</g>
		<g>
			<rect x="21" y="34" class="st1" width="2" height="3"/>
		</g>
		<path class="st1" d="M41.9,38.2l-1.8-13.4c1.1-0.4,1.9-1.5,1.9-2.8s-0.8-2.3-1.9-2.8l1.8-13.4C43.1,5.5,44,4.3,44,3
			c0-1.7-1.3-3-3-3c-1.3,0-2.5,0.9-2.8,2.1L24.8,3.9C24.3,2.8,23.3,2,22,2s-2.3,0.8-2.8,1.9L5.8,2.1C5.5,0.9,4.3,0,3,0
			C1.3,0,0,1.3,0,3c0,1.3,0.9,2.5,2.1,2.8l1.8,13.4C2.8,19.7,2,20.7,2,22s0.8,2.3,1.9,2.8L2.1,38.2C0.9,38.5,0,39.7,0,41
			c0,1.7,1.3,3,3,3c1.3,0,2.5-0.9,2.8-2.1l13.4-1.8c0.4,1.1,1.5,1.9,2.8,1.9s2.3-0.8,2.8-1.9l13.4,1.8c0.4,1.2,1.5,2.1,2.8,2.1
			c1.7,0,3-1.3,3-3C44,39.7,43.1,38.5,41.9,38.2z M41,2c0.6,0,1,0.4,1,1s-0.4,1-1,1s-1-0.4-1-1S40.4,2,41,2z M39.7,5.7
			c0.1,0,0.1,0.1,0.2,0.1l-1.8,13.4c-0.9,0.3-1.6,1-1.9,1.8h-1.2c-0.2-2.8-1.3-5.4-3.1-7.4L39.7,5.7z M40,22c0,0.6-0.4,1-1,1
			s-1-0.4-1-1s0.4-1,1-1S40,21.4,40,22z M22,33c-6.1,0-11-4.9-11-11s4.9-11,11-11s11,4.9,11,11S28.1,33,22,33z M24.8,5.9l13.4-1.8
			c0,0.1,0.1,0.1,0.1,0.2l-7.9,7.9c-2-1.7-4.6-2.9-7.4-3.1V7.8C23.9,7.5,24.6,6.8,24.8,5.9z M22,4c0.6,0,1,0.4,1,1s-0.4,1-1,1
			s-1-0.4-1-1S21.4,4,22,4z M5.8,4.1l13.4,1.8c0.3,0.9,1,1.6,1.8,1.9v1.2c-2.8,0.2-5.4,1.3-7.4,3.1L5.7,4.3C5.7,4.2,5.8,4.2,5.8,4.1
			z M4.3,5.7l7.9,7.9c-1.7,2-2.9,4.6-3.1,7.4H7.8c-0.3-0.9-1-1.6-1.9-1.8L4.1,5.8C4.2,5.8,4.2,5.7,4.3,5.7z M3,4C2.4,4,2,3.6,2,3
			s0.4-1,1-1s1,0.4,1,1S3.6,4,3,4z M3,42c-0.6,0-1-0.4-1-1s0.4-1,1-1s1,0.4,1,1S3.6,42,3,42z M5,21c0.6,0,1,0.4,1,1s-0.4,1-1,1
			s-1-0.4-1-1S4.4,21,5,21z M4.3,38.3c-0.1,0-0.1-0.1-0.2-0.1l1.8-13.4c0.9-0.3,1.6-1,1.9-1.8h1.2c0.2,2.8,1.3,5.4,3.1,7.4L4.3,38.3
			z M22,40c-0.6,0-1-0.4-1-1s0.4-1,1-1s1,0.4,1,1S22.6,40,22,40z M38.2,39.9l-13.4-1.8C24.5,36.9,23.3,36,22,36s-2.5,0.9-2.8,2.1
			L5.8,39.9c0-0.1-0.1-0.1-0.1-0.2l7.9-7.9c2.3,2,5.2,3.1,8.4,3.1s6.2-1.2,8.4-3.1l7.9,7.9C38.3,39.8,38.2,39.8,38.2,39.9z
			 M39.7,38.3l-7.9-7.9c1.7-2,2.9-4.6,3.1-7.4h1.2c0.3,0.9,1,1.6,1.9,1.8l1.8,13.4C39.8,38.2,39.8,38.3,39.7,38.3z M41,42
			c-0.6,0-1-0.4-1-1s0.4-1,1-1s1,0.4,1,1S41.6,42,41,42z"/>
	</g>
</g>
<g id="cloud">
</g>
<g id="pc">
</g>
<g id="anonymous">
</g>
</svg>
