<?xml version="1.0" encoding="utf-8"?>
<!-- Generator: Adobe Illustrator 21.1.0, SVG Export Plug-In . SVG Version: 6.00 Build 0)  -->
<svg version="1.1" xmlns="http://www.w3.org/2000/svg" xmlns:xlink="http://www.w3.org/1999/xlink" x="0px" y="0px"
	 viewBox="0 0 44 44" style="enable-background:new 0 0 44 44;" xml:space="preserve">
<style type="text/css">
	.st0{fill:#F5B445;}
	.st1{fill:#0B3A5B;}
	.st2{fill:#FFCA5D;}
	.st3{fill:#B0C4D8;}
	.st4{fill:#7B9FBE;}
	.st5{fill:#F7964B;}
	.st6{fill:#F47423;}
	.st7{fill:#FFE37C;}
	.st8{fill:#F8A247;}
	.st9{fill:#676A75;}
	.st10{fill:#0F395A;}
	.st11{fill:#585B67;}
	.st12{fill:#EAA239;}
	.st13{fill:#DA8C36;}
	.st14{fill:#C87629;}
	.st15{fill:#FFCB5B;}
	.st16{fill:#D3E2EB;}
	.st17{fill:#FFFFFF;}
	.st18{fill:#F5AE44;}
	.st19{fill:#D5E3EF;}
	.st20{fill:#0E395A;}
	.st21{fill:#C97629;}
	.st22{fill:#C0CED7;}
	.st23{fill:#8CA6BC;}
	.st24{fill:#4C9CD6;}
	.st25{fill:#3689C9;}
	.st26{fill:#FFE27A;}
	.st27{fill:#90CEF1;}
	.st28{fill:#ABE1FA;}
	.st29{fill:#70B7E5;}
	.st30{fill:#71747C;}
	.st31{fill:#F6B545;}
	.st32{fill:#E99C35;}
	.st33{fill:#3BB54A;}
	.st34{fill:#89C763;}
	.st35{fill:#AED477;}
	.st36{fill:#B0C4D9;}
	.st37{fill:#C9D5E3;}
	.st38{fill:#D3E2EB;stroke:#0B3A5B;stroke-width:2;stroke-linecap:round;stroke-linejoin:round;stroke-miterlimit:10;}
	.st39{fill:#99B5CD;}
	.st40{fill:#ECF0F9;}
	.st41{fill:#82A7C4;}
	.st42{fill:#F26A56;}
	.st43{fill:#FFD167;}
	.st44{fill:#2B5367;}
	.st45{fill:#FFCB5D;}
	.st46{fill:#F04D4E;}
	.st47{fill:#D5E3EE;}
	.st48{fill:#EDF1F9;}
	.st49{fill:#577280;}
	.st50{fill:#F16B56;}
	.st51{fill:#DCE4EE;}
	.st52{fill:#ECEFF9;}
	.st53{fill:#CEDAE6;}
	.st54{fill:#5F7B93;}
	.st55{fill:#EFC9AE;}
	.st56{fill:#E2B698;}
	.st57{fill:#4A6B84;}
	.st58{fill:#7592A5;}
</style>
<g id="trolley">
</g>
<g id="wallet">
</g>
<g id="shield">
</g>
<g id="pickaxe">
</g>
<g id="lock">
</g>
<g id="key">
</g>
<g id="mobile">
</g>
<g id="coins">
</g>
<g id="trade">
</g>
<g id="blockchain">
</g>
<g id="exchange">
</g>
<g id="graph">
</g>
<g id="video_x5F_card">
</g>
<g id="bitcoin">
</g>
<g id="code">
</g>
<g id="contract">
</g>
<g id="network">
</g>
<g id="cloud">
</g>
<g id="pc">
	<g>
		<g>
			<path class="st52" d="M43,29v4c0,1.1-0.9,2-2,2H3c-1.1,0-2-0.9-2-2v-4H43z"/>
			<g>
				<path class="st53" d="M41,30v2c0,0.6-0.4,1-1,1H2c0,0.6,0.4,1,1,1h38c0.6,0,1-0.4,1-1v-3H41z"/>
			</g>
			<path class="st27" d="M43,5v24H1V5c0-1.1,0.9-2,2-2h38C42.1,3,43,3.9,43,5z"/>
			<g>
				<path class="st52" d="M28,41H16c1.1,0,2-0.9,2-2v-4h8v4C26,40.1,26.9,41,28,41z"/>
				<path class="st1" d="M41,2H3C1.3,2,0,3.3,0,5v24v4c0,1.7,1.3,3,3,3h14v3c0,0.6-0.4,1-1,1h-1c-0.6,0-1,0.4-1,1s0.4,1,1,1h1h12h1
					c0.6,0,1-0.4,1-1s-0.4-1-1-1h-1c-0.6,0-1-0.4-1-1v-3h14c1.7,0,3-1.3,3-3v-4V5C44,3.3,42.7,2,41,2z M2,5c0-0.6,0.4-1,1-1h38
					c0.6,0,1,0.4,1,1v23H2V5z M25.2,40h-6.3c0.1-0.3,0.2-0.6,0.2-1v-3h6v3C25,39.4,25.1,39.7,25.2,40z M42,33c0,0.6-0.4,1-1,1H26h-8
					H3c-0.6,0-1-0.4-1-1v-3h40V33z"/>
			</g>
			<g>
				<path class="st53" d="M25,39v-2v-1h-1.2H19v1h3.8c0.6,0,1,0.4,1,1v1c0,0.4,0.1,0.7,0.2,1h1.2C25.1,39.7,25,39.4,25,39z"/>
			</g>
		</g>
		<g>
			<circle class="st1" cx="22" cy="32" r="1"/>
		</g>
		<g>
			<polygon class="st28" points="16,4 19,4 2,21 2,18 			"/>
		</g>
		<g>
			<path class="st28" d="M3,4h11L2,16V5C2,4.4,2.4,4,3,4z"/>
		</g>
		<g>
			<g>
				<path class="st1" d="M9,12.5C9,12.2,9.2,12,9.5,12h5c0.3,0,0.5,0.2,0.5,0.5S14.8,13,14.5,13h-5C9.2,13,9,12.8,9,12.5z"/>
			</g>
		</g>
		<g>
			<g>
				<path class="st1" d="M19,24.5c0-0.3,0.2-0.5,0.5-0.5h5c0.3,0,0.5,0.2,0.5,0.5S24.8,25,24.5,25h-5C19.2,25,19,24.8,19,24.5z"/>
			</g>
		</g>
		<g>
			<g>
				<path class="st1" d="M14,15.5c0-0.3,0.2-0.5,0.5-0.5h5c0.3,0,0.5,0.2,0.5,0.5S19.8,16,19.5,16h-5C14.2,16,14,15.8,14,15.5z"/>
			</g>
		</g>
		<g>
			<g>
				<path class="st1" d="M9,20.5C9,20.2,9.2,20,9.5,20h6c0.3,0,0.5,0.2,0.5,0.5S15.8,21,15.5,21h-6C9.2,21,9,20.8,9,20.5z"/>
			</g>
		</g>
		<g>
			<g>
				<path class="st1" d="M18,8.5C18,8.2,18.2,8,18.5,8h2C20.8,8,21,8.2,21,8.5S20.8,9,20.5,9h-2C18.2,9,18,8.8,18,8.5z"/>
			</g>
		</g>
		<g>
			<g>
				<path class="st1" d="M5,11.5C5,11.2,5.2,11,5.5,11h2C7.8,11,8,11.2,8,11.5S7.8,12,7.5,12h-2C5.2,12,5,11.8,5,11.5z"/>
			</g>
		</g>
		<path class="st1" d="M26.5,5C24.6,5,23,6.6,23,8.5V13h-3.2c-0.4,0-0.8-0.2-1.1-0.4l-3.8-3.8C14.5,8.3,13.8,8,13.2,8h-2.3
			c-0.2-0.6-0.8-1-1.4-1C8.7,7,8,7.7,8,8.5S8.7,10,9.5,10c0.7,0,1.2-0.4,1.4-1h2.3c0.4,0,0.8,0.2,1.1,0.4l3.8,3.8
			c0.5,0.5,1.1,0.7,1.8,0.7H23v3H7.9c-0.2-0.6-0.8-1-1.4-1C5.7,16,5,16.7,5,17.5S5.7,19,6.5,19c0.7,0,1.2-0.4,1.4-1H23v2h-3.2
			c-0.7,0-1.3,0.3-1.8,0.7l-2.8,2.8c-0.3,0.3-0.7,0.4-1.1,0.4H9.9c-0.2-0.6-0.8-1-1.4-1C7.7,23,7,23.7,7,24.5S7.7,26,8.5,26
			c0.7,0,1.2-0.4,1.4-1h4.3c0.7,0,1.3-0.3,1.8-0.7l2.8-2.8c0.3-0.3,0.7-0.4,1.1-0.4H23v2.5c0,1.9,1.6,3.5,3.5,3.5s3.5-1.6,3.5-3.5
			v-15C30,6.6,28.4,5,26.5,5z M9.5,9C9.2,9,9,8.8,9,8.5S9.2,8,9.5,8S10,8.2,10,8.5S9.8,9,9.5,9z M6.5,18C6.2,18,6,17.8,6,17.5
			S6.2,17,6.5,17S7,17.2,7,17.5S6.8,18,6.5,18z M8.5,25C8.2,25,8,24.8,8,24.5S8.2,24,8.5,24S9,24.2,9,24.5S8.8,25,8.5,25z"/>
		<g>
			<g>
				<path class="st1" d="M5,21.5C5,21.2,5.2,21,5.5,21h1C6.8,21,7,21.2,7,21.5S6.8,22,6.5,22h-1C5.2,22,5,21.8,5,21.5z"/>
			</g>
		</g>
		<g>
			<g>
				<path class="st0" d="M30,7c-2.3,0-4.4,0.9-6,2.3v13.4c1.6,1.4,3.7,2.3,6,2.3c5,0,9-4,9-9C39,11,35,7,30,7z"/>
				<path class="st1" d="M30,26c-2.5,0-4.8-0.9-6.7-2.6C23.1,23.2,23,23,23,22.7V9.3c0-0.3,0.1-0.6,0.3-0.7C25.2,6.9,27.5,6,30,6
					c5.5,0,10,4.5,10,10S35.5,26,30,26z M25,22.2c1.4,1.1,3.2,1.8,5,1.8c4.4,0,8-3.6,8-8s-3.6-8-8-8c-1.8,0-3.6,0.6-5,1.8V22.2z"/>
			</g>
			<g>
				<path class="st15" d="M30,24c4.4,0,8-3.6,8-8c0-0.6-0.1-1.3-0.2-1.9l-9.6,9.6C28.7,23.9,29.4,24,30,24z"/>
			</g>
			<g>
				<path class="st15" d="M32.3,8.4L25,15.7v6.5c0.2,0.2,0.5,0.4,0.7,0.5l11-11C35.7,10.1,34.2,8.9,32.3,8.4z"/>
			</g>
			<path class="st1" d="M33.6,15.5C33.8,15,34,14.5,34,14c0-1.7-1.3-3-3-3c0-0.6-0.4-1-1-1s-1,0.4-1,1h-2c-0.6,0-1,0.4-1,1
				s0.4,1,1,1v6c-0.6,0-1,0.4-1,1s0.4,1,1,1h2c0,0.6,0.4,1,1,1s1-0.4,1-1h1c1.7,0,3-1.3,3-3C35,16.9,34.4,16,33.6,15.5z M31,13
				c0.6,0,1,0.4,1,1s-0.4,1-1,1h-2v-2H31z M32,19h-3v-2h3c0.6,0,1,0.4,1,1S32.6,19,32,19z"/>
		</g>
	</g>
</g>
<g id="anonymous">
</g>
</svg>
