<?xml version="1.0" encoding="utf-8"?>
<!-- Generator: Adobe Illustrator 21.1.0, SVG Export Plug-In . SVG Version: 6.00 Build 0)  -->
<svg version="1.1" xmlns="http://www.w3.org/2000/svg" xmlns:xlink="http://www.w3.org/1999/xlink" x="0px" y="0px"
	 viewBox="0 0 44 44" style="enable-background:new 0 0 44 44;" xml:space="preserve">
<style type="text/css">
	.st0{fill:#F5B445;}
	.st1{fill:#0B3A5B;}
	.st2{fill:#FFCA5D;}
	.st3{fill:#B0C4D8;}
	.st4{fill:#7B9FBE;}
	.st5{fill:#F7964B;}
	.st6{fill:#F47423;}
	.st7{fill:#FFE37C;}
	.st8{fill:#F8A247;}
	.st9{fill:#676A75;}
	.st10{fill:#0F395A;}
	.st11{fill:#585B67;}
	.st12{fill:#EAA239;}
	.st13{fill:#DA8C36;}
	.st14{fill:#C87629;}
	.st15{fill:#FFCB5B;}
	.st16{fill:#D3E2EB;}
	.st17{fill:#FFFFFF;}
	.st18{fill:#F5AE44;}
	.st19{fill:#D5E3EF;}
	.st20{fill:#0E395A;}
	.st21{fill:#C97629;}
	.st22{fill:#C0CED7;}
	.st23{fill:#8CA6BC;}
	.st24{fill:#4C9CD6;}
	.st25{fill:#3689C9;}
	.st26{fill:#FFE27A;}
	.st27{fill:#90CEF1;}
	.st28{fill:#ABE1FA;}
	.st29{fill:#70B7E5;}
	.st30{fill:#71747C;}
	.st31{fill:#F6B545;}
	.st32{fill:#E99C35;}
	.st33{fill:#3BB54A;}
	.st34{fill:#89C763;}
	.st35{fill:#AED477;}
	.st36{fill:#B0C4D9;}
	.st37{fill:#C9D5E3;}
	.st38{fill:#D3E2EB;stroke:#0B3A5B;stroke-width:2;stroke-linecap:round;stroke-linejoin:round;stroke-miterlimit:10;}
	.st39{fill:#99B5CD;}
	.st40{fill:#ECF0F9;}
	.st41{fill:#82A7C4;}
	.st42{fill:#F26A56;}
	.st43{fill:#FFD167;}
	.st44{fill:#2B5367;}
	.st45{fill:#FFCB5D;}
	.st46{fill:#F04D4E;}
	.st47{fill:#D5E3EE;}
	.st48{fill:#EDF1F9;}
	.st49{fill:#577280;}
	.st50{fill:#F16B56;}
	.st51{fill:#DCE4EE;}
	.st52{fill:#ECEFF9;}
	.st53{fill:#CEDAE6;}
	.st54{fill:#5F7B93;}
	.st55{fill:#EFC9AE;}
	.st56{fill:#E2B698;}
	.st57{fill:#4A6B84;}
	.st58{fill:#7592A5;}
</style>
<g id="trolley">
</g>
<g id="wallet">
</g>
<g id="shield">
</g>
<g id="pickaxe">
	<g>
		<g>
			<g>
				<path class="st13" d="M40.9,38L40.9,38c1.2,0,2.1-0.9,2.1-2.1l0,0c0-0.6-0.2-1.1-0.6-1.5L15.6,7.6C15.2,7.2,14.7,7,14.1,7h0
					C12.9,7,12,7.9,12,9.1v0c0,0.6,0.2,1.1,0.6,1.5l26.8,26.8C39.8,37.8,40.3,38,40.9,38z"/>
				<path class="st1" d="M40.9,39c-0.8,0-1.6-0.3-2.2-0.9L11.9,11.3C11.3,10.7,11,10,11,9.1C11,7.4,12.4,6,14.1,6
					c0.8,0,1.6,0.3,2.2,0.9l26.8,26.8c0.6,0.6,0.9,1.4,0.9,2.2C44,37.6,42.6,39,40.9,39z M14.1,8C13.5,8,13,8.5,13,9.1
					c0,0.3,0.1,0.6,0.3,0.8l26.8,26.8c0.2,0.2,0.5,0.3,0.8,0.3c0.6,0,1.1-0.5,1.1-1.1c0-0.3-0.1-0.6-0.3-0.8L14.9,8.3
					C14.7,8.1,14.4,8,14.1,8z"/>
			</g>
			<g>
				<path class="st21" d="M15,10l6,6l0.8-0.8l1,1l-0.1,0.1c-0.4,0.4-0.4,1,0,1.4l17.6,17.6c0.4,0.4,1,0.4,1.4,0l0.1-0.1
					c0.1,0.2,0.2,0.4,0.2,0.7c0,0.3-0.1,0.6-0.3,0.8S41.2,37,40.9,37c-0.3,0-0.6-0.1-0.8-0.3L21.2,17.8l-1-1l-6.9-6.9
					C13.1,9.7,14,9,15,10z"/>
			</g>
			<g>
				<path class="st16" d="M31.8,2.4c-4.9,1.5-9.4,3.9-13.2,7.2L21,12l2.6-2.6c2.3-2.3,4.7-4.3,7.4-6L33,2L31.8,2.4z"/>
				<path class="st16" d="M14.6,13.6c-3.3,3.9-5.8,8.3-7.2,13.2L7,28l1.3-2c1.8-2.7,3.8-5.1,6-7.4L17,16L14.6,13.6z"/>
			</g>
			<g>
				
					<rect x="15.4" y="10.1" transform="matrix(0.7071 -0.7071 0.7071 0.7071 -4.0239 16.7855)" class="st16" width="5.7" height="6.4"/>
				<path class="st1" d="M33.9,1.6C33.7,1.2,33.4,1,33,1c-0.1,0-0.2,0-0.3,0l-1.2,0.4c-4.7,1.4-9.1,3.8-12.9,6.9
					c-0.4-0.3-1-0.3-1.4,0l-4,4c-0.4,0.4-0.4,1,0,1.4c-3.1,3.8-5.4,8.2-6.9,12.9L6,27.7c-0.1,0.5,0.1,1,0.5,1.2C6.7,29,6.9,29,7,29
					c0.3,0,0.6-0.2,0.8-0.4l1.3-2c1.7-2.6,3.7-5,5.9-7.2l1.9-1.9l0.8,0.8c0.2,0.2,0.5,0.3,0.7,0.3s0.5-0.1,0.7-0.3l4-4
					c0.4-0.4,0.4-1,0-1.4L22.4,12l1.9-1.9c2.2-2.2,4.6-4.2,7.2-5.9l2-1.3C34,2.6,34.1,2,33.9,1.6z M13.7,17.9c-1,1-2,2.1-3,3.3
					c1.1-2.2,2.4-4.2,4-6.1l0.9,0.9L13.7,17.9z M18.5,16.1L15.4,13l2.6-2.6l3.1,3.1L18.5,16.1z M22.9,8.7L21,10.6l-0.9-0.9
					c1.9-1.5,3.9-2.9,6.1-4C25,6.6,23.9,7.6,22.9,8.7z"/>
			</g>
			<g>
				
					<rect x="16.7" y="11.9" transform="matrix(0.7071 -0.7071 0.7071 0.7071 -4.8168 16.4571)" class="st3" width="1.4" height="4.4"/>
			</g>
		</g>
		<path class="st22" d="M3,40v-9.2c0-0.5,0.2-1,0.6-1.4l1.8-1.8C5.8,27.2,6.3,27,6.8,27h9.3c0.5,0,1,0.2,1.4,0.6l1.8,1.8
			c0.4,0.4,0.6,0.9,0.6,1.4V42H5C3.9,42,3,41.1,3,40z"/>
		<path class="st1" d="M20.1,28.7l-1.8-1.8C17.7,26.3,17,26,16.2,26H6.8c-0.8,0-1.6,0.3-2.1,0.9l-1.8,1.8C2.3,29.3,2,30,2,30.8V40
			c0,0.4,0.1,0.7,0.2,1H1c-0.6,0-1,0.4-1,1s0.4,1,1,1h19c0.6,0,1-0.4,1-1V30.8C21,30,20.7,29.3,20.1,28.7z M19,41H5
			c-0.6,0-1-0.4-1-1v-9.2c0-0.3,0.1-0.5,0.3-0.7l1.8-1.8C6.3,28.1,6.6,28,6.8,28H8v0.5V29v2.5C8,31.8,8.2,32,8.5,32S9,31.8,9,31.5
			V29v-0.5V28h7.2c0.3,0,0.5,0.1,0.7,0.3l1.8,1.8c0.2,0.2,0.3,0.4,0.3,0.7V41z"/>
		<g>
			<path class="st23" d="M18.7,30.1l-1.8-1.8c-0.2-0.2-0.4-0.3-0.7-0.3h-2c0.3,0,0.5,0.1,0.7,0.3l1.8,1.8c0.2,0.2,0.3,0.4,0.3,0.7
				V41h2V30.8C19,30.6,18.9,30.3,18.7,30.1z"/>
		</g>
		<g>
			<path class="st23" d="M5,41h14v-1H4C4,40.6,4.4,41,5,41z"/>
		</g>
		<path class="st22" d="M7,42l0.8-3.2c0.1-0.5,0.5-1,0.9-1.2l3.6-2.1c0.5-0.3,0.8-0.7,0.9-1.2l0.4-1.7c0.2-0.9,1-1.5,1.9-1.5h8.8
			c0.4,0,0.8,0.1,1.1,0.3l1.6,1.1c0.6,0.4,0.9,1,0.9,1.7v0.7c0,0.8,0.4,1.5,1.1,1.8l1.8,0.9c0.7,0.3,1.1,1,1.1,1.8V42H7z"/>
		<g>
			<path class="st23" d="M30.4,38.3l-1.8-0.9c-1-0.5-1.7-1.5-1.7-2.7v-0.7c0-0.3-0.2-0.6-0.4-0.8l-1.6-1.1c-0.2-0.1-0.4-0.2-0.6-0.2
				h-1.3c0.2,0,0.4,0.1,0.6,0.2l1.6,1.1c0.3,0.2,0.4,0.5,0.4,0.8v0.7c0,1.1,0.6,2.2,1.7,2.7l1.8,0.9c0.3,0.2,0.6,0.5,0.6,0.9V41H31
				v-1.8C31,38.9,30.8,38.5,30.4,38.3z"/>
		</g>
		<g>
			<path class="st1" d="M4,25H1c-0.6,0-1-0.4-1-1s0.4-1,1-1h3c0.6,0,1,0.4,1,1S4.6,25,4,25z"/>
		</g>
		<g>
			<path class="st1" d="M6,22c-0.3,0-0.6-0.2-0.8-0.4l-2-3c-0.3-0.5-0.2-1.1,0.3-1.4c0.5-0.3,1.1-0.2,1.4,0.3l2,3
				c0.3,0.5,0.2,1.1-0.3,1.4C6.4,21.9,6.2,22,6,22z"/>
		</g>
		<g>
			<path class="st1" d="M14,25c-0.4,0-0.7-0.2-0.9-0.6c-0.2-0.5,0-1.1,0.4-1.3l2-1c0.5-0.2,1.1,0,1.3,0.4c0.2,0.5,0,1.1-0.4,1.3
				l-2,1C14.3,25,14.2,25,14,25z"/>
		</g>
		<g>
			<circle class="st1" cx="17.5" cy="36.5" r="0.5"/>
		</g>
		<g>
			<circle class="st1" cx="20.5" cy="33.5" r="0.5"/>
		</g>
		<g>
			<circle class="st1" cx="6.5" cy="31.5" r="0.5"/>
		</g>
		<g>
			<circle class="st1" cx="24.5" cy="38.5" r="0.5"/>
		</g>
		<g>
			<circle class="st1" cx="12.5" cy="38.5" r="0.5"/>
		</g>
		<g>
			<circle class="st1" cx="23.5" cy="35.5" r="0.5"/>
		</g>
		<g>
			<circle class="st1" cx="8.5" cy="33.5" r="0.5"/>
		</g>
		<g>
			<circle class="st1" cx="11.5" cy="30.5" r="0.5"/>
		</g>
		<g>
			<circle class="st1" cx="5.5" cy="36.5" r="0.5"/>
		</g>
		<path class="st1" d="M35,41h-2v-1.8c0-1.1-0.6-2.2-1.7-2.7l-1.8-0.9c-0.3-0.2-0.6-0.5-0.6-0.9v-0.7c0-1-0.5-1.9-1.3-2.5l-1.6-1.1
			C25.6,30.2,25,30,24.4,30h-8.8c-1.4,0-2.6,0.9-2.9,2.3L12.2,34c-0.1,0.3-0.2,0.5-0.5,0.6l-3.6,2.1c-0.7,0.4-1.2,1.1-1.4,1.8
			L6,41.8c-0.1,0.3,0,0.6,0.2,0.9S6.7,43,7,43h25h3c0.6,0,1-0.4,1-1S35.6,41,35,41z M21.5,37c-0.3,0-0.5,0.2-0.5,0.5V40v0.5V41H8.3
			l0.5-2c0.1-0.3,0.2-0.5,0.5-0.6l3.6-2.1c0.7-0.4,1.2-1.1,1.4-1.8l0.4-1.7c0.1-0.4,0.5-0.8,1-0.8H17v0.5V33v1.5
			c0,0.3,0.2,0.5,0.5,0.5s0.5-0.2,0.5-0.5V33v-0.5V32h6.4c0.2,0,0.4,0.1,0.6,0.2l1.6,1.1c0.3,0.2,0.4,0.5,0.4,0.8v0.7
			c0,1.1,0.6,2.2,1.7,2.7l1.8,0.9c0.3,0.2,0.6,0.5,0.6,0.9V41h-9v-0.5V40v-2.5C22,37.2,21.8,37,21.5,37z"/>
		<g>
			<g>
				<path class="st1" d="M15.5,40c-0.3,0-0.5-0.2-0.5-0.5v-1c0-0.3,0.2-0.5,0.5-0.5s0.5,0.2,0.5,0.5v1C16,39.8,15.8,40,15.5,40z"/>
			</g>
		</g>
	</g>
</g>
<g id="lock">
</g>
<g id="key">
</g>
<g id="mobile">
</g>
<g id="coins">
</g>
<g id="trade">
</g>
<g id="blockchain">
</g>
<g id="exchange">
</g>
<g id="graph">
</g>
<g id="video_x5F_card">
</g>
<g id="bitcoin">
</g>
<g id="code">
</g>
<g id="contract">
</g>
<g id="network">
</g>
<g id="cloud">
</g>
<g id="pc">
</g>
<g id="anonymous">
</g>
</svg>
