<?xml version="1.0" encoding="utf-8"?>
<!-- Generator: Adobe Illustrator 21.1.0, SVG Export Plug-In . SVG Version: 6.00 Build 0)  -->
<svg version="1.1" xmlns="http://www.w3.org/2000/svg" xmlns:xlink="http://www.w3.org/1999/xlink" x="0px" y="0px"
	 viewBox="0 0 44 44" style="enable-background:new 0 0 44 44;" xml:space="preserve">
<style type="text/css">
	.st0{fill:#F5B445;}
	.st1{fill:#0B3A5B;}
	.st2{fill:#FFCA5D;}
	.st3{fill:#B0C4D8;}
	.st4{fill:#7B9FBE;}
	.st5{fill:#F7964B;}
	.st6{fill:#F47423;}
	.st7{fill:#FFE37C;}
	.st8{fill:#F8A247;}
	.st9{fill:#676A75;}
	.st10{fill:#0F395A;}
	.st11{fill:#585B67;}
	.st12{fill:#EAA239;}
	.st13{fill:#DA8C36;}
	.st14{fill:#C87629;}
	.st15{fill:#FFCB5B;}
	.st16{fill:#D3E2EB;}
	.st17{fill:#FFFFFF;}
	.st18{fill:#F5AE44;}
	.st19{fill:#D5E3EF;}
	.st20{fill:#0E395A;}
	.st21{fill:#C97629;}
	.st22{fill:#C0CED7;}
	.st23{fill:#8CA6BC;}
	.st24{fill:#4C9CD6;}
	.st25{fill:#3689C9;}
	.st26{fill:#FFE27A;}
	.st27{fill:#90CEF1;}
	.st28{fill:#ABE1FA;}
	.st29{fill:#70B7E5;}
	.st30{fill:#71747C;}
	.st31{fill:#F6B545;}
	.st32{fill:#E99C35;}
	.st33{fill:#3BB54A;}
	.st34{fill:#89C763;}
	.st35{fill:#AED477;}
	.st36{fill:#B0C4D9;}
	.st37{fill:#C9D5E3;}
	.st38{fill:#D3E2EB;stroke:#0B3A5B;stroke-width:2;stroke-linecap:round;stroke-linejoin:round;stroke-miterlimit:10;}
	.st39{fill:#99B5CD;}
	.st40{fill:#ECF0F9;}
	.st41{fill:#82A7C4;}
	.st42{fill:#F26A56;}
	.st43{fill:#FFD167;}
	.st44{fill:#2B5367;}
	.st45{fill:#FFCB5D;}
	.st46{fill:#F04D4E;}
	.st47{fill:#D5E3EE;}
	.st48{fill:#EDF1F9;}
	.st49{fill:#577280;}
	.st50{fill:#F16B56;}
	.st51{fill:#DCE4EE;}
	.st52{fill:#ECEFF9;}
	.st53{fill:#CEDAE6;}
	.st54{fill:#5F7B93;}
	.st55{fill:#EFC9AE;}
	.st56{fill:#E2B698;}
	.st57{fill:#4A6B84;}
	.st58{fill:#7592A5;}
</style>
<g id="trolley">
</g>
<g id="wallet">
</g>
<g id="shield">
	<g>
		<g>
			<path class="st15" d="M37.1,33.7L22,43L6.9,33.7c-1.2-0.7-1.9-2-1.9-3.4V4l4.9-1.4c4-1.1,8-1.6,12.2-1.6h0
				c4.3,0,8.5,0.6,12.6,1.8L39,4v26.3C39,31.7,38.3,32.9,37.1,33.7z"/>
			<path class="st1" d="M22,44c-0.2,0-0.4,0-0.5-0.1L6.4,34.5C4.9,33.6,4,32,4,30.3V4c0-0.5,0.3-0.8,0.7-1l4.9-1.4
				c8.2-2.3,17.1-2.2,25.3,0.1L39.3,3C39.7,3.2,40,3.6,40,4v26.3c0,1.7-0.9,3.3-2.4,4.3l-15.1,9.3C22.4,43.9,22.2,44,22,44z M6,4.8
				v25.5c0,1,0.5,2,1.4,2.6l14.6,9l14.6-9c0,0,0,0,0,0c0.9-0.6,1.4-1.5,1.4-2.6V4.8l-3.6-1c-7.9-2.2-16.3-2.3-24.2-0.1L6,4.8z"/>
		</g>
		<g>
			<path class="st16" d="M22,37.6c-0.1,0-0.2,0-0.3-0.1l-12-7.4c-0.1-0.1-0.2-0.3-0.2-0.4V7.8c0-0.2,0.2-0.4,0.4-0.5L11.1,7
				c3.6-1,7.3-1.5,11-1.5c3.8,0,7.7,0.5,11.3,1.6l0.7,0.2c0.2,0.1,0.4,0.3,0.4,0.5v21.9c0,0.2-0.1,0.3-0.2,0.4l-12,7.4
				C22.2,37.6,22.1,37.6,22,37.6z"/>
		</g>
		<g>
			<polygon class="st17" points="17.1,34.1 22,37.1 34,29.7 34,17.2 			"/>
		</g>
		<g>
			<path class="st17" d="M15,32.8l19-19v-6l-0.7-0.2c-0.2-0.1-0.5-0.1-0.7-0.2L10.2,29.8L15,32.8z"/>
		</g>
		<g>
			<path class="st18" d="M38,4.8c-0.6,0.8-1,1.8-1,2.8v21.8c0,1-0.5,2-1.4,2.6c0,0,0,0,0,0l-10.8,6.9c-1.2,0.7-2.1,1.7-2.8,2.9l0,0
				l14.6-9c0,0,0,0,0,0c0.9-0.5,1.4-1.5,1.4-2.6V4.8L38,4.8z"/>
		</g>
		<g>
			<path class="st3" d="M12.1,8.4L12.1,8.4c0.1-0.1,0.3-0.1,0.4-0.2C19.5,6.4,27,6.4,34,8.4V7.8l-0.7-0.2c-7.2-2.1-14.8-2.1-22-0.1
				L10,7.8v21.9l1,0.6V10.2C11,9.5,11.4,8.8,12.1,8.4z"/>
		</g>
		<g>
			<g>
				<polygon class="st19" points="10.2,29.8 10.8,30.2 11,30.3 11,29 				"/>
			</g>
			<g>
				<path class="st19" d="M33.3,7.6c-0.2-0.1-0.5-0.1-0.7-0.2l-0.5,0.5c0.6,0.1,1.3,0.3,1.9,0.5V7.8L33.3,7.6z"/>
			</g>
		</g>
		<g>
			<path class="st1" d="M27.1,18.5c0.5-0.7,0.9-1.5,0.9-2.5c0-1.8-1.2-3.3-2.9-3.8c0,0,0,0-0.1,0C24,11.8,24,11.3,24,11v-1
				c0-0.6-0.4-1-1-1s-1,0.4-1,1v1c0,0.6-0.4,1-1,1s-1-0.4-1-1v-1c0-0.6-0.4-1-1-1s-1,0.4-1,1v1c0,0.6-0.4,1-1,1h-2h-1v2h1
				c0.6,0,1,0.4,1,1v10c0,0.6-0.4,1-1,1h-1v2h1h2c0.6,0,1,0.4,1,1v1c0,0.6,0.4,1,1,1s1-0.4,1-1v-1c0-0.6,0.4-1,1-1s1,0.4,1,1v1
				c0,0.6,0.4,1,1,1s1-0.4,1-1v-1c0-0.6,0.4-1,1-1c2.8,0,5-2.2,5-5C30,21,28.8,19.3,27.1,18.5z M22,14c1.1,0,2,0.9,2,2s-0.9,2-2,2
				h-2v-4H22z M20,26v-6h3c1.7,0,3,1.3,3,3s-1.3,3-3,3H20z"/>
		</g>
		<g>
			<g>
				<path class="st20" d="M31.5,22c-0.3,0-0.5-0.2-0.5-0.5v-5c0-0.3,0.2-0.5,0.5-0.5s0.5,0.2,0.5,0.5v5C32,21.8,31.8,22,31.5,22z"/>
			</g>
		</g>
		<g>
			<g>
				<path class="st20" d="M12.5,20c-0.3,0-0.5-0.2-0.5-0.5v-3c0-0.3,0.2-0.5,0.5-0.5s0.5,0.2,0.5,0.5v3C13,19.8,12.8,20,12.5,20z"/>
			</g>
		</g>
		<path class="st1" d="M34.3,6.8l-0.7-0.2C29.8,5.5,26,5,22.1,5C18.3,5,14.6,5.5,11,6.5L9.7,6.8C9.3,7,9,7.4,9,7.8v21.9
			c0,0.3,0.2,0.7,0.5,0.9l12,7.4c0.2,0.1,0.3,0.1,0.5,0.1c0.2,0,0.4,0,0.5-0.1l12-7.4c0.3-0.2,0.5-0.5,0.5-0.9V7.8
			C35,7.3,34.7,6.9,34.3,6.8z M34,29.7l-2,1.2v-5.4c0-0.3-0.2-0.5-0.5-0.5S31,25.2,31,25.5v6.1L27,34v-2.5c0-0.3-0.2-0.5-0.5-0.5
			S26,31.2,26,31.5v3.2l-4,2.5L17,34v-2.5c0-0.3-0.2-0.5-0.5-0.5S16,31.2,16,31.5v1.9l-3-1.9v-8.1c0-0.3-0.2-0.5-0.5-0.5
			S12,23.2,12,23.5v7.4l-2-1.2V7.8l1.3-0.3c0.2-0.1,0.5-0.1,0.7-0.2v6.2c0,0.3,0.2,0.5,0.5,0.5s0.5-0.2,0.5-0.5V7c3-0.7,6-1,9.1-1
			c1.3,0,2.6,0.1,3.9,0.2v2.3C26,8.8,26.2,9,26.5,9S27,8.8,27,8.5V6.3c1.3,0.2,2.7,0.4,4,0.7v6.5c0,0.3,0.2,0.5,0.5,0.5
			s0.5-0.2,0.5-0.5V7.2c0.4,0.1,0.9,0.2,1.3,0.3L34,7.8V29.7z"/>
	</g>
</g>
<g id="pickaxe">
</g>
<g id="lock">
</g>
<g id="key">
</g>
<g id="mobile">
</g>
<g id="coins">
</g>
<g id="trade">
</g>
<g id="blockchain">
</g>
<g id="exchange">
</g>
<g id="graph">
</g>
<g id="video_x5F_card">
</g>
<g id="bitcoin">
</g>
<g id="code">
</g>
<g id="contract">
</g>
<g id="network">
</g>
<g id="cloud">
</g>
<g id="pc">
</g>
<g id="anonymous">
</g>
</svg>
