<?xml version="1.0" encoding="utf-8"?>
<!-- Generator: Adobe Illustrator 21.1.0, SVG Export Plug-In . SVG Version: 6.00 Build 0)  -->
<svg version="1.1" xmlns="http://www.w3.org/2000/svg" xmlns:xlink="http://www.w3.org/1999/xlink" x="0px" y="0px"
	 viewBox="0 0 44 44" style="enable-background:new 0 0 44 44;" xml:space="preserve">
<style type="text/css">
	.st0{fill:#F5B445;}
	.st1{fill:#0B3A5B;}
	.st2{fill:#FFCA5D;}
	.st3{fill:#B0C4D8;}
	.st4{fill:#7B9FBE;}
	.st5{fill:#F7964B;}
	.st6{fill:#F47423;}
	.st7{fill:#FFE37C;}
	.st8{fill:#F8A247;}
	.st9{fill:#676A75;}
	.st10{fill:#0F395A;}
	.st11{fill:#585B67;}
	.st12{fill:#EAA239;}
	.st13{fill:#DA8C36;}
	.st14{fill:#C87629;}
	.st15{fill:#FFCB5B;}
	.st16{fill:#D3E2EB;}
	.st17{fill:#FFFFFF;}
	.st18{fill:#F5AE44;}
	.st19{fill:#D5E3EF;}
	.st20{fill:#0E395A;}
	.st21{fill:#C97629;}
	.st22{fill:#C0CED7;}
	.st23{fill:#8CA6BC;}
	.st24{fill:#4C9CD6;}
	.st25{fill:#3689C9;}
	.st26{fill:#FFE27A;}
	.st27{fill:#90CEF1;}
	.st28{fill:#ABE1FA;}
	.st29{fill:#70B7E5;}
	.st30{fill:#71747C;}
	.st31{fill:#F6B545;}
	.st32{fill:#E99C35;}
	.st33{fill:#3BB54A;}
	.st34{fill:#89C763;}
	.st35{fill:#AED477;}
	.st36{fill:#B0C4D9;}
	.st37{fill:#C9D5E3;}
	.st38{fill:#D3E2EB;stroke:#0B3A5B;stroke-width:2;stroke-linecap:round;stroke-linejoin:round;stroke-miterlimit:10;}
	.st39{fill:#99B5CD;}
	.st40{fill:#ECF0F9;}
	.st41{fill:#82A7C4;}
	.st42{fill:#F26A56;}
	.st43{fill:#FFD167;}
	.st44{fill:#2B5367;}
	.st45{fill:#FFCB5D;}
	.st46{fill:#F04D4E;}
	.st47{fill:#D5E3EE;}
	.st48{fill:#EDF1F9;}
	.st49{fill:#577280;}
	.st50{fill:#F16B56;}
	.st51{fill:#DCE4EE;}
	.st52{fill:#ECEFF9;}
	.st53{fill:#CEDAE6;}
	.st54{fill:#5F7B93;}
	.st55{fill:#EFC9AE;}
	.st56{fill:#E2B698;}
	.st57{fill:#4A6B84;}
	.st58{fill:#7592A5;}
</style>
<g id="trolley">
</g>
<g id="wallet">
</g>
<g id="shield">
</g>
<g id="pickaxe">
</g>
<g id="lock">
</g>
<g id="key">
</g>
<g id="mobile">
</g>
<g id="coins">
</g>
<g id="trade">
	<g>
		<g>
			<g>
				<g>
					<g>
						<circle class="st33" cx="22" cy="13" r="12"/>
						<path class="st1" d="M22,26c-7.2,0-13-5.8-13-13S14.8,0,22,0s13,5.8,13,13S29.2,26,22,26z M22,2c-6.1,0-11,4.9-11,11
							s4.9,11,11,11s11-4.9,11-11S28.1,2,22,2z"/>
					</g>
				</g>
			</g>
			<g>
				<path class="st34" d="M15.6,21.9L30.9,6.6c-1.1-1.5-2.6-2.7-4.3-3.5L12,17.7C12.8,19.4,14.1,20.8,15.6,21.9z"/>
			</g>
			<g>
				<path class="st34" d="M22,24c6.1,0,11-4.9,11-11c0-1.5-0.3-2.9-0.8-4.2L17.8,23.2C19.1,23.7,20.5,24,22,24z"/>
			</g>
			<g>
				<g>
					<circle class="st34" cx="22" cy="13" r="8"/>
				</g>
				<g>
					<g>
						<path class="st1" d="M22,5c4.4,0,8,3.6,8,8s-3.6,8-8,8s-8-3.6-8-8S17.6,5,22,5 M22,4c-5,0-9,4-9,9s4,9,9,9s9-4,9-9S27,4,22,4
							L22,4z"/>
					</g>
				</g>
			</g>
			<g>
				<path class="st33" d="M15,14c0-4.4,3.6-8,8-8c2,0,3.7,0.7,5.1,1.9C26.7,6.1,24.5,5,22,5c-4.4,0-8,3.6-8,8c0,2.5,1.1,4.7,2.9,6.1
					C15.7,17.7,15,16,15,14z"/>
			</g>
			<g>
				<path class="st35" d="M24.3,5.4l-10,10c0.6,1.8,1.8,3.4,3.4,4.4l11-11C27.7,7.1,26.2,5.9,24.3,5.4z"/>
			</g>
			<g>
				<g>
					<path class="st34" d="M23.7,6c1.7,0.1,3.2,0.8,4.5,1.8c-1-1.2-2.3-2-3.8-2.5L23.7,6z"/>
				</g>
				<g>
					<path class="st34" d="M16.9,19.1c-1-1.2-1.7-2.8-1.8-4.5l-0.7,0.7C14.8,16.8,15.7,18.2,16.9,19.1z"/>
				</g>
			</g>
			<g>
				<path class="st35" d="M22,21c4.4,0,8-3.6,8-8c0-0.6-0.1-1.3-0.2-1.9l-9.6,9.6C20.7,20.9,21.4,21,22,21z"/>
			</g>
			<path class="st1" d="M23,12h-2c-0.6,0-1-0.4-1-1s0.4-1,1-1h3c0.6,0,1-0.4,1-1s-0.4-1-1-1h-1c0-0.6-0.4-1-1-1s-1,0.4-1,1
				c-1.7,0-3,1.3-3,3s1.3,3,3,3h2c0.6,0,1,0.4,1,1s-0.4,1-1,1h-3c-0.6,0-1,0.4-1,1s0.4,1,1,1h1c0,0.6,0.4,1,1,1s1-0.4,1-1
				c1.7,0,3-1.3,3-3S24.7,12,23,12z"/>
		</g>
		<g>
			<g>
				<g>
					<g>
						<circle class="st0" cx="13" cy="31" r="12"/>
						<path class="st1" d="M13,44C5.8,44,0,38.2,0,31s5.8-13,13-13s13,5.8,13,13S20.2,44,13,44z M13,20C6.9,20,2,24.9,2,31
							s4.9,11,11,11s11-4.9,11-11S19.1,20,13,20z"/>
					</g>
				</g>
			</g>
			<g>
				<path class="st15" d="M6.6,39.9l15.3-15.3c-1.1-1.5-2.6-2.7-4.3-3.5L3,35.7C3.8,37.4,5.1,38.8,6.6,39.9z"/>
			</g>
			<g>
				<path class="st15" d="M13,42c6.1,0,11-4.9,11-11c0-1.5-0.3-2.9-0.8-4.2L8.8,41.2C10.1,41.7,11.5,42,13,42z"/>
			</g>
			<g>
				<g>
					<circle class="st15" cx="13" cy="31" r="8"/>
				</g>
				<g>
					<path class="st1" d="M13,23c4.4,0,8,3.6,8,8s-3.6,8-8,8s-8-3.6-8-8S8.6,23,13,23 M13,22c-5,0-9,4-9,9s4,9,9,9s9-4,9-9
						S18,22,13,22L13,22z"/>
				</g>
			</g>
			<g>
				<path class="st31" d="M6,32c0-4.4,3.6-8,8-8c2,0,3.7,0.7,5.1,1.9C17.7,24.1,15.5,23,13,23c-4.4,0-8,3.6-8,8
					c0,2.5,1.1,4.7,2.9,6.1C6.7,35.7,6,34,6,32z"/>
			</g>
			<g>
				<path class="st26" d="M15.3,23.4l-10,10c0.6,1.8,1.8,3.4,3.4,4.4l11-11C18.7,25.1,17.2,23.9,15.3,23.4z"/>
			</g>
			<g>
				<g>
					<path class="st15" d="M14.7,24c1.7,0.1,3.2,0.8,4.5,1.8c-1-1.2-2.3-2-3.8-2.5L14.7,24z"/>
				</g>
				<g>
					<path class="st15" d="M7.9,37.1c-1-1.2-1.7-2.8-1.8-4.5l-0.7,0.7C5.8,34.8,6.7,36.2,7.9,37.1z"/>
				</g>
			</g>
			<g>
				<path class="st26" d="M13,39c4.4,0,8-3.6,8-8c0-0.6-0.1-1.3-0.2-1.9l-9.6,9.6C11.7,38.9,12.4,39,13,39z"/>
			</g>
			<path class="st1" d="M16.6,30.5C16.8,30,17,29.5,17,29c0-1.7-1.3-3-3-3c0-0.6-0.4-1-1-1s-1,0.4-1,1h-2c-0.6,0-1,0.4-1,1
				s0.4,1,1,1v6c-0.6,0-1,0.4-1,1s0.4,1,1,1h2c0,0.6,0.4,1,1,1s1-0.4,1-1h1c1.7,0,3-1.3,3-3C18,31.9,17.4,31,16.6,30.5z M14,28
				c0.6,0,1,0.4,1,1s-0.4,1-1,1h-2v-2H14z M15,34h-3v-2h3c0.6,0,1,0.4,1,1S15.6,34,15,34z"/>
		</g>
		<g>
			<g>
				<g>
					<g>
						<circle class="st36" cx="31" cy="28" r="12"/>
						<path class="st1" d="M31,41c-7.2,0-13-5.8-13-13s5.8-13,13-13s13,5.8,13,13S38.2,41,31,41z M31,17c-6.1,0-11,4.9-11,11
							s4.9,11,11,11s11-4.9,11-11S37.1,17,31,17z"/>
					</g>
				</g>
			</g>
			<g>
				<path class="st19" d="M24.6,36.9l15.3-15.3c-1.1-1.5-2.6-2.7-4.3-3.5L21,32.7C21.8,34.4,23.1,35.8,24.6,36.9z"/>
			</g>
			<g>
				<path class="st19" d="M31,39c6.1,0,11-4.9,11-11c0-1.5-0.3-2.9-0.8-4.2L26.8,38.2C28.1,38.7,29.5,39,31,39z"/>
			</g>
			<g>
				<g>
					<circle class="st19" cx="31" cy="28" r="8"/>
				</g>
				<g>
					<g>
						<path class="st1" d="M31,20c4.4,0,8,3.6,8,8s-3.6,8-8,8s-8-3.6-8-8S26.6,20,31,20 M31,19c-5,0-9,4-9,9s4,9,9,9s9-4,9-9
							S36,19,31,19L31,19z"/>
					</g>
				</g>
			</g>
			<g>
				<path class="st36" d="M24,29c0-4.4,3.6-8,8-8c2,0,3.7,0.7,5.1,1.9C35.7,21.1,33.5,20,31,20c-4.4,0-8,3.6-8,8
					c0,2.5,1.1,4.7,2.9,6.1C24.7,32.7,24,31,24,29z"/>
			</g>
			<g>
				<path class="st17" d="M33.3,20.4l-10,10c0.6,1.8,1.8,3.4,3.4,4.4l11-11C36.7,22.1,35.2,20.9,33.3,20.4z"/>
			</g>
			<g>
				<g>
					<path class="st37" d="M32.7,21c1.7,0.1,3.2,0.8,4.5,1.8c-1-1.2-2.3-2-3.8-2.5L32.7,21z"/>
				</g>
				<g>
					<path class="st37" d="M25.9,34.1c-1-1.2-1.7-2.8-1.8-4.5l-0.7,0.7C23.8,31.8,24.7,33.2,25.9,34.1z"/>
				</g>
			</g>
			<g>
				<path class="st17" d="M31,36c4.4,0,8-3.6,8-8c0-0.6-0.1-1.3-0.2-1.9l-9.6,9.6C29.7,35.9,30.4,36,31,36z"/>
			</g>
			<g>
				<polygon class="st1" points="35,27 31,29 27,27 31,22 				"/>
			</g>
			<g>
				<polygon class="st1" points="27,28 31,30 35,28 31,34 				"/>
			</g>
		</g>
	</g>
</g>
<g id="blockchain">
</g>
<g id="exchange">
</g>
<g id="graph">
</g>
<g id="video_x5F_card">
</g>
<g id="bitcoin">
</g>
<g id="code">
</g>
<g id="contract">
</g>
<g id="network">
</g>
<g id="cloud">
</g>
<g id="pc">
</g>
<g id="anonymous">
</g>
</svg>
