<?xml version="1.0" encoding="utf-8"?>
<!-- Generator: Adobe Illustrator 21.1.0, SVG Export Plug-In . SVG Version: 6.00 Build 0)  -->
<svg version="1.1" xmlns="http://www.w3.org/2000/svg" xmlns:xlink="http://www.w3.org/1999/xlink" x="0px" y="0px"
	 viewBox="0 0 44 44" style="enable-background:new 0 0 44 44;" xml:space="preserve">
<style type="text/css">
	.st0{fill:#F5B445;}
	.st1{fill:#0B3A5B;}
	.st2{fill:#FFCA5D;}
	.st3{fill:#B0C4D8;}
	.st4{fill:#7B9FBE;}
	.st5{fill:#F7964B;}
	.st6{fill:#F47423;}
	.st7{fill:#FFE37C;}
	.st8{fill:#F8A247;}
	.st9{fill:#676A75;}
	.st10{fill:#0F395A;}
	.st11{fill:#585B67;}
	.st12{fill:#EAA239;}
	.st13{fill:#DA8C36;}
	.st14{fill:#C87629;}
	.st15{fill:#FFCB5B;}
	.st16{fill:#D3E2EB;}
	.st17{fill:#FFFFFF;}
	.st18{fill:#F5AE44;}
	.st19{fill:#D5E3EF;}
	.st20{fill:#0E395A;}
	.st21{fill:#C97629;}
	.st22{fill:#C0CED7;}
	.st23{fill:#8CA6BC;}
	.st24{fill:#4C9CD6;}
	.st25{fill:#3689C9;}
	.st26{fill:#FFE27A;}
	.st27{fill:#90CEF1;}
	.st28{fill:#ABE1FA;}
	.st29{fill:#70B7E5;}
	.st30{fill:#71747C;}
	.st31{fill:#F6B545;}
	.st32{fill:#E99C35;}
	.st33{fill:#3BB54A;}
	.st34{fill:#89C763;}
	.st35{fill:#AED477;}
	.st36{fill:#B0C4D9;}
	.st37{fill:#C9D5E3;}
	.st38{fill:#D3E2EB;stroke:#0B3A5B;stroke-width:2;stroke-linecap:round;stroke-linejoin:round;stroke-miterlimit:10;}
	.st39{fill:#99B5CD;}
	.st40{fill:#ECF0F9;}
	.st41{fill:#82A7C4;}
	.st42{fill:#F26A56;}
	.st43{fill:#FFD167;}
	.st44{fill:#2B5367;}
	.st45{fill:#FFCB5D;}
	.st46{fill:#F04D4E;}
	.st47{fill:#D5E3EE;}
	.st48{fill:#EDF1F9;}
	.st49{fill:#577280;}
	.st50{fill:#F16B56;}
	.st51{fill:#DCE4EE;}
	.st52{fill:#ECEFF9;}
	.st53{fill:#CEDAE6;}
	.st54{fill:#5F7B93;}
	.st55{fill:#EFC9AE;}
	.st56{fill:#E2B698;}
	.st57{fill:#4A6B84;}
	.st58{fill:#7592A5;}
</style>
<g id="trolley">
	<g>
		<g>
			<g>
				<circle class="st0" cx="33" cy="13" r="6"/>
				<path class="st1" d="M33,21c-4.4,0-8-3.6-8-8s3.6-8,8-8s8,3.6,8,8S37.4,21,33,21z M33,7c-3.3,0-6,2.7-6,6s2.7,6,6,6s6-2.7,6-6
					S36.3,7,33,7z"/>
			</g>
			<g>
				<path class="st2" d="M29.5,16.5c-2-2-2-5.1,0-7.1s5.1-2,7.1,0L29.5,16.5z"/>
			</g>
		</g>
		<g>
			<g>
				<circle class="st0" cx="23" cy="10" r="6"/>
				<path class="st1" d="M23,18c-4.4,0-8-3.6-8-8s3.6-8,8-8s8,3.6,8,8S27.4,18,23,18z M23,4c-3.3,0-6,2.7-6,6s2.7,6,6,6s6-2.7,6-6
					S26.3,4,23,4z"/>
			</g>
			<g>
				<path class="st2" d="M19.5,13.5c-2-2-2-5.1,0-7.1s5.1-2,7.1,0L19.5,13.5z"/>
			</g>
		</g>
		<path class="st3" d="M39,36l-9,1.4c-2.6,0.4-5.3,0.6-8,0.6h0c-2.7,0-5.3-0.2-8-0.6L5,36v-2h34V36z"/>
		<g>
			<path class="st4" d="M19.7,35H8.3H6v0.1l2.2,0.3l0,0l6,0.9c1.9,0.3,3.9,0.5,5.8,0.6c0-0.3,0-0.6-0.1-1h12.5l5.6-0.9V35H19.7z"/>
		</g>
		<path class="st5" d="M36.2,34H7.8c-1,0-1.9-0.8-2-1.8L4,18h36l-1.8,14.2C38.1,33.2,37.2,34,36.2,34z"/>
		<g>
			<path class="st6" d="M5.1,19L5.1,19c0.6,0.6,1.4,1,2.2,1h25.3c1.2,0,2.2,1.1,2,2.3l-1.3,8c-0.2,1-1,1.7-2,1.7H6.8l0,0.1
				c0.1,0.5,0.5,0.9,1,0.9h28.5c0.5,0,0.9-0.4,1-0.9L38.9,19H5.1z"/>
		</g>
		<g>
			<g>
				<g>
					<path class="st1" d="M12.5,26c-0.3,0-0.5-0.2-0.5-0.5v-1c0-0.3,0.2-0.5,0.5-0.5s0.5,0.2,0.5,0.5v1C13,25.8,12.8,26,12.5,26z"/>
				</g>
			</g>
			<g>
				<g>
					<path class="st1" d="M25.5,29c-0.3,0-0.5-0.2-0.5-0.5v-1c0-0.3,0.2-0.5,0.5-0.5s0.5,0.2,0.5,0.5v1C26,28.8,25.8,29,25.5,29z"/>
				</g>
			</g>
			<g>
				<g>
					<path class="st1" d="M30.5,24c-0.3,0-0.5-0.2-0.5-0.5v-1c0-0.3,0.2-0.5,0.5-0.5s0.5,0.2,0.5,0.5v1C31,23.8,30.8,24,30.5,24z"/>
				</g>
			</g>
			<g>
				<g>
					<path class="st1" d="M35.5,25c-0.3,0-0.5-0.2-0.5-0.5v-1c0-0.3,0.2-0.5,0.5-0.5s0.5,0.2,0.5,0.5v1C36,24.8,35.8,25,35.5,25z"/>
				</g>
			</g>
			<g>
				<g>
					<path class="st1" d="M16.5,28c-0.3,0-0.5-0.2-0.5-0.5v-5c0-0.3,0.2-0.5,0.5-0.5s0.5,0.2,0.5,0.5v5C17,27.8,16.8,28,16.5,28z"/>
				</g>
			</g>
			<g>
				<g>
					<path class="st1" d="M22.5,30c-0.3,0-0.5-0.2-0.5-0.5v-3c0-0.3,0.2-0.5,0.5-0.5s0.5,0.2,0.5,0.5v3C23,29.8,22.8,30,22.5,30z"/>
				</g>
			</g>
			<g>
				<g>
					<path class="st1" d="M8.5,27C8.2,27,8,26.8,8,26.5v-3C8,23.2,8.2,23,8.5,23S9,23.2,9,23.5v3C9,26.8,8.8,27,8.5,27z"/>
				</g>
			</g>
			<g>
				<g>
					<path class="st1" d="M29.5,29c-0.3,0-0.5-0.2-0.5-0.5v-2c0-0.3,0.2-0.5,0.5-0.5s0.5,0.2,0.5,0.5v2C30,28.8,29.8,29,29.5,29z"/>
				</g>
			</g>
		</g>
		<g>
			<g>
				<rect x="5" y="11" class="st0" width="14" height="2"/>
				<path class="st1" d="M20,15H4c-0.6,0-1-0.4-1-1v-4c0-0.6,0.4-1,1-1h16c0.6,0,1,0.4,1,1v4C21,14.6,20.6,15,20,15z M5,13h14v-2H5
					V13z"/>
			</g>
			<g>
				<rect x="6" y="11" class="st7" width="3" height="2"/>
			</g>
			<g>
				<rect x="14" y="11" class="st8" width="5" height="2"/>
			</g>
		</g>
		<g>
			<g>
				<rect x="7" y="7" class="st0" width="14" height="2"/>
				<path class="st1" d="M22,11H6c-0.6,0-1-0.4-1-1V6c0-0.6,0.4-1,1-1h16c0.6,0,1,0.4,1,1v4C23,10.6,22.6,11,22,11z M7,9h14V7H7V9z"
					/>
			</g>
			<g>
				<rect x="8" y="7" class="st7" width="3" height="2"/>
			</g>
			<g>
				<rect x="16" y="7" class="st8" width="5" height="2"/>
			</g>
		</g>
		<g>
			<g>
				<rect x="3" y="3" class="st0" width="14" height="2"/>
				<path class="st1" d="M18,7H2C1.4,7,1,6.6,1,6V2c0-0.6,0.4-1,1-1h16c0.6,0,1,0.4,1,1v4C19,6.6,18.6,7,18,7z M3,5h14V3H3V5z"/>
			</g>
			<g>
				<rect x="4" y="3" class="st7" width="3" height="2"/>
			</g>
			<g>
				<rect x="12" y="3" class="st8" width="5" height="2"/>
			</g>
		</g>
		<g>
			<path class="st5" d="M40,18H4c-1.1,0-2-0.9-2-2v-2h40v2C42,17.1,41.1,18,40,18z"/>
			<path class="st1" d="M42,13H2c-0.6,0-1,0.4-1,1v2c0,1.3,0.9,2.5,2.1,2.8l1.7,13.5C5,33.9,6.3,35,7.8,35h28.5c1.5,0,2.8-1.1,3-2.6
				l1.7-13.5c1.2-0.4,2.1-1.5,2.1-2.8v-2C43,13.4,42.6,13,42,13z M37.2,32.1c-0.1,0.5-0.5,0.9-1,0.9H33v-7.5c0-0.3-0.2-0.5-0.5-0.5
				S32,25.2,32,25.5V33H20v-6.5c0-0.3-0.2-0.5-0.5-0.5S19,26.2,19,26.5V33H9v-4.5C9,28.2,8.8,28,8.5,28S8,28.2,8,28.5V33H7.8
				c-0.5,0-0.9-0.4-1-0.9L5.1,19H12v3.5c0,0.3,0.2,0.5,0.5,0.5s0.5-0.2,0.5-0.5V19h9v4.5c0,0.3,0.2,0.5,0.5,0.5s0.5-0.2,0.5-0.5V19
				h4v6.5c0,0.3,0.2,0.5,0.5,0.5s0.5-0.2,0.5-0.5V19h7v2.5c0,0.3,0.2,0.5,0.5,0.5s0.5-0.2,0.5-0.5V19h2.9L37.2,32.1z M41,16
				c0,0.6-0.4,1-1,1H4c-0.6,0-1-0.4-1-1v-1h38V16z"/>
		</g>
		<path class="st1" d="M43,31c-0.6,0-1,0.4-1,1v1h-3H5H2v-1c0-0.6-0.4-1-1-1s-1,0.4-1,1v4c0,0.6,0.4,1,1,1s1-0.4,1-1v-1h2v1
			c0,0.5,0.4,0.9,0.8,1l9,1.4c2.7,0.4,5.4,0.6,8.1,0.6s5.4-0.2,8.1-0.6l9-1.4c0.5-0.1,0.8-0.5,0.8-1v-1h2v1c0,0.6,0.4,1,1,1
			s1-0.4,1-1v-4C44,31.4,43.6,31,43,31z M38,35.1l-8.2,1.3c-5.1,0.8-10.5,0.8-15.6,0L6,35.1V35h32V35.1z"/>
		<g>
			<circle class="st9" cx="13" cy="37" r="4"/>
			<path class="st1" d="M13,43c-3.3,0-6-2.7-6-6s2.7-6,6-6s6,2.7,6,6S16.3,43,13,43z M13,33c-2.2,0-4,1.8-4,4s1.8,4,4,4s4-1.8,4-4
				S15.2,33,13,33z"/>
		</g>
		<g>
			<circle class="st10" cx="13" cy="37" r="1"/>
		</g>
		<g>
			<circle class="st9" cx="31" cy="37" r="4"/>
			<path class="st1" d="M31,43c-3.3,0-6-2.7-6-6s2.7-6,6-6s6,2.7,6,6S34.3,43,31,43z M31,33c-2.2,0-4,1.8-4,4s1.8,4,4,4s4-1.8,4-4
				S33.2,33,31,33z"/>
		</g>
		<g>
			<circle class="st1" cx="31" cy="37" r="1"/>
		</g>
		<g>
			<path class="st6" d="M4,17h36c0.6,0,1-0.4,1-1H3C3,16.6,3.4,17,4,17z"/>
		</g>
		<g>
			<path class="st11" d="M28,38c0-2.2,1.8-4,4-4c0.8,0,1.6,0.3,2.3,0.7c-0.7-1-1.9-1.7-3.3-1.7c-2.2,0-4,1.8-4,4
				c0,1.4,0.7,2.6,1.7,3.3C28.3,39.6,28,38.8,28,38z"/>
		</g>
		<g>
			<path class="st11" d="M10,38c0-2.2,1.8-4,4-4c0.8,0,1.6,0.3,2.3,0.7c-0.7-1-1.9-1.7-3.3-1.7c-2.2,0-4,1.8-4,4
				c0,1.4,0.7,2.6,1.7,3.3C10.3,39.6,10,38.8,10,38z"/>
		</g>
	</g>
</g>
<g id="wallet">
</g>
<g id="shield">
</g>
<g id="pickaxe">
</g>
<g id="lock">
</g>
<g id="key">
</g>
<g id="mobile">
</g>
<g id="coins">
</g>
<g id="trade">
</g>
<g id="blockchain">
</g>
<g id="exchange">
</g>
<g id="graph">
</g>
<g id="video_x5F_card">
</g>
<g id="bitcoin">
</g>
<g id="code">
</g>
<g id="contract">
</g>
<g id="network">
</g>
<g id="cloud">
</g>
<g id="pc">
</g>
<g id="anonymous">
</g>
</svg>
