<?xml version="1.0" encoding="utf-8"?>
<!-- Generator: Adobe Illustrator 21.1.0, SVG Export Plug-In . SVG Version: 6.00 Build 0)  -->
<svg version="1.1" xmlns="http://www.w3.org/2000/svg" xmlns:xlink="http://www.w3.org/1999/xlink" x="0px" y="0px"
	 viewBox="0 0 44 44" style="enable-background:new 0 0 44 44;" xml:space="preserve">
<style type="text/css">
	.st0{fill:#F5B445;}
	.st1{fill:#0B3A5B;}
	.st2{fill:#FFCA5D;}
	.st3{fill:#B0C4D8;}
	.st4{fill:#7B9FBE;}
	.st5{fill:#F7964B;}
	.st6{fill:#F47423;}
	.st7{fill:#FFE37C;}
	.st8{fill:#F8A247;}
	.st9{fill:#676A75;}
	.st10{fill:#0F395A;}
	.st11{fill:#585B67;}
	.st12{fill:#EAA239;}
	.st13{fill:#DA8C36;}
	.st14{fill:#C87629;}
	.st15{fill:#FFCB5B;}
	.st16{fill:#D3E2EB;}
	.st17{fill:#FFFFFF;}
	.st18{fill:#F5AE44;}
	.st19{fill:#D5E3EF;}
	.st20{fill:#0E395A;}
	.st21{fill:#C97629;}
	.st22{fill:#C0CED7;}
	.st23{fill:#8CA6BC;}
	.st24{fill:#4C9CD6;}
	.st25{fill:#3689C9;}
	.st26{fill:#FFE27A;}
	.st27{fill:#90CEF1;}
	.st28{fill:#ABE1FA;}
	.st29{fill:#70B7E5;}
	.st30{fill:#71747C;}
	.st31{fill:#F6B545;}
	.st32{fill:#E99C35;}
	.st33{fill:#3BB54A;}
	.st34{fill:#89C763;}
	.st35{fill:#AED477;}
	.st36{fill:#B0C4D9;}
	.st37{fill:#C9D5E3;}
	.st38{fill:#D3E2EB;stroke:#0B3A5B;stroke-width:2;stroke-linecap:round;stroke-linejoin:round;stroke-miterlimit:10;}
	.st39{fill:#99B5CD;}
	.st40{fill:#ECF0F9;}
	.st41{fill:#82A7C4;}
	.st42{fill:#F26A56;}
	.st43{fill:#FFD167;}
	.st44{fill:#2B5367;}
	.st45{fill:#FFCB5D;}
	.st46{fill:#F04D4E;}
	.st47{fill:#D5E3EE;}
	.st48{fill:#EDF1F9;}
	.st49{fill:#577280;}
	.st50{fill:#F16B56;}
	.st51{fill:#DCE4EE;}
	.st52{fill:#ECEFF9;}
	.st53{fill:#CEDAE6;}
	.st54{fill:#5F7B93;}
	.st55{fill:#EFC9AE;}
	.st56{fill:#E2B698;}
	.st57{fill:#4A6B84;}
	.st58{fill:#7592A5;}
</style>
<g id="trolley">
</g>
<g id="wallet">
</g>
<g id="shield">
</g>
<g id="pickaxe">
</g>
<g id="lock">
</g>
<g id="key">
</g>
<g id="mobile">
</g>
<g id="coins">
</g>
<g id="trade">
</g>
<g id="blockchain">
</g>
<g id="exchange">
</g>
<g id="graph">
</g>
<g id="video_x5F_card">
	<g>
		<rect x="3" y="21" class="st36" width="1" height="3"/>
		<path class="st40" d="M41,33H5V12.8c0-0.5,0.2-1,0.6-1.4l3.8-3.8C9.8,7.2,10.3,7,10.8,7H41c1.1,0,2,0.9,2,2v22
			C43,32.1,42.1,33,41,33z"/>
		<g>
			<path class="st37" d="M41,8v22c0,0.6-0.4,1-1,1H6v1h35c0.6,0,1-0.4,1-1V9C42,8.4,41.6,8,41,8z"/>
		</g>
		<g>
			<circle class="st36" cx="33" cy="20" r="6"/>
		</g>
		<circle class="st36" cx="15" cy="20" r="6"/>
		<path class="st1" d="M41,6H10.8C10,6,9.3,6.3,8.7,6.9L6,9.6V9c0-0.6-0.4-1-1-1H1C0.4,8,0,8.4,0,9s0.4,1,1,1h3v6H2
			c-0.6,0-1,0.4-1,1s0.4,1,1,1h2v1H2c-0.6,0-1,0.4-1,1v5c0,0.6,0.4,1,1,1h2v1H2c-0.6,0-1,0.4-1,1s0.4,1,1,1h2v8c0,0.6,0.4,1,1,1
			s1-0.4,1-1v-3h5c0,0.6,0.4,1,1,1h1c0.6,0,1-0.4,1-1h2c0,0.6,0.4,1,1,1h10c0.6,0,1-0.4,1-1h13c1.7,0,3-1.3,3-3V9
			C44,7.3,42.7,6,41,6z M3,24v-3h1v3H3z M42,31c0,0.6-0.4,1-1,1h-1v-1.5c0-0.3-0.2-0.5-0.5-0.5S39,30.2,39,30.5V32h-2v-1.5
			c0-0.3-0.2-0.5-0.5-0.5S36,30.2,36,30.5V32h-2v-1.5c0-0.3-0.2-0.5-0.5-0.5S33,30.2,33,30.5V32h-2v-1.5c0-0.3-0.2-0.5-0.5-0.5
			S30,30.2,30,30.5V32h-2v-1.5c0-0.3-0.2-0.5-0.5-0.5S27,30.2,27,30.5V32h-2v-1.5c0-0.3-0.2-0.5-0.5-0.5S24,30.2,24,30.5V32h-2v-1.5
			c0-0.3-0.2-0.5-0.5-0.5S21,30.2,21,30.5V32h-2v-1.5c0-0.3-0.2-0.5-0.5-0.5S18,30.2,18,30.5V32h-2v-1.5c0-0.3-0.2-0.5-0.5-0.5
			S15,30.2,15,30.5V32h-2v-1.5c0-0.3-0.2-0.5-0.5-0.5S12,30.2,12,30.5V32h-2v-1.5c0-0.3-0.2-0.5-0.5-0.5S9,30.2,9,30.5V32H6v-7v-5
			v-7.2c0-0.3,0.1-0.5,0.3-0.7l3.8-3.8C10.3,8.1,10.6,8,10.8,8H12v1.5c0,0.3,0.2,0.5,0.5,0.5S13,9.8,13,9.5V8h2v1.5
			c0,0.3,0.2,0.5,0.5,0.5S16,9.8,16,9.5V8h2v1.5c0,0.3,0.2,0.5,0.5,0.5S19,9.8,19,9.5V8h2v1.5c0,0.3,0.2,0.5,0.5,0.5S22,9.8,22,9.5
			V8h2v1.5c0,0.3,0.2,0.5,0.5,0.5S25,9.8,25,9.5V8h2v1.5c0,0.3,0.2,0.5,0.5,0.5S28,9.8,28,9.5V8h2v1.5c0,0.3,0.2,0.5,0.5,0.5
			S31,9.8,31,9.5V8h2v1.5c0,0.3,0.2,0.5,0.5,0.5S34,9.8,34,9.5V8h2v1.5c0,0.3,0.2,0.5,0.5,0.5S37,9.8,37,9.5V8h2v1.5
			c0,0.3,0.2,0.5,0.5,0.5S40,9.8,40,9.5V8h1c0.6,0,1,0.4,1,1V31z"/>
		<g>
			<circle class="st1" cx="24.5" cy="11.5" r="0.5"/>
		</g>
		<g>
			<circle class="st1" cx="27.5" cy="11.5" r="0.5"/>
		</g>
		<g>
			<circle class="st1" cx="21.5" cy="11.5" r="0.5"/>
		</g>
		<g>
			<circle class="st1" cx="24.5" cy="13.5" r="0.5"/>
		</g>
		<g>
			<circle class="st1" cx="24.5" cy="26.5" r="0.5"/>
		</g>
		<g>
			<circle class="st1" cx="24.5" cy="28.5" r="0.5"/>
		</g>
		<g>
			<circle class="st1" cx="21.5" cy="28.5" r="0.5"/>
		</g>
		<g>
			<circle class="st1" cx="27.5" cy="28.5" r="0.5"/>
		</g>
		<g>
			<path class="st41" d="M28,21c0-3.3,2.7-6,6-6c1.4,0,2.7,0.5,3.7,1.3C36.6,14.9,34.9,14,33,14c-3.3,0-6,2.7-6,6
				c0,1.9,0.9,3.6,2.3,4.7C28.5,23.7,28,22.4,28,21z"/>
		</g>
		<g>
			<path class="st41" d="M10,21c0-3.3,2.7-6,6-6c1.4,0,2.7,0.5,3.7,1.3C18.6,14.9,16.9,14,15,14c-3.3,0-6,2.7-6,6
				c0,1.9,0.9,3.6,2.3,4.7C10.5,23.7,10,22.4,10,21z"/>
		</g>
		<path class="st1" d="M15,12c-4.4,0-8,3.6-8,8s3.6,8,8,8s8-3.6,8-8S19.4,12,15,12z M21,20.2c-1.5,0.5-3.2,0.5-4.7-0.1
			c1.5-0.7,2.9-1.9,3.7-3.4c0.6,0.9,1,2.1,1,3.3C21,20.1,21,20.1,21,20.2z M19.3,15.9c-0.7,1.4-2,2.6-3.4,3.3c0.6-1.5,0.7-3.4,0.2-5
			C17.4,14.4,18.5,15,19.3,15.9z M15.1,18.7c-0.7-1.5-1.9-2.9-3.4-3.7c0.9-0.6,2.1-1,3.3-1c0.1,0,0.1,0,0.2,0
			C15.6,15.5,15.6,17.3,15.1,18.7z M15,26c-0.1,0-0.1,0-0.2,0c-0.5-1.5-0.5-3.2,0.1-4.7c0.7,1.5,1.9,2.9,3.4,3.7
			C17.3,25.6,16.2,26,15,26z M10.9,15.7c1.4,0.7,2.6,2,3.3,3.4c-1.5-0.6-3.4-0.7-5-0.2C9.4,17.6,10,16.5,10.9,15.7z M9,19.8
			c1.5-0.5,3.2-0.5,4.7,0.1c-1.5,0.7-2.9,1.9-3.7,3.4c-0.6-0.9-1-2.1-1-3.3C9,19.9,9,19.9,9,19.8z M10.7,24.1c0.7-1.4,2-2.6,3.4-3.3
			c-0.6,1.5-0.7,3.4-0.2,5C12.6,25.6,11.5,25,10.7,24.1z M19.1,24.3c-1.4-0.7-2.6-2-3.3-3.4c0.9,0.3,1.9,0.5,2.9,0.5
			c0.7,0,1.4-0.1,2.1-0.3C20.6,22.4,20,23.5,19.1,24.3z"/>
		<path class="st1" d="M33,12c-4.4,0-8,3.6-8,8s3.6,8,8,8s8-3.6,8-8S37.4,12,33,12z M39,20.2c-1.5,0.5-3.2,0.5-4.7-0.1
			c1.5-0.7,2.9-1.9,3.7-3.4c0.6,0.9,1,2.1,1,3.3C39,20.1,39,20.1,39,20.2z M37.3,15.9c-0.7,1.4-2,2.6-3.4,3.3c0.6-1.5,0.7-3.4,0.2-5
			C35.4,14.4,36.5,15,37.3,15.9z M33.1,18.7c-0.7-1.5-1.9-2.9-3.4-3.7c0.9-0.6,2.1-1,3.3-1c0.1,0,0.1,0,0.2,0
			C33.6,15.5,33.6,17.3,33.1,18.7z M33,26c-0.1,0-0.1,0-0.2,0c-0.5-1.5-0.5-3.2,0.1-4.7c0.7,1.5,1.9,2.9,3.4,3.7
			C35.3,25.6,34.2,26,33,26z M28.9,15.7c1.4,0.7,2.6,2,3.3,3.4c-1.5-0.6-3.4-0.7-5-0.2C27.4,17.6,28,16.5,28.9,15.7z M27,19.8
			c1.5-0.5,3.2-0.5,4.7,0.1c-1.5,0.7-2.9,1.9-3.7,3.4c-0.6-0.9-1-2.1-1-3.3C27,19.9,27,19.9,27,19.8z M28.7,24.1
			c0.7-1.4,2-2.6,3.4-3.3c-0.6,1.5-0.7,3.4-0.2,5C30.6,25.6,29.5,25,28.7,24.1z M37.1,24.3c-1.4-0.7-2.6-2-3.3-3.4
			c0.9,0.3,1.9,0.5,2.9,0.5c0.7,0,1.4-0.1,2.1-0.3C38.6,22.4,38,23.5,37.1,24.3z"/>
	</g>
</g>
<g id="bitcoin">
</g>
<g id="code">
</g>
<g id="contract">
</g>
<g id="network">
</g>
<g id="cloud">
</g>
<g id="pc">
</g>
<g id="anonymous">
</g>
</svg>
