<?xml version="1.0" encoding="utf-8"?>
<!-- Generator: Adobe Illustrator 21.1.0, SVG Export Plug-In . SVG Version: 6.00 Build 0)  -->
<svg version="1.1" xmlns="http://www.w3.org/2000/svg" xmlns:xlink="http://www.w3.org/1999/xlink" x="0px" y="0px"
	 viewBox="0 0 44 44" style="enable-background:new 0 0 44 44;" xml:space="preserve">
<style type="text/css">
	.st0{fill:#F5B445;}
	.st1{fill:#0B3A5B;}
	.st2{fill:#FFCA5D;}
	.st3{fill:#B0C4D8;}
	.st4{fill:#7B9FBE;}
	.st5{fill:#F7964B;}
	.st6{fill:#F47423;}
	.st7{fill:#FFE37C;}
	.st8{fill:#F8A247;}
	.st9{fill:#676A75;}
	.st10{fill:#0F395A;}
	.st11{fill:#585B67;}
	.st12{fill:#EAA239;}
	.st13{fill:#DA8C36;}
	.st14{fill:#C87629;}
	.st15{fill:#FFCB5B;}
	.st16{fill:#D3E2EB;}
	.st17{fill:#FFFFFF;}
	.st18{fill:#F5AE44;}
	.st19{fill:#D5E3EF;}
	.st20{fill:#0E395A;}
	.st21{fill:#C97629;}
	.st22{fill:#C0CED7;}
	.st23{fill:#8CA6BC;}
	.st24{fill:#4C9CD6;}
	.st25{fill:#3689C9;}
	.st26{fill:#FFE27A;}
	.st27{fill:#90CEF1;}
	.st28{fill:#ABE1FA;}
	.st29{fill:#70B7E5;}
	.st30{fill:#71747C;}
	.st31{fill:#F6B545;}
	.st32{fill:#E99C35;}
	.st33{fill:#3BB54A;}
	.st34{fill:#89C763;}
	.st35{fill:#AED477;}
	.st36{fill:#B0C4D9;}
	.st37{fill:#C9D5E3;}
	.st38{fill:#D3E2EB;stroke:#0B3A5B;stroke-width:2;stroke-linecap:round;stroke-linejoin:round;stroke-miterlimit:10;}
	.st39{fill:#99B5CD;}
	.st40{fill:#ECF0F9;}
	.st41{fill:#82A7C4;}
	.st42{fill:#F26A56;}
	.st43{fill:#FFD167;}
	.st44{fill:#2B5367;}
	.st45{fill:#FFCB5D;}
	.st46{fill:#F04D4E;}
	.st47{fill:#D5E3EE;}
	.st48{fill:#EDF1F9;}
	.st49{fill:#577280;}
	.st50{fill:#F16B56;}
	.st51{fill:#DCE4EE;}
	.st52{fill:#ECEFF9;}
	.st53{fill:#CEDAE6;}
	.st54{fill:#5F7B93;}
	.st55{fill:#EFC9AE;}
	.st56{fill:#E2B698;}
	.st57{fill:#4A6B84;}
	.st58{fill:#7592A5;}
</style>
<g id="trolley">
</g>
<g id="wallet">
	<g>
		<g>
			<path class="st0" d="M31,9c-2.3,0-4.5,1.1-5.7,3h11.5C35.5,10.1,33.3,9,31,9z"/>
			<path class="st1" d="M38.4,14H23.6c-0.3,0-0.6-0.2-0.8-0.4c-0.2-0.3-0.2-0.6-0.1-0.9C24,9.2,27.3,7,31,7s7,2.2,8.3,5.6
				c0.1,0.3,0.1,0.7-0.1,0.9C39.1,13.8,38.7,14,38.4,14z M25.3,12h11.5c-1.3-1.9-3.4-3-5.7-3S26.5,10.1,25.3,12z"/>
			<g>
				<path class="st12" d="M31.9,12c0-0.3,0.1-0.7,0.1-1c0-0.7-0.1-1.3-0.2-1.9C31.5,9,31.3,9,31,9c-2.4,0-4.5,1.2-5.7,3H31.9z"/>
			</g>
		</g>
		<g>
			<path class="st0" d="M19.7,12c-0.9-2.9-3.6-5-6.7-5s-5.8,2.1-6.7,5H19.7z"/>
			<path class="st1" d="M20.9,14H5.1c-0.3,0-0.6-0.1-0.7-0.3c-0.2-0.2-0.3-0.5-0.2-0.8C4.6,8.4,8.5,5,13,5s8.4,3.4,8.9,7.9
				c0,0.3-0.1,0.6-0.2,0.8C21.5,13.9,21.2,14,20.9,14z M6.3,12h13.4c-0.9-2.9-3.6-5-6.7-5S7.2,9.1,6.3,12z"/>
			<g>
				<path class="st2" d="M15,12l2.2-2.2c-2.3-2.3-6.1-2.3-8.5,0c-0.7,0.7-1.1,1.4-1.4,2.2H15z"/>
			</g>
		</g>
		<g>
			<path class="st0" d="M15.1,12h13.8c0.1-0.3,0.1-0.7,0.1-1c0-3.9-3.1-7-7-7s-7,3.1-7,7C15,11.3,15,11.7,15.1,12z"/>
			<path class="st1" d="M29.7,14H14.3c-0.5,0-0.9-0.3-1-0.8C13.1,12.5,13,11.7,13,11c0-5,4-9,9-9s9,4,9,9c0,0.7-0.1,1.5-0.3,2.2
				C30.6,13.7,30.2,14,29.7,14z M15.1,12h13.8c0.1-0.3,0.1-0.7,0.1-1c0-3.9-3.1-7-7-7s-7,3.1-7,7C15,11.3,15,11.7,15.1,12z"/>
			<g>
				<path class="st2" d="M21,12l5.2-5.2c-2.3-2.3-6.1-2.3-8.5,0c-1.4,1.4-2,3.4-1.7,5.2H21z"/>
			</g>
		</g>
		<g>
			<path class="st13" d="M31,25v4c0,1.1,0.9,2,2,2h8v8c0,1.1-0.9,2-2,2H5c-1.1,0-2-0.9-2-2V15c0-1.1,0.9-2,2-2h34c1.1,0,2,0.9,2,2v8
				h-8C31.9,23,31,23.9,31,25z"/>
			<path class="st1" d="M39,42H5c-1.7,0-3-1.3-3-3V15c0-1.7,1.3-3,3-3h34c1.7,0,3,1.3,3,3v8c0,0.6-0.4,1-1,1h-8c-0.6,0-1,0.4-1,1v4
				c0,0.6,0.4,1,1,1h8c0.6,0,1,0.4,1,1v8C42,40.7,40.7,42,39,42z M5,14c-0.6,0-1,0.4-1,1v24c0,0.6,0.4,1,1,1h34c0.6,0,1-0.4,1-1v-7
				h-7c-1.7,0-3-1.3-3-3v-4c0-1.7,1.3-3,3-3h7v-7c0-0.6-0.4-1-1-1H5z"/>
		</g>
		<g>
			<path class="st14" d="M39,14v8h1v-7C40,14.4,39.6,14,39,14z"/>
		</g>
		<g>
			<path class="st14" d="M30,29l0.3,1.2c0.4,1.7,1.9,2.8,3.6,2.8H37c1.1,0,2,0.9,2,2v1c0,1.1-0.9,2-2,2H22.6c-0.7,0-1.1-0.6-1-1.3
				c0.4-1.3,0.5-2.7,0.3-4.1c-0.6-4.4-4.2-7.9-8.5-8.5C9.5,23.6,6.1,25.2,4,28v10v1c0,0.6,0.4,1,1,1h15h19c0.6,0,1-0.4,1-1v-5v-2v-3
				H30z"/>
		</g>
		<g>
			<g>
				<g>
					<circle class="st0" cx="10" cy="32" r="8"/>
					<path class="st1" d="M10,42C4.5,42,0,37.5,0,32s4.5-10,10-10s10,4.5,10,10S15.5,42,10,42z M10,24c-4.4,0-8,3.6-8,8s3.6,8,8,8
						s8-3.6,8-8S14.4,24,10,24z"/>
				</g>
			</g>
			<g>
				<path class="st2" d="M5.1,36.9c-2.7-2.7-2.7-7.2,0-9.9s7.2-2.7,9.9,0L5.1,36.9z"/>
			</g>
		</g>
		<path class="st1" d="M13.6,31.5C13.8,31,14,30.5,14,30c0-1.7-1.3-3-3-3c0-0.6-0.4-1-1-1s-1,0.4-1,1H7c-0.6,0-1,0.4-1,1s0.4,1,1,1
			v6c-0.6,0-1,0.4-1,1s0.4,1,1,1h2c0,0.6,0.4,1,1,1s1-0.4,1-1h1c1.7,0,3-1.3,3-3C15,32.9,14.4,32,13.6,31.5z M11,29c0.6,0,1,0.4,1,1
			s-0.4,1-1,1H9v-2H11z M12,35H9v-2h3c0.6,0,1,0.4,1,1S12.6,35,12,35z"/>
		<path class="st13" d="M43,25v4c0,1.1-0.9,2-2,2h-8c-1.1,0-2-0.9-2-2v-4c0-1.1,0.9-2,2-2h8C42.1,23,43,23.9,43,25z"/>
		<g>
			<path class="st14" d="M41,24v4c0,0.6-0.4,1-1,1h-8c0,0.6,0.4,1,1,1h8c0.6,0,1-0.4,1-1v-4C42,24.4,41.6,24,41,24z"/>
		</g>
		<g>
			<circle class="st1" cx="35" cy="27" r="1"/>
		</g>
		<g>
			<g>
				<path class="st1" d="M37.5,19h-4c-0.3,0-0.5-0.2-0.5-0.5s0.2-0.5,0.5-0.5h4c0.3,0,0.5,0.2,0.5,0.5S37.8,19,37.5,19z"/>
			</g>
		</g>
		<path class="st1" d="M29.5,15c-0.7,0-1.2,0.4-1.4,1h-7.6c-0.3,0-0.5,0.2-0.5,0.5s0.2,0.5,0.5,0.5h7.6c0.2,0.6,0.8,1,1.4,1
			c0.8,0,1.5-0.7,1.5-1.5S30.3,15,29.5,15z M29.5,17c-0.3,0-0.5-0.2-0.5-0.5s0.2-0.5,0.5-0.5s0.5,0.2,0.5,0.5S29.8,17,29.5,17z"/>
		<path class="st1" d="M12.5,18c-0.7,0-1.2,0.4-1.4,1H4c-0.3,0-0.5,0.2-0.5,0.5S3.7,20,4,20h7.1c0.2,0.6,0.8,1,1.4,1
			c0.8,0,1.5-0.7,1.5-1.5S13.3,18,12.5,18z M12.5,20c-0.3,0-0.5-0.2-0.5-0.5s0.2-0.5,0.5-0.5s0.5,0.2,0.5,0.5S12.8,20,12.5,20z"/>
		<path class="st1" d="M35.5,37h-5.6c-0.2-0.6-0.8-1-1.4-1c-0.8,0-1.5,0.7-1.5,1.5s0.7,1.5,1.5,1.5c0.7,0,1.2-0.4,1.4-1h5.6
			c0.3,0,0.5-0.2,0.5-0.5S35.8,37,35.5,37z M28.5,38c-0.3,0-0.5-0.2-0.5-0.5s0.2-0.5,0.5-0.5s0.5,0.2,0.5,0.5S28.8,38,28.5,38z"/>
		<path class="st1" d="M41,22h-8c-0.4,0-0.7,0.1-1.1,0.2l-1.5-1.5C30,20.3,29.3,20,28.7,20h-7.3c-0.4,0-0.8-0.2-1.1-0.4l-2.8-2.8
			C17,16.3,16.3,16,15.7,16H3.5C3.2,16,3,16.2,3,16.5S3.2,17,3.5,17h12.2c0.4,0,0.8,0.2,1.1,0.4l2.8,2.8c0.5,0.5,1.1,0.7,1.8,0.7
			h7.3c0.4,0,0.8,0.2,1.1,0.4l1.3,1.3c-0.4,0.3-0.7,0.8-0.9,1.3h-5.4c-0.7,0-1.3,0.3-1.8,0.7l-0.8,0.8c-0.3,0.3-0.7,0.4-1.1,0.4H17
			c-0.3,0-0.5,0.2-0.5,0.5S16.7,27,17,27h4.2c0.7,0,1.3-0.3,1.8-0.7l0.8-0.8c0.3-0.3,0.7-0.4,1.1-0.4H30v3h-5.5
			c-0.3,0-0.5,0.2-0.5,0.5s0.2,0.5,0.5,0.5H30c0,1.3,0.8,2.4,2,2.8l-0.8,0.8c-0.3,0.3-0.7,0.4-1.1,0.4h-5.3c-0.2-0.6-0.8-1-1.4-1
			c-0.8,0-1.5,0.7-1.5,1.5s0.7,1.5,1.5,1.5c0.7,0,1.2-0.4,1.4-1h5.3c0.7,0,1.3-0.3,1.8-0.7l1.3-1.3H41c1.7,0,3-1.3,3-3v-4
			C44,23.3,42.7,22,41,22z M23.5,34c-0.3,0-0.5-0.2-0.5-0.5s0.2-0.5,0.5-0.5s0.5,0.2,0.5,0.5S23.8,34,23.5,34z M42,29
			c0,0.6-0.4,1-1,1h-8c-0.6,0-1-0.4-1-1v-4c0-0.6,0.4-1,1-1h8c0.6,0,1,0.4,1,1V29z"/>
	</g>
</g>
<g id="shield">
</g>
<g id="pickaxe">
</g>
<g id="lock">
</g>
<g id="key">
</g>
<g id="mobile">
</g>
<g id="coins">
</g>
<g id="trade">
</g>
<g id="blockchain">
</g>
<g id="exchange">
</g>
<g id="graph">
</g>
<g id="video_x5F_card">
</g>
<g id="bitcoin">
</g>
<g id="code">
</g>
<g id="contract">
</g>
<g id="network">
</g>
<g id="cloud">
</g>
<g id="pc">
</g>
<g id="anonymous">
</g>
</svg>
