<?xml version="1.0" encoding="utf-8"?>
<!-- Generator: Adobe Illustrator 21.1.0, SVG Export Plug-In . SVG Version: 6.00 Build 0)  -->
<svg version="1.1" xmlns="http://www.w3.org/2000/svg" xmlns:xlink="http://www.w3.org/1999/xlink" x="0px" y="0px"
	 viewBox="0 0 44 44" style="enable-background:new 0 0 44 44;" xml:space="preserve">
<g id="trolley">
</g>
<g id="wallet">
</g>
<g id="shield">
</g>
<g id="pickaxe">
</g>
<g id="lock">
</g>
<g id="key">
</g>
<g id="mobile">
</g>
<g id="coins">
</g>
<g id="trade">
</g>
<g id="blockchain">
</g>
<g id="exchange">
</g>
<g id="graph">
</g>
<g id="video_x5F_card">
</g>
<g id="bitcoin">
</g>
<g id="code">
</g>
<g id="contract">
</g>
<g id="network">
</g>
<g id="cloud">
</g>
<g id="pc">
</g>
<g id="anonymous">
	<g>
		<path d="M25.8,25.4c-0.3-0.4-1-0.5-1.4-0.2C23.8,25.7,22.9,26,22,26c-0.9,0-1.7-0.3-2.3-0.8c-0.4-0.3-1.1-0.3-1.4,0.2
			c-0.3,0.4-0.3,1.1,0.2,1.4c1,0.8,2.2,1.2,3.6,1.2c0,0,0,0,0,0c1.4,0,2.6-0.4,3.6-1.2C26.1,26.4,26.2,25.8,25.8,25.4z"/>
		<path d="M44,40.8l-0.5-2.5c-0.4-1.9-1.9-3.4-3.8-3.9L34,33.1c0,0,0-0.1,0-0.1v-8c0-0.4-0.2-0.7-0.5-0.9C33.4,24,33.2,24,33,24
			c0-0.1,0-0.2,0-0.3v-2.8c1.2-0.4,2-1.5,2-2.8v-2h2c1.4,0,2.5-1.1,2.5-2.5S38.4,11,37,11h-4V9.9c0-2.7-0.5-5.4-1.5-7.9
			c-0.5-1.2-1.6-2-3-2c-0.5,0-1,0.1-1.4,0.3l-1.7,0.9c-2.1,1-4.6,1-6.7,0l-1.7-0.9C16.5,0.1,16,0,15.5,0c-1.3,0-2.5,0.8-3,2
			c-1,2.5-1.5,5.2-1.5,7.9V11H7c-1.4,0-2.5,1.1-2.5,2.5S5.6,16,7,16h2v2c0,1.3,0.8,2.4,2,2.8v2.8c0,0.1,0,0.2,0,0.3
			c-0.2,0-0.4,0-0.6,0.1C10.2,24.3,10,24.6,10,25v8c0,0,0,0.1,0,0.1l-5.7,1.3c-1.9,0.4-3.4,2-3.8,3.9L0,40.8c-0.1,0.5,0.2,1,0.7,1.2
			c4.8,1.4,13,2,21.3,2c0,0,0,0,0,0l0,0c0,0,0,0,0,0c8.2,0,16.5-0.7,21.2-2C43.8,41.8,44.1,41.3,44,40.8z M13,9.9
			c0-2.5,0.5-4.9,1.4-7.2c0.2-0.6,1-0.9,1.6-0.6L17.8,3c2.6,1.3,5.9,1.3,8.5,0L28,2.1c0.6-0.3,1.4,0,1.6,0.6C30.5,5,31,7.4,31,9.9
			V11H13V9.9z M7,14c-0.3,0-0.5-0.2-0.5-0.5S6.7,13,7,13h5h20h5c0.3,0,0.5,0.2,0.5,0.5S37.3,14,37,14H7z M21,42
			c-7.2,0-14.3-0.6-18.8-1.7l0.3-1.5c0.2-1.2,1.1-2.1,2.3-2.3l7.3-1.7l9,4.9V42z M12,32.4v-5.7l6.4,3.5C20,31,21,32.7,21,34.6v2.8
			L12,32.4z M22,31c-0.6-1-1.5-1.9-2.6-2.5l-6.1-3.3c-0.1-0.5-0.2-0.9-0.2-1.4V20c0-0.6-0.4-1-1-1c-0.6,0-1-0.4-1-1v-1
			c0.6,0,1-0.4,1-1h3.4c-0.8,0.7-1.4,1.8-1.4,3c0,2.2,1.8,4,4,4c2.2,0,4-1.8,4-4c0,2.2,1.8,4,4,4c2.2,0,4-1.8,4-4
			c0-1.2-0.5-2.3-1.4-3H32c0,0.6,0.4,1,1,1v1c0,0.6-0.4,1-1,1c-0.6,0-1,0.4-1,1v3.7c0,0.5-0.1,0.9-0.2,1.4l-6.2,3.4
			C23.5,29,22.6,29.9,22,31z M23,34.6c0-1.8,1-3.5,2.6-4.4l6.4-3.5v5.7l-9,4.9V34.6z M23,42l0-2.4l9-4.9l7.3,1.7
			c1.1,0.3,2,1.2,2.3,2.3l0.3,1.5C37.3,41.4,30.2,42,23,42z"/>
		<circle cx="19.5" cy="33.5" r="0.5"/>
		<circle cx="24.5" cy="33.5" r="0.5"/>
	</g>
</g>
</svg>
