<?xml version="1.0" encoding="utf-8"?>
<!-- Generator: Adobe Illustrator 21.1.0, SVG Export Plug-In . SVG Version: 6.00 Build 0)  -->
<svg version="1.1" xmlns="http://www.w3.org/2000/svg" xmlns:xlink="http://www.w3.org/1999/xlink" x="0px" y="0px"
	 viewBox="0 0 44 44" style="enable-background:new 0 0 44 44;" xml:space="preserve">
<g id="trolley">
</g>
<g id="wallet">
</g>
<g id="shield">
</g>
<g id="pickaxe">
</g>
<g id="lock">
</g>
<g id="key">
</g>
<g id="mobile">
</g>
<g id="coins">
</g>
<g id="trade">
</g>
<g id="blockchain">
</g>
<g id="exchange">
</g>
<g id="graph">
</g>
<g id="video_x5F_card">
</g>
<g id="bitcoin">
	<g>
		<path d="M22,0C9.9,0,0,9.9,0,22s9.9,22,22,22s22-9.9,22-22S34.1,0,22,0z M22,42C11,42,2,33,2,22S11,2,22,2s20,9,20,20S33,42,22,42
			z"/>
		<path d="M22,7C13.7,7,7,13.7,7,22c0,8.3,6.7,15,15,15s15-6.7,15-15C37,13.7,30.3,7,22,7z M22,36c-7.7,0-14-6.3-14-14
			c0-7.7,6.3-14,14-14s14,6.3,14,14C36,29.7,29.7,36,22,36z"/>
		<path d="M28.1,20.5c0.5-0.7,0.9-1.5,0.9-2.5c0-1.8-1.2-3.3-2.9-3.8c0,0,0,0-0.1,0C25,13.8,25,13.3,25,13v-1c0-0.6-0.4-1-1-1
			s-1,0.4-1,1v1c0,0.6-0.4,1-1,1s-1-0.4-1-1v-1c0-0.6-0.4-1-1-1s-1,0.4-1,1v1c0,0.6-0.4,1-1,1h-3v2h1c0.6,0,1,0.4,1,1v10
			c0,0.6-0.4,1-1,1h-1v2h3c0.6,0,1,0.4,1,1v1c0,0.6,0.4,1,1,1s1-0.4,1-1v-1c0-0.6,0.4-1,1-1s1,0.4,1,1v1c0,0.6,0.4,1,1,1s1-0.4,1-1
			v-1c0-0.6,0.4-1,1-1c2.8,0,5-2.2,5-5C31,23,29.8,21.3,28.1,20.5z M21,16h2c1.1,0,2,0.9,2,2s-0.9,2-2,2h-2V16z M24,28h-3v-6h3
			c1.7,0,3,1.3,3,3S25.7,28,24,28z"/>
		<ellipse transform="matrix(0.2588 -0.9659 0.9659 0.2588 11.4763 24.9558)" cx="22" cy="5" rx="1" ry="1"/>
		<ellipse transform="matrix(0.2588 -0.9659 0.9659 0.2588 -21.3655 50.1565)" cx="22" cy="39" rx="1" ry="1"/>
		<ellipse transform="matrix(0.9659 -0.2588 0.2588 0.9659 -1.4235 3.7419)" cx="13.5" cy="7.3" rx="1" ry="1"/>
		<ellipse transform="matrix(0.9659 -0.2588 0.2588 0.9659 -8.4654 9.1454)" cx="30.5" cy="36.7" rx="1" ry="1"/>
		<ellipse transform="matrix(0.7071 -0.7071 0.7071 0.7071 -7.4143 9.0994)" cx="7.3" cy="13.5" rx="1" ry="1"/>
		<ellipse transform="matrix(0.7071 -0.7071 0.7071 0.7071 -10.8111 34.8999)" cx="36.7" cy="30.5" rx="1" ry="1"/>
		<ellipse transform="matrix(0.2588 -0.9659 0.9659 0.2588 -17.5448 21.1352)" cx="5" cy="22" rx="1" ry="1"/>
		<ellipse transform="matrix(0.2588 -0.9659 0.9659 0.2588 7.6565 53.9779)" cx="39" cy="22" rx="1" ry="1"/>
		<ellipse transform="matrix(0.9659 -0.2588 0.2588 0.9659 -7.6459 2.9227)" cx="7.3" cy="30.5" rx="1" ry="1"/>
		<ellipse transform="matrix(0.9659 -0.2588 0.2588 0.9659 -2.2427 9.9646)" cx="36.7" cy="13.5" rx="1" ry="1"/>
		<ellipse transform="matrix(0.7071 -0.7071 0.7071 0.7071 -22.0125 20.3007)" cx="13.5" cy="36.7" rx="1" ry="1"/>
		<ellipse transform="matrix(0.7071 -0.7071 0.7071 0.7071 3.7873 23.6982)" cx="30.5" cy="7.3" rx="1" ry="1"/>
		<circle cx="17.6" cy="5.6" r="1"/>
		<circle cx="26.4" cy="38.4" r="1"/>
		<ellipse transform="matrix(0.866 -0.5 0.5 0.866 -3.6526 6.3263)" cx="10" cy="10" rx="1" ry="1"/>
		<ellipse transform="matrix(0.866 -0.5 0.5 0.866 -12.4526 21.5683)" cx="34" cy="34" rx="1" ry="1"/>
		<ellipse transform="matrix(0.5 -0.866 0.866 0.5 -12.4526 13.6314)" cx="5.6" cy="17.6" rx="1" ry="1"/>
		<ellipse transform="matrix(0.5 -0.866 0.866 0.5 -3.6527 46.4733)" cx="38.4" cy="26.4" rx="1" ry="1"/>
		<circle cx="5.6" cy="26.4" r="1"/>
		<circle cx="38.4" cy="17.6" r="1"/>
		<ellipse transform="matrix(0.866 -0.5 0.5 0.866 -15.6736 9.5473)" cx="10" cy="34" rx="1" ry="1"/>
		<ellipse transform="matrix(0.866 -0.5 0.5 0.866 -0.4316 18.3473)" cx="34" cy="10" rx="1" ry="1"/>
		<ellipse transform="matrix(0.5 -0.866 0.866 0.5 -24.4736 34.4524)" cx="17.6" cy="38.4" rx="1" ry="1"/>
		<ellipse transform="matrix(0.5 -0.866 0.866 0.5 8.3683 25.6523)" cx="26.4" cy="5.6" rx="1" ry="1"/>
	</g>
</g>
<g id="code">
</g>
<g id="contract">
</g>
<g id="network">
</g>
<g id="cloud">
</g>
<g id="pc">
</g>
<g id="anonymous">
</g>
</svg>
