<?xml version="1.0" encoding="utf-8"?>
<!-- Generator: Adobe Illustrator 21.1.0, SVG Export Plug-In . SVG Version: 6.00 Build 0)  -->
<svg version="1.1" xmlns="http://www.w3.org/2000/svg" xmlns:xlink="http://www.w3.org/1999/xlink" x="0px" y="0px"
	 viewBox="0 0 44 44" style="enable-background:new 0 0 44 44;" xml:space="preserve">
<g id="trolley">
</g>
<g id="wallet">
</g>
<g id="shield">
</g>
<g id="pickaxe">
</g>
<g id="lock">
</g>
<g id="key">
</g>
<g id="mobile">
</g>
<g id="coins">
</g>
<g id="trade">
</g>
<g id="blockchain">
</g>
<g id="exchange">
</g>
<g id="graph">
</g>
<g id="video_x5F_card">
</g>
<g id="bitcoin">
</g>
<g id="code">
</g>
<g id="contract">
</g>
<g id="network">
</g>
<g id="cloud">
	<g>
		<path d="M40.5,31c-0.3,0-0.5,0.2-0.5,0.5v1c0,0.3,0.2,0.5,0.5,0.5s0.5-0.2,0.5-0.5v-1C41,31.2,40.8,31,40.5,31z"/>
		<path d="M8.5,35C8.2,35,8,35.2,8,35.5v1C8,36.8,8.2,37,8.5,37S9,36.8,9,36.5v-1C9,35.2,8.8,35,8.5,35z"/>
		<path d="M40.5,25c-0.3,0-0.5,0.2-0.5,0.5v3c0,0.3,0.2,0.5,0.5,0.5s0.5-0.2,0.5-0.5v-3C41,25.2,40.8,25,40.5,25z"/>
		<path d="M32.5,28c-0.3,0-0.5,0.2-0.5,0.5v5c0,0.3,0.2,0.5,0.5,0.5s0.5-0.2,0.5-0.5v-5C33,28.2,32.8,28,32.5,28z"/>
		<path d="M19.5,36c-0.3,0-0.5,0.2-0.5,0.5v5c0,0.3,0.2,0.5,0.5,0.5s0.5-0.2,0.5-0.5v-5C20,36.2,19.8,36,19.5,36z"/>
		<path d="M26.5,35c-0.3,0-0.5,0.2-0.5,0.5v3c0,0.3,0.2,0.5,0.5,0.5s0.5-0.2,0.5-0.5v-3C27,35.2,26.8,35,26.5,35z"/>
		<path d="M5.5,37C5.2,37,5,37.2,5,37.5v3C5,40.8,5.2,41,5.5,41S6,40.8,6,40.5v-3C6,37.2,5.8,37,5.5,37z"/>
		<path d="M13,30.5c0-0.3-0.2-0.5-0.5-0.5S12,30.2,12,30.5v5c0,0.3,0.2,0.5,0.5,0.5s0.5-0.2,0.5-0.5V30.5z"/>
		<path d="M36,8c-0.1,0-0.3,0-0.4,0C34.3,3.3,30,0,25,0c-1.9,0-3.8,0.5-5.5,1.5C18,2.3,16.7,3.5,15.8,5c-1.2-0.6-2.5-1-3.8-1
			c-4.4,0-8,3.6-8,8c0,0.1,0,0.2,0,0.3c-2.4,0.8-4,3.1-4,5.7c0,3,2.2,5.4,5,5.9v2.8c0,0.4-0.2,0.8-0.4,1.1l-1.8,1.8
			C2.3,30,2,30.7,2,31.3v1.8c-0.6,0.2-1,0.8-1,1.4C1,35.3,1.7,36,2.5,36S4,35.3,4,34.5c0-0.7-0.4-1.2-1-1.4v-1.8
			c0-0.4,0.2-0.8,0.4-1.1l1.8-1.8C5.7,28,6,27.3,6,26.7V24h2v6.1c-0.6,0.2-1,0.8-1,1.4C7,32.3,7.7,33,8.5,33s1.5-0.7,1.5-1.5
			c0-0.7-0.4-1.2-1-1.4V24h3.2c0.7,3.6,3.3,6.4,6.7,7.5c-0.1,0.3-0.2,0.5-0.4,0.7l-3.8,3.8c-0.5,0.5-0.7,1.1-0.7,1.8v2.3
			c-0.6,0.2-1,0.8-1,1.4c0,0.8,0.7,1.5,1.5,1.5s1.5-0.7,1.5-1.5c0-0.7-0.4-1.2-1-1.4v-2.3c0-0.4,0.2-0.8,0.4-1.1l3.8-3.8
			c0.3-0.3,0.5-0.7,0.6-1.2c0.7,0.1,1.4,0.2,2.1,0.2c0.3,0,0.7,0,1-0.1v7.1c-0.6,0.2-1,0.8-1,1.4c0,0.8,0.7,1.5,1.5,1.5
			s1.5-0.7,1.5-1.5c0-0.7-0.4-1.2-1-1.4v-7.3c0.7-0.1,1.4-0.4,2-0.6v0c0,0.7,0.3,1.3,0.7,1.8l2.8,2.8c0.3,0.3,0.4,0.7,0.4,1.1v4.3
			c-0.6,0.2-1,0.8-1,1.4c0,0.8,0.7,1.5,1.5,1.5s1.5-0.7,1.5-1.5c0-0.7-0.4-1.2-1-1.4v-4.3c0-0.7-0.3-1.3-0.7-1.8l-2.8-2.8
			c-0.3-0.3-0.4-0.7-0.4-1.1v-0.5c2.4-1.4,4.2-3.8,4.8-6.6H34v0.7c0,0.7,0.3,1.3,0.7,1.8l1.8,1.8c0.3,0.3,0.4,0.7,0.4,1.1v2.3
			c0,0.4-0.2,0.8-0.4,1.1l-0.8,0.8C35.3,34,35,34.7,35,35.3v0.8c-0.6,0.2-1,0.8-1,1.4c0,0.8,0.7,1.5,1.5,1.5s1.5-0.7,1.5-1.5
			c0-0.7-0.4-1.2-1-1.4v-0.8c0-0.4,0.2-0.8,0.4-1.1l0.8-0.8c0.5-0.5,0.7-1.1,0.7-1.8v-2.3c0-0.7-0.3-1.3-0.7-1.8l-1.8-1.8
			c-0.3-0.3-0.4-0.7-0.4-1.1V24h1c4.4,0,8-3.6,8-8S40.4,8,36,8z M2.5,35C2.2,35,2,34.8,2,34.5S2.2,34,2.5,34S3,34.2,3,34.5
			S2.8,35,2.5,35z M14.5,42c-0.3,0-0.5-0.2-0.5-0.5s0.2-0.5,0.5-0.5s0.5,0.2,0.5,0.5S14.8,42,14.5,42z M30.5,42
			c0.3,0,0.5,0.2,0.5,0.5S30.8,43,30.5,43S30,42.8,30,42.5S30.2,42,30.5,42z M35.5,38c-0.3,0-0.5-0.2-0.5-0.5s0.2-0.5,0.5-0.5
			s0.5,0.2,0.5,0.5S35.8,38,35.5,38z M8.5,32C8.2,32,8,31.8,8,31.5S8.2,31,8.5,31S9,31.2,9,31.5S8.8,32,8.5,32z M23.5,41
			c-0.3,0-0.5-0.2-0.5-0.5s0.2-0.5,0.5-0.5s0.5,0.2,0.5,0.5S23.8,41,23.5,41z M22,30c-4.4,0-8-3.6-8-8s3.6-8,8-8s8,3.6,8,8
			S26.4,30,22,30z M36,22h-4c0-5.5-4.5-10-10-10s-10,4.5-10,10H6c-2.2,0-4-1.8-4-4c0-1.9,1.4-3.6,3.3-3.9c0,0,0,0,0,0
			C5.5,14,5.8,14,6,14c1.6,0,3,0.9,3.7,2.4c0.2,0.5,0.8,0.7,1.3,0.5c0.5-0.2,0.7-0.8,0.5-1.3C10.5,13.4,8.4,12,6,12c0-3.3,2.7-6,6-6
			c1.2,0,2.4,0.4,3.5,1.1c0.8,0.6,1.5,1.4,2,2.3C17.6,9.8,18,10,18.3,10c0.1,0,0.3,0,0.4-0.1c0.5-0.2,0.7-0.8,0.5-1.3
			c-0.4-0.9-1.1-1.7-1.8-2.4c0.8-1.2,1.8-2.2,3.1-3C21.9,2.4,23.4,2,25,2c4,0,7.5,2.6,8.6,6.4c-1.8,0.6-3.4,1.8-4.5,3.5
			c-0.3,0.5-0.1,1.1,0.3,1.4c0.2,0.1,0.3,0.1,0.5,0.1c0.3,0,0.7-0.2,0.9-0.5c0.9-1.5,2.4-2.5,4.2-2.8c0.1,0,0.3,0,0.4-0.1
			c0.2,0,0.4,0,0.6,0c3.3,0,6,2.7,6,6S39.3,22,36,22z"/>
		<path d="M25.6,21.5C25.8,21,26,20.5,26,20c0-1.7-1.3-3-3-3c0-0.6-0.4-1-1-1s-1,0.4-1,1h-2c-0.6,0-1,0.4-1,1s0.4,1,1,1v6
			c-0.6,0-1,0.4-1,1s0.4,1,1,1h2c0,0.6,0.4,1,1,1s1-0.4,1-1h1c1.7,0,3-1.3,3-3C27,22.9,26.4,22,25.6,21.5z M21,19h2c0.6,0,1,0.4,1,1
			s-0.4,1-1,1h-2V19z M24,25h-3v-2h3c0.6,0,1,0.4,1,1S24.6,25,24,25z"/>
	</g>
</g>
<g id="pc">
</g>
<g id="anonymous">
</g>
</svg>
