<?xml version="1.0" encoding="utf-8"?>
<!-- Generator: Adobe Illustrator 21.1.0, SVG Export Plug-In . SVG Version: 6.00 Build 0)  -->
<svg version="1.1" xmlns="http://www.w3.org/2000/svg" xmlns:xlink="http://www.w3.org/1999/xlink" x="0px" y="0px"
	 viewBox="0 0 44 44" style="enable-background:new 0 0 44 44;" xml:space="preserve">
<g id="trolley">
</g>
<g id="wallet">
</g>
<g id="shield">
</g>
<g id="pickaxe">
</g>
<g id="lock">
</g>
<g id="key">
</g>
<g id="mobile">
</g>
<g id="coins">
</g>
<g id="trade">
</g>
<g id="blockchain">
</g>
<g id="exchange">
</g>
<g id="graph">
</g>
<g id="video_x5F_card">
</g>
<g id="bitcoin">
</g>
<g id="code">
	<g>
		<circle cx="5" cy="6" r="1"/>
		<circle cx="9" cy="6" r="1"/>
		<circle cx="13" cy="6" r="1"/>
		<path d="M4.5,13h6c0.3,0,0.5-0.2,0.5-0.5S10.8,12,10.5,12h-6C4.2,12,4,12.2,4,12.5S4.2,13,4.5,13z"/>
		<path d="M19.5,33h-6c-0.3,0-0.5,0.2-0.5,0.5s0.2,0.5,0.5,0.5h6c0.3,0,0.5-0.2,0.5-0.5S19.8,33,19.5,33z"/>
		<path d="M7,15.5C7,15.8,7.2,16,7.5,16h6c0.3,0,0.5-0.2,0.5-0.5S13.8,15,13.5,15h-6C7.2,15,7,15.2,7,15.5z"/>
		<path d="M34.5,15h-6c-0.3,0-0.5,0.2-0.5,0.5s0.2,0.5,0.5,0.5h6c0.3,0,0.5-0.2,0.5-0.5S34.8,15,34.5,15z"/>
		<path d="M16.5,25h6c0.3,0,0.5-0.2,0.5-0.5S22.8,24,22.5,24h-6c-0.3,0-0.5,0.2-0.5,0.5S16.2,25,16.5,25z"/>
		<path d="M27.5,18h-6c-0.3,0-0.5,0.2-0.5,0.5s0.2,0.5,0.5,0.5h6c0.3,0,0.5-0.2,0.5-0.5S27.8,18,27.5,18z"/>
		<path d="M14,24.5c0-0.3-0.2-0.5-0.5-0.5h-6C7.2,24,7,24.2,7,24.5S7.2,25,7.5,25h6C13.8,25,14,24.8,14,24.5z"/>
		<path d="M16.5,16h3c0.3,0,0.5-0.2,0.5-0.5S19.8,15,19.5,15h-3c-0.3,0-0.5,0.2-0.5,0.5S16.2,16,16.5,16z"/>
		<path d="M22.5,16h3c0.3,0,0.5-0.2,0.5-0.5S25.8,15,25.5,15h-3c-0.3,0-0.5,0.2-0.5,0.5S22.2,16,22.5,16z"/>
		<path d="M10.5,27h-3C7.2,27,7,27.2,7,27.5S7.2,28,7.5,28h3c0.3,0,0.5-0.2,0.5-0.5S10.8,27,10.5,27z"/>
		<path d="M8,21.5C8,21.2,7.8,21,7.5,21h-3C4.2,21,4,21.2,4,21.5S4.2,22,4.5,22h3C7.8,22,8,21.8,8,21.5z"/>
		<path d="M10.5,33h-3C7.2,33,7,33.2,7,33.5S7.2,34,7.5,34h3c0.3,0,0.5-0.2,0.5-0.5S10.8,33,10.5,33z"/>
		<path d="M19,18.5c0-0.3-0.2-0.5-0.5-0.5h-11C7.2,18,7,18.2,7,18.5S7.2,19,7.5,19h11C18.8,19,19,18.8,19,18.5z"/>
		<path d="M24.5,27h-11c-0.3,0-0.5,0.2-0.5,0.5s0.2,0.5,0.5,0.5h11c0.3,0,0.5-0.2,0.5-0.5S24.8,27,24.5,27z"/>
		<path d="M7,30.5C7,30.8,7.2,31,7.5,31h11c0.3,0,0.5-0.2,0.5-0.5S18.8,30,18.5,30h-11C7.2,30,7,30.2,7,30.5z"/>
		<path d="M41,2H3C1.3,2,0,3.3,0,5v4v26c0,1.7,1.3,3,3,3h23c1.8,2.4,4.7,4,8,4c3.4,0,6.3-1.7,8.2-4.2c1.1-0.5,1.8-1.5,1.8-2.8V9V5
			C44,3.3,42.7,2,41,2z M2,5c0-0.6,0.4-1,1-1h38c0.6,0,1,0.4,1,1v3H2V5z M34,40c-4.4,0-8-3.6-8-8s3.6-8,8-8s8,3.6,8,8S38.4,40,34,40
			z M34,22c-4.8,0-8.9,3.4-9.8,8h-2.7c-0.3,0-0.5,0.2-0.5,0.5s0.2,0.5,0.5,0.5h2.6c0,0.3-0.1,0.7-0.1,1s0,0.7,0.1,1h-1.6
			c-0.3,0-0.5,0.2-0.5,0.5s0.2,0.5,0.5,0.5h1.7c0.1,0.7,0.4,1.4,0.6,2H3c-0.6,0-1-0.4-1-1V10h40v16C40.2,23.6,37.3,22,34,22z"/>
		<path d="M37.6,31.5C37.8,31,38,30.5,38,30c0-1.7-1.3-3-3-3c0-0.6-0.4-1-1-1s-1,0.4-1,1h-2c-0.6,0-1,0.4-1,1s0.4,1,1,1v6
			c-0.6,0-1,0.4-1,1s0.4,1,1,1h2c0,0.6,0.4,1,1,1s1-0.4,1-1h1c1.7,0,3-1.3,3-3C39,32.9,38.4,32,37.6,31.5z M33,29h2c0.6,0,1,0.4,1,1
			s-0.4,1-1,1h-2V29z M36,35h-3v-2h3c0.6,0,1,0.4,1,1S36.6,35,36,35z"/>
	</g>
</g>
<g id="contract">
</g>
<g id="network">
</g>
<g id="cloud">
</g>
<g id="pc">
</g>
<g id="anonymous">
</g>
</svg>
