<?xml version="1.0" encoding="utf-8"?>
<!-- Generator: Adobe Illustrator 21.1.0, SVG Export Plug-In . SVG Version: 6.00 Build 0)  -->
<svg version="1.1" xmlns="http://www.w3.org/2000/svg" xmlns:xlink="http://www.w3.org/1999/xlink" x="0px" y="0px"
	 viewBox="0 0 44 44" style="enable-background:new 0 0 44 44;" xml:space="preserve">
<g id="trolley">
</g>
<g id="wallet">
</g>
<g id="shield">
</g>
<g id="pickaxe">
</g>
<g id="lock">
</g>
<g id="key">
</g>
<g id="mobile">
</g>
<g id="coins">
	<g>
		<path d="M13,16c-5,0-9,4-9,9c0,5,4,9,9,9c5,0,9-4,9-9C22,20,18,16,13,16z M13,33c-4.4,0-8-3.6-8-8s3.6-8,8-8s8,3.6,8,8
			S17.4,33,13,33z"/>
		<path d="M16.6,24.5C16.8,24,17,23.5,17,23c0-1.7-1.3-3-3-3c0-0.6-0.4-1-1-1s-1,0.4-1,1h-2c-0.6,0-1,0.4-1,1s0.4,1,1,1v6
			c-0.6,0-1,0.4-1,1s0.4,1,1,1h2c0,0.6,0.4,1,1,1s1-0.4,1-1h1c1.7,0,3-1.3,3-3C18,25.9,17.4,25,16.6,24.5z M12,22h2c0.6,0,1,0.4,1,1
			s-0.4,1-1,1h-2V22z M15,28h-3v-2h3c0.6,0,1,0.4,1,1S15.6,28,15,28z"/>
		<path d="M43,26h-2v-3h1c0.6,0,1-0.4,1-1v-5c0-0.6-0.4-1-1-1h-3v-3h2c0.6,0,1-0.4,1-1V7c0-0.6-0.4-1-1-1H18c-0.6,0-1,0.4-1,1v4h-2
			c-0.6,0-1,0.4-1,1v0.1c-0.3,0-0.7-0.1-1-0.1C5.8,12,0,17.8,0,25s5.8,13,13,13c0.5,0,1.1,0,1.6-0.1C14.7,38,14.8,38,15,38h23
			c0.6,0,1-0.4,1-1v-4h4c0.6,0,1-0.4,1-1v-5C44,26.4,43.6,26,43,26z M41,18v3h-1h-1v-1.5c0-0.3-0.2-0.5-0.5-0.5S38,19.2,38,19.5V21
			h-3v-1.5c0-0.3-0.2-0.5-0.5-0.5S34,19.2,34,19.5V21h-3v-1.5c0-0.3-0.2-0.5-0.5-0.5S30,19.2,30,19.5V21h-3v-1.5
			c0-0.3-0.2-0.5-0.5-0.5S26,19.2,26,19.5V21h-0.6c-0.3-1.1-0.8-2.1-1.4-3H38H41z M36.5,24c-0.3,0-0.5,0.2-0.5,0.5V26h-3v-1.5
			c0-0.3-0.2-0.5-0.5-0.5S32,24.2,32,24.5V26h-3v-1.5c0-0.3-0.2-0.5-0.5-0.5S28,24.2,28,24.5V26h-2.1c0-0.3,0.1-0.7,0.1-1
			c0-0.7-0.1-1.3-0.2-2H39v3h-2v-1.5C37,24.2,36.8,24,36.5,24z M37,16h-2v-1.5c0-0.3-0.2-0.5-0.5-0.5S34,14.2,34,14.5V16h-3v-1.5
			c0-0.3-0.2-0.5-0.5-0.5S30,14.2,30,14.5V16h-3v-1.5c0-0.3-0.2-0.5-0.5-0.5S26,14.2,26,14.5V16h-3v-1.5c0-0.3-0.2-0.5-0.5-0.5
			S22,14.2,22,14.5v1.1c-1.2-1.1-2.5-2-4-2.6h0h19V16z M19,8h21v3h-2V9.5C38,9.2,37.8,9,37.5,9S37,9.2,37,9.5V11h-3V9.5
			C34,9.2,33.8,9,33.5,9S33,9.2,33,9.5V11h-3V9.5C30,9.2,29.8,9,29.5,9S29,9.2,29,9.5V11h-3V9.5C26,9.2,25.8,9,25.5,9S25,9.2,25,9.5
			V11h-3V9.5C22,9.2,21.8,9,21.5,9S21,9.2,21,9.5V11h-2V8z M2,25c0-6.1,4.9-11,11-11s11,4.9,11,11s-4.9,11-11,11S2,31.1,2,25z
			 M22,36h-2.1c0.8-0.5,1.5-1,2.1-1.7c0,0.1,0,0.1,0,0.2V36z M37,36h-2v-1.5c0-0.3-0.2-0.5-0.5-0.5S34,34.2,34,34.5V36h-3v-1.5
			c0-0.3-0.2-0.5-0.5-0.5S30,34.2,30,34.5V36h-3v-1.5c0-0.3-0.2-0.5-0.5-0.5S26,34.2,26,34.5V36h-3v-1.5c0-0.3-0.2-0.5-0.5-0.5
			c-0.1,0-0.1,0-0.2,0c0.3-0.3,0.6-0.7,0.9-1H37V36z M42,31h-2v-1.5c0-0.3-0.2-0.5-0.5-0.5S39,29.2,39,29.5V31h-1h-2v-1.5
			c0-0.3-0.2-0.5-0.5-0.5S35,29.2,35,29.5V31h-3v-1.5c0-0.3-0.2-0.5-0.5-0.5S31,29.2,31,29.5V31h-3v-1.5c0-0.3-0.2-0.5-0.5-0.5
			S27,29.2,27,29.5V31h-2.5c0.5-0.9,0.9-1.9,1.1-3H40h2V31z"/>
	</g>
</g>
<g id="trade">
</g>
<g id="blockchain">
</g>
<g id="exchange">
</g>
<g id="graph">
</g>
<g id="video_x5F_card">
</g>
<g id="bitcoin">
</g>
<g id="code">
</g>
<g id="contract">
</g>
<g id="network">
</g>
<g id="cloud">
</g>
<g id="pc">
</g>
<g id="anonymous">
</g>
</svg>
