<?xml version="1.0" encoding="utf-8"?>
<!-- Generator: Adobe Illustrator 21.1.0, SVG Export Plug-In . SVG Version: 6.00 Build 0)  -->
<svg version="1.1" xmlns="http://www.w3.org/2000/svg" xmlns:xlink="http://www.w3.org/1999/xlink" x="0px" y="0px"
	 viewBox="0 0 44 44" style="enable-background:new 0 0 44 44;" xml:space="preserve">
<g id="trolley">
</g>
<g id="wallet">
</g>
<g id="shield">
</g>
<g id="pickaxe">
</g>
<g id="lock">
</g>
<g id="key">
</g>
<g id="mobile">
</g>
<g id="coins">
</g>
<g id="trade">
</g>
<g id="blockchain">
</g>
<g id="exchange">
</g>
<g id="graph">
	<g>
		<path d="M43.6,38.2l-3-2c-0.5-0.3-1.1-0.2-1.4,0.3s-0.2,1.1,0.3,1.4l0.3,0.2H2V8.3l0.2,0.3C2.5,9,3.1,9.1,3.6,8.8
			C4,8.5,4.1,7.9,3.8,7.4l-2-3C1.6,4.1,1.1,3.9,0.7,4C0.3,4.2,0,4.6,0,5v34c0,0.6,0.4,1,1,1h42c0.4,0,0.8-0.3,1-0.7
			C44.1,38.9,43.9,38.4,43.6,38.2z"/>
		<path d="M43,17h-1v-4.5c0-0.3-0.2-0.5-0.5-0.5S41,12.2,41,12.5V17h-1c-0.3,0-0.6,0.2-0.8,0.4L37,14.9V8c0-0.6-0.4-1-1-1h-1V4.5
			C35,4.2,34.8,4,34.5,4S34,4.2,34,4.5V7h-1c-0.6,0-1,0.4-1,1v5.4L30,15v-1c0-0.6-0.4-1-1-1h-1v-2.5c0-0.3-0.2-0.5-0.5-0.5
			S27,10.2,27,10.5V13h-1c-0.6,0-1,0.4-1,1v5.6l-2,2V20c0-0.6-0.4-1-1-1h-1v-2.5c0-0.3-0.2-0.5-0.5-0.5S20,16.2,20,16.5V19h-1
			c-0.6,0-1,0.4-1,1v3.3l-2-1.4V18c0-0.6-0.4-1-1-1h-1v-6.5c0-0.3-0.2-0.5-0.5-0.5S13,10.2,13,10.5V17h-1c-0.6,0-1,0.4-1,1v3.6
			l-2.1,2.1C8.8,23.3,8.4,23,8,23H7v-2.5C7,20.2,6.8,20,6.5,20S6,20.2,6,20.5V23H5c-0.6,0-1,0.4-1,1v8c0,0.6,0.4,1,1,1h1v2.5
			C6,35.8,6.2,36,6.5,36S7,35.8,7,35.5V33h1c0.6,0,1-0.4,1-1v-5.6l2.1-2.1c0.1,0.4,0.5,0.7,0.9,0.7h1v6.5c0,0.3,0.2,0.5,0.5,0.5
			s0.5-0.2,0.5-0.5V25h1c0.4,0,0.8-0.3,0.9-0.7l2.1,1.5V32c0,0.6,0.4,1,1,1h1v2.5c0,0.3,0.2,0.5,0.5,0.5s0.5-0.2,0.5-0.5V33h1
			c0.6,0,1-0.4,1-1v-7.6l2.5-2.5c0.1,0.1,0.3,0.1,0.5,0.1h1v2.5c0,0.3,0.2,0.5,0.5,0.5s0.5-0.2,0.5-0.5V22h1c0.6,0,1-0.4,1-1v-3.4
			l2-1.7v2c0,0.6,0.4,1,1,1h1v4.5c0,0.3,0.2,0.5,0.5,0.5s0.5-0.2,0.5-0.5V19h1c0.6,0,1-0.4,1-1v-0.1l2,2.3V24c0,0.6,0.4,1,1,1h1v4.5
			c0,0.3,0.2,0.5,0.5,0.5s0.5-0.2,0.5-0.5V25h1c0.6,0,1-0.4,1-1v-6C44,17.4,43.6,17,43,17z M8,32H5v-8h3V32z M15,24h-3v-6h3V24z
			 M22,32h-3V20h3V32z M29,21h-3v-7h3V21z M36,18h-3V8h3V18z M43,24h-3v-6h3V24z"/>
	</g>
</g>
<g id="video_x5F_card">
</g>
<g id="bitcoin">
</g>
<g id="code">
</g>
<g id="contract">
</g>
<g id="network">
</g>
<g id="cloud">
</g>
<g id="pc">
</g>
<g id="anonymous">
</g>
</svg>
