<?xml version="1.0" encoding="utf-8"?>
<!-- Generator: Adobe Illustrator 21.1.0, SVG Export Plug-In . SVG Version: 6.00 Build 0)  -->
<svg version="1.1" xmlns="http://www.w3.org/2000/svg" xmlns:xlink="http://www.w3.org/1999/xlink" x="0px" y="0px"
	 viewBox="0 0 44 44" style="enable-background:new 0 0 44 44;" xml:space="preserve">
<g id="trolley">
</g>
<g id="wallet">
</g>
<g id="shield">
</g>
<g id="pickaxe">
</g>
<g id="lock">
</g>
<g id="key">
	<g>
		<path d="M40,26.5v5c0,0.3,0.2,0.5,0.5,0.5s0.5-0.2,0.5-0.5v-5c0-0.3-0.2-0.5-0.5-0.5S40,26.2,40,26.5z"/>
		<path d="M2.5,9h5C7.8,9,8,8.8,8,8.5S7.8,8,7.5,8h-5C2.2,8,2,8.2,2,8.5S2.2,9,2.5,9z"/>
		<path d="M29.5,35.5c-0.3,0-0.5,0.2-0.5,0.5v5c0,0.3,0.2,0.5,0.5,0.5S30,41.3,30,41v-5C30,35.7,29.8,35.5,29.5,35.5z"/>
		<path d="M36.5,34.5c-0.3,0-0.5,0.2-0.5,0.5v3c0,0.3,0.2,0.5,0.5,0.5S37,38.3,37,38v-3C37,34.7,36.8,34.5,36.5,34.5z"/>
		<path d="M3.5,15C3.2,15,3,15.2,3,15.5S3.2,16,3.5,16h3C6.8,16,7,15.8,7,15.5S6.8,15,6.5,15H3.5z"/>
		<path d="M11.5,22c0.3,0,0.5-0.2,0.5-0.5S11.8,21,11.5,21h-2C9.2,21,9,21.2,9,21.5S9.2,22,9.5,22H11.5z"/>
		<path d="M21.5,31.5c-0.3,0-0.5,0.2-0.5,0.5v5c0,0.3,0.2,0.5,0.5,0.5S22,37.3,22,37v-5C22,31.7,21.8,31.5,21.5,31.5z"/>
		<path d="M8.5,25C8.8,25,9,24.8,9,24.5S8.8,24,8.5,24h-5C3.2,24,3,24.2,3,24.5S3.2,25,3.5,25H8.5z"/>
		<path d="M41,40.1v-4.3c0-0.7-0.3-1.3-0.7-1.8l-2.8-2.8c-0.3-0.3-0.4-0.7-0.4-1.1v-4.1c4.2-2.4,7-6.9,7-12.1c0-7.7-6.3-14-14-14
			c-3.3,0-6.3,1.1-8.6,3H17c-0.3,0-0.5,0.2-0.5,0.5S16.7,4,17,4h3.2c-0.9,0.9-1.7,1.9-2.3,3h-3.6c-0.4,0-0.8-0.2-1.1-0.4l-1.8-1.8
			C11,4.3,10.3,4,9.7,4H8.9C8.7,3.4,8.2,3,7.5,3C6.7,3,6,3.7,6,4.5S6.7,6,7.5,6c0.7,0,1.2-0.4,1.4-1h0.8c0.4,0,0.8,0.2,1.1,0.4
			l1.8,1.8C13,7.7,13.7,8,14.3,8h3c-0.5,0.9-0.8,1.9-1,3H9.9c-0.2-0.6-0.8-1-1.4-1C7.7,10,7,10.7,7,11.5S7.7,13,8.5,13
			c0.7,0,1.2-0.4,1.4-1h6.3c-0.1,0.7-0.2,1.3-0.2,2h-3.2c-0.7,0-1.3,0.3-1.8,0.7l-4.8,4.8C5.9,19.8,5.6,20,5.2,20H2.9
			c-0.2-0.6-0.8-1-1.4-1C0.7,19,0,19.7,0,20.5S0.7,22,1.5,22c0.7,0,1.2-0.4,1.4-1h2.3c0.7,0,1.3-0.3,1.8-0.7l4.8-4.8
			c0.3-0.3,0.7-0.4,1.1-0.4h3.2c0.1,0.7,0.2,1.5,0.3,2.2L15,18.6c-0.6,0.6-1,1.5-1,2.4c0,0.7,0.2,1.4,0.6,2L0.3,37.3
			C0.1,37.5,0,37.7,0,38v5c0,0.6,0.4,1,1,1h5c0.3,0,0.5-0.1,0.7-0.3l2-2c0.1-0.1,0.2-0.2,0.2-0.4L9.7,39H11c0.4,0,0.8-0.3,0.9-0.7
			l0.8-2.3H14c0.4,0,0.8-0.3,0.9-0.7l0.8-2.3H17c0.3,0,0.5-0.1,0.7-0.3l3.3-3.3c0.6,0.4,1.2,0.6,2,0.6c0,0,0,0,0,0
			c0.9,0,1.8-0.4,2.4-1l1.4-1.4c0.7,0.2,1.5,0.3,2.2,0.3v2.2c0,0.4-0.2,0.8-0.4,1.1l-3.8,3.8c-0.5,0.5-0.7,1.1-0.7,1.8v2.3
			c-0.6,0.2-1,0.8-1,1.4c0,0.8,0.7,1.5,1.5,1.5s1.5-0.7,1.5-1.5c0-0.7-0.4-1.2-1-1.4v-2.3c0-0.4,0.2-0.8,0.4-1.1l3.8-3.8
			c0.5-0.5,0.7-1.1,0.7-1.8V28c1,0,2-0.1,3-0.3v10.4c-0.6,0.2-1,0.8-1,1.4c0,0.8,0.7,1.5,1.5,1.5s1.5-0.7,1.5-1.5
			c0-0.7-0.4-1.2-1-1.4V27.4c0.7-0.2,1.4-0.5,2-0.8v3.5c0,0.7,0.3,1.3,0.7,1.8l2.8,2.8c0.3,0.3,0.4,0.7,0.4,1.1v4.3
			c-0.6,0.2-1,0.8-1,1.4c0,0.8,0.7,1.5,1.5,1.5s1.5-0.7,1.5-1.5C42,40.8,41.6,40.3,41,40.1z M7.5,5C7.2,5,7,4.8,7,4.5S7.2,4,7.5,4
			S8,4.2,8,4.5S7.8,5,7.5,5z M8.5,12C8.2,12,8,11.8,8,11.5S8.2,11,8.5,11S9,11.2,9,11.5S8.8,12,8.5,12z M1.5,21
			C1.2,21,1,20.8,1,20.5S1.2,20,1.5,20S2,20.2,2,20.5S1.8,21,1.5,21z M24.5,41c-0.3,0-0.5-0.2-0.5-0.5s0.2-0.5,0.5-0.5
			s0.5,0.2,0.5,0.5S24.8,41,24.5,41z M16.6,31H15c-0.4,0-0.8,0.3-0.9,0.7L13.3,34H12c-0.4,0-0.8,0.3-0.9,0.7L10.3,37H9
			c-0.4,0-0.8,0.3-0.9,0.7l-0.9,2.8L5.6,42H2v-3.6l14-14l0.9,0.9L5.1,37.1c-0.2,0.2-0.2,0.5,0,0.7C5.2,38,5.4,38,5.5,38
			s0.3,0,0.4-0.1l11.8-11.8l1.9,1.9L16.6,31z M24,27.6c-0.3,0.3-0.6,0.4-1,0.4h0c-0.4,0-0.7-0.1-1-0.4L16.4,22
			c-0.3-0.3-0.4-0.6-0.4-1c0-0.4,0.1-0.7,0.4-1l0.7-0.7c1.4,3.4,4.2,6.2,7.6,7.6L24,27.6z M33.5,40c-0.3,0-0.5-0.2-0.5-0.5
			s0.2-0.5,0.5-0.5s0.5,0.2,0.5,0.5S33.8,40,33.5,40z M30,26c-6.6,0-12-5.4-12-12S23.4,2,30,2s12,5.4,12,12S36.6,26,30,26z M40.5,42
			c-0.3,0-0.5-0.2-0.5-0.5s0.2-0.5,0.5-0.5s0.5,0.2,0.5,0.5S40.8,42,40.5,42z"/>
		<path d="M30,4c-5.5,0-10,4.5-10,10c0,5.5,4.5,10,10,10s10-4.5,10-10C40,8.5,35.5,4,30,4z M30,23c-5,0-9-4-9-9c0-5,4-9,9-9s9,4,9,9
			C39,19,35,23,30,23z"/>
		<path d="M33.6,13.5C33.8,13,34,12.5,34,12c0-1.7-1.3-3-3-3c0-0.6-0.4-1-1-1s-1,0.4-1,1h-2c-0.6,0-1,0.4-1,1s0.4,1,1,1v6
			c-0.6,0-1,0.4-1,1s0.4,1,1,1h2c0,0.6,0.4,1,1,1s1-0.4,1-1h1c1.7,0,3-1.3,3-3C35,14.9,34.4,14,33.6,13.5z M29,11h2c0.6,0,1,0.4,1,1
			s-0.4,1-1,1h-2V11z M32,17h-3v-2h3c0.6,0,1,0.4,1,1S32.6,17,32,17z"/>
	</g>
</g>
<g id="mobile">
</g>
<g id="coins">
</g>
<g id="trade">
</g>
<g id="blockchain">
</g>
<g id="exchange">
</g>
<g id="graph">
</g>
<g id="video_x5F_card">
</g>
<g id="bitcoin">
</g>
<g id="code">
</g>
<g id="contract">
</g>
<g id="network">
</g>
<g id="cloud">
</g>
<g id="pc">
</g>
<g id="anonymous">
</g>
</svg>
