<?xml version="1.0" encoding="utf-8"?>
<!-- Generator: Adobe Illustrator 21.1.0, SVG Export Plug-In . SVG Version: 6.00 Build 0)  -->
<svg version="1.1" xmlns="http://www.w3.org/2000/svg" xmlns:xlink="http://www.w3.org/1999/xlink" x="0px" y="0px"
	 viewBox="0 0 44 44" style="enable-background:new 0 0 44 44;" xml:space="preserve">
<g id="trolley">
</g>
<g id="wallet">
</g>
<g id="shield">
</g>
<g id="pickaxe">
</g>
<g id="lock">
	<g>
		<path d="M25.6,29.5C25.8,29,26,28.5,26,28c0-1.7-1.3-3-3-3c0-0.6-0.4-1-1-1s-1,0.4-1,1h-2c-0.6,0-1,0.4-1,1s0.4,1,1,1v6
			c-0.6,0-1,0.4-1,1s0.4,1,1,1h2c0,0.6,0.4,1,1,1s1-0.4,1-1h1c1.7,0,3-1.3,3-3C27,30.9,26.4,30,25.6,29.5z M21,27h2c0.6,0,1,0.4,1,1
			s-0.4,1-1,1h-2V27z M24,33h-3v-2h3c0.6,0,1,0.4,1,1S24.6,33,24,33z"/>
		<path d="M34,19c0-0.6-0.4-1-1-1v-7c0-6.1-4.9-11-11-11S11,4.9,11,11v7c-0.6,0-1,0.4-1,1c-1.7,0-3,1.3-3,3v16c0,1.7,1.3,3,3,3
			c0,1.7,1.3,3,3,3h18c1.7,0,3-1.3,3-3c1.7,0,3-1.3,3-3V22C37,20.3,35.7,19,34,19z M13,11c0-5,4-9,9-9s9,4,9,9v7h-2v-7
			c0-3.9-3.1-7-7-7s-7,3.1-7,7v7h-2V11z M27,11v7c-0.6,0-1,0.4-1,1h-8c0-0.6-0.4-1-1-1v-7c0-2.8,2.2-5,5-5S27,8.2,27,11z M31,42H13
			c-0.6,0-1-0.4-1-1h20C32,41.6,31.6,42,31,42z M35,23h-4.5c-0.3,0-0.5,0.2-0.5,0.5s0.2,0.5,0.5,0.5H35v3h-4.5
			c-0.3,0-0.5,0.2-0.5,0.5s0.2,0.5,0.5,0.5H35v3h-4.5c-0.3,0-0.5,0.2-0.5,0.5s0.2,0.5,0.5,0.5H35v3h-4.5c-0.3,0-0.5,0.2-0.5,0.5
			s0.2,0.5,0.5,0.5H35v2c0,0.6-0.4,1-1,1H10c-0.6,0-1-0.4-1-1v-2h4.5c0.3,0,0.5-0.2,0.5-0.5S13.8,35,13.5,35H9v-3h4.5
			c0.3,0,0.5-0.2,0.5-0.5S13.8,31,13.5,31H9v-3h4.5c0.3,0,0.5-0.2,0.5-0.5S13.8,27,13.5,27H9v-3h4.5c0.3,0,0.5-0.2,0.5-0.5
			S13.8,23,13.5,23H9v-1c0-0.6,0.4-1,1-1h24c0.6,0,1,0.4,1,1V23z"/>
	</g>
</g>
<g id="key">
</g>
<g id="mobile">
</g>
<g id="coins">
</g>
<g id="trade">
</g>
<g id="blockchain">
</g>
<g id="exchange">
</g>
<g id="graph">
</g>
<g id="video_x5F_card">
</g>
<g id="bitcoin">
</g>
<g id="code">
</g>
<g id="contract">
</g>
<g id="network">
</g>
<g id="cloud">
</g>
<g id="pc">
</g>
<g id="anonymous">
</g>
</svg>
