<?xml version="1.0" encoding="utf-8"?>
<!-- Generator: Adobe Illustrator 21.1.0, SVG Export Plug-In . SVG Version: 6.00 Build 0)  -->
<svg version="1.1" xmlns="http://www.w3.org/2000/svg" xmlns:xlink="http://www.w3.org/1999/xlink" x="0px" y="0px"
	 viewBox="0 0 44 44" style="enable-background:new 0 0 44 44;" xml:space="preserve">
<g id="trolley">
</g>
<g id="wallet">
</g>
<g id="shield">
</g>
<g id="pickaxe">
</g>
<g id="lock">
</g>
<g id="key">
</g>
<g id="mobile">
	<g>
		<circle cx="11" cy="36" r="1"/>
		<path d="M15,19H9.4l1.3-1.3c0.4-0.4,0.4-1,0-1.4s-1-0.4-1.4,0l-3,3C6,19.6,5.9,20,6.1,20.4C6.2,20.8,6.6,21,7,21h8
			c0.6,0,1-0.4,1-1S15.6,19,15,19z"/>
		<path d="M15,22H7c-0.6,0-1,0.4-1,1s0.4,1,1,1h5.6l-1.3,1.3c-0.4,0.4-0.4,1,0,1.4c0.2,0.2,0.5,0.3,0.7,0.3s0.5-0.1,0.7-0.3l3-3
			c0.3-0.3,0.4-0.7,0.2-1.1C15.8,22.2,15.4,22,15,22z"/>
		<path d="M12.5,7h-3C9.2,7,9,7.2,9,7.5S9.2,8,9.5,8h3C12.8,8,13,7.8,13,7.5S12.8,7,12.5,7z"/>
		<path d="M41.7,33c-1.7,1.5-3.7,2.7-5.8,3.3c-0.3,0.1-0.4,0.4-0.3,0.6c0.1,0.2,0.3,0.4,0.5,0.4c0,0,0.1,0,0.1,0
			c2.3-0.7,4.4-1.9,6.2-3.5c0.2-0.2,0.2-0.5,0-0.7C42.2,32.9,41.9,32.8,41.7,33z"/>
		<path d="M35.9,7.6c1.4,0.4,2.7,1,3.9,1.8c0.1,0.1,0.2,0.1,0.3,0.1c0.2,0,0.3-0.1,0.4-0.2c0.2-0.2,0.1-0.5-0.1-0.7
			c-1.3-0.8-2.7-1.5-4.1-1.9c-0.3-0.1-0.5,0.1-0.6,0.3S35.6,7.6,35.9,7.6z"/>
		<path d="M32.5,36c-0.6,0-1.2,0.4-1.4,1c-3.4-0.1-6.6-1.4-9.1-3.4v-2.2c2.3,2.2,5.5,3.6,9,3.6c7.2,0,13-5.8,13-13S38.2,9,31,9
			c-3.5,0-6.7,1.4-9,3.6v-2.2c2.5-2,5.6-3.3,9.1-3.4c0.2,0.6,0.8,1,1.4,1C33.3,8,34,7.3,34,6.5S33.3,5,32.5,5c-0.7,0-1.2,0.4-1.4,1
			c-3.4,0.1-6.5,1.2-9.1,3.1V7c0-1.7-1.3-3-3-3H3C1.3,4,0,5.3,0,7v30c0,1.7,1.3,3,3,3h16c1.7,0,3-1.3,3-3v-2.2
			c2.6,1.9,5.7,3.1,9.1,3.1c0.2,0.6,0.8,1,1.4,1c0.8,0,1.5-0.7,1.5-1.5S33.3,36,32.5,36z M32.5,6C32.8,6,33,6.2,33,6.5
			S32.8,7,32.5,7S32,6.8,32,6.5S32.2,6,32.5,6z M31,11c6.1,0,11,4.9,11,11s-4.9,11-11,11s-11-4.9-11-11S24.9,11,31,11z M2,7
			c0-0.6,0.4-1,1-1h16c0.6,0,1,0.4,1,1v2H2V7z M20,37c0,0.6-0.4,1-1,1H3c-0.6,0-1-0.4-1-1v-3h18V37z M2,33V10h18v5.1
			c-1.3,2-2,4.4-2,6.9s0.7,4.9,2,6.9V33H2z M32.5,38c-0.3,0-0.5-0.2-0.5-0.5s0.2-0.5,0.5-0.5s0.5,0.2,0.5,0.5S32.8,38,32.5,38z"/>
		<path d="M31,31c5,0,9-4,9-9c0-5-4-9-9-9s-9,4-9,9C22,27,26,31,31,31z M31,14c4.4,0,8,3.6,8,8s-3.6,8-8,8s-8-3.6-8-8S26.6,14,31,14
			z"/>
		<path d="M27,26c0,0.6,0.4,1,1,1h2c0,0.6,0.4,1,1,1s1-0.4,1-1h1c1.7,0,3-1.3,3-3c0-1.1-0.6-2-1.4-2.5C34.8,21,35,20.5,35,20
			c0-1.7-1.3-3-3-3c0-0.6-0.4-1-1-1s-1,0.4-1,1h-2c-0.6,0-1,0.4-1,1s0.4,1,1,1v6C27.4,25,27,25.4,27,26z M30,19h2c0.6,0,1,0.4,1,1
			s-0.4,1-1,1h-2V19z M30,23h3c0.6,0,1,0.4,1,1s-0.4,1-1,1h-3V23z"/>
	</g>
</g>
<g id="coins">
</g>
<g id="trade">
</g>
<g id="blockchain">
</g>
<g id="exchange">
</g>
<g id="graph">
</g>
<g id="video_x5F_card">
</g>
<g id="bitcoin">
</g>
<g id="code">
</g>
<g id="contract">
</g>
<g id="network">
</g>
<g id="cloud">
</g>
<g id="pc">
</g>
<g id="anonymous">
</g>
</svg>
