<?xml version="1.0" encoding="utf-8"?>
<!-- Generator: Adobe Illustrator 21.1.0, SVG Export Plug-In . SVG Version: 6.00 Build 0)  -->
<svg version="1.1" xmlns="http://www.w3.org/2000/svg" xmlns:xlink="http://www.w3.org/1999/xlink" x="0px" y="0px"
	 viewBox="0 0 44 44" style="enable-background:new 0 0 44 44;" xml:space="preserve">
<g id="trolley">
</g>
<g id="wallet">
</g>
<g id="shield">
</g>
<g id="pickaxe">
</g>
<g id="lock">
</g>
<g id="key">
</g>
<g id="mobile">
</g>
<g id="coins">
</g>
<g id="trade">
</g>
<g id="blockchain">
</g>
<g id="exchange">
</g>
<g id="graph">
</g>
<g id="video_x5F_card">
</g>
<g id="bitcoin">
</g>
<g id="code">
</g>
<g id="contract">
</g>
<g id="network">
	<g>
		<path d="M22,13c-5,0-9,4-9,9c0,5,4,9,9,9c5,0,9-4,9-9C31,17,27,13,22,13z M22,30c-4.4,0-8-3.6-8-8s3.6-8,8-8s8,3.6,8,8
			S26.4,30,22,30z"/>
		<path d="M25.6,21.5C25.8,21,26,20.5,26,20c0-1.7-1.3-3-3-3c0-0.6-0.4-1-1-1s-1,0.4-1,1h-2c-0.6,0-1,0.4-1,1s0.4,1,1,1v6
			c-0.6,0-1,0.4-1,1s0.4,1,1,1h2c0,0.6,0.4,1,1,1s1-0.4,1-1h1c1.7,0,3-1.3,3-3C27,22.9,26.4,22,25.6,21.5z M21,19h2c0.6,0,1,0.4,1,1
			s-0.4,1-1,1h-2V19z M24,25h-3v-2h3c0.6,0,1,0.4,1,1S24.6,25,24,25z"/>
		<path d="M41.9,38.2l-1.8-13.4c1.1-0.4,1.9-1.5,1.9-2.8s-0.8-2.3-1.9-2.8l1.8-13.4C43.1,5.5,44,4.3,44,3c0-1.7-1.3-3-3-3
			c-1.3,0-2.5,0.9-2.8,2.1L24.8,3.9C24.3,2.8,23.3,2,22,2s-2.3,0.8-2.8,1.9L5.8,2.1C5.5,0.9,4.3,0,3,0C1.3,0,0,1.3,0,3
			c0,1.3,0.9,2.5,2.1,2.8l1.8,13.4C2.8,19.7,2,20.7,2,22s0.8,2.3,1.9,2.8L2.1,38.2C0.9,38.5,0,39.7,0,41c0,1.7,1.3,3,3,3
			c1.3,0,2.5-0.9,2.8-2.1l13.4-1.8c0.4,1.1,1.5,1.9,2.8,1.9s2.3-0.8,2.8-1.9l13.4,1.8c0.4,1.2,1.5,2.1,2.8,2.1c1.7,0,3-1.3,3-3
			C44,39.7,43.1,38.5,41.9,38.2z M41,2c0.6,0,1,0.4,1,1s-0.4,1-1,1s-1-0.4-1-1S40.4,2,41,2z M39.7,5.7c0.1,0,0.1,0.1,0.2,0.1
			l-1.8,13.4c-0.9,0.3-1.6,1-1.9,1.8h-1.2c-0.2-2.8-1.3-5.4-3.1-7.4L39.7,5.7z M40,22c0,0.6-0.4,1-1,1s-1-0.4-1-1s0.4-1,1-1
			S40,21.4,40,22z M22,33c-6.1,0-11-4.9-11-11s4.9-11,11-11s11,4.9,11,11S28.1,33,22,33z M24.8,5.9l13.4-1.8c0,0.1,0.1,0.1,0.1,0.2
			l-7.9,7.9c-2-1.7-4.6-2.9-7.4-3.1V7.8C23.9,7.5,24.6,6.8,24.8,5.9z M22,4c0.6,0,1,0.4,1,1s-0.4,1-1,1s-1-0.4-1-1S21.4,4,22,4z
			 M5.8,4.1l13.4,1.8c0.3,0.9,1,1.6,1.8,1.9v1.2c-2.8,0.2-5.4,1.3-7.4,3.1L5.7,4.3C5.7,4.2,5.8,4.2,5.8,4.1z M4.3,5.7l7.9,7.9
			c-1.7,2-2.9,4.6-3.1,7.4H7.8c-0.3-0.9-1-1.6-1.9-1.8L4.1,5.8C4.2,5.8,4.2,5.7,4.3,5.7z M3,4C2.4,4,2,3.6,2,3s0.4-1,1-1s1,0.4,1,1
			S3.6,4,3,4z M3,42c-0.6,0-1-0.4-1-1s0.4-1,1-1s1,0.4,1,1S3.6,42,3,42z M5,21c0.6,0,1,0.4,1,1s-0.4,1-1,1s-1-0.4-1-1S4.4,21,5,21z
			 M4.3,38.3c-0.1,0-0.1-0.1-0.2-0.1l1.8-13.4c0.9-0.3,1.6-1,1.9-1.8h1.2c0.2,2.8,1.3,5.4,3.1,7.4L4.3,38.3z M19.2,38.1L5.8,39.9
			c0-0.1-0.1-0.1-0.1-0.2l7.9-7.9c2,1.7,4.6,2.9,7.4,3.1v1.2C20.1,36.5,19.4,37.2,19.2,38.1z M22,40c-0.6,0-1-0.4-1-1s0.4-1,1-1
			s1,0.4,1,1S22.6,40,22,40z M38.2,39.9l-13.4-1.8c-0.3-0.9-1-1.6-1.8-1.9V35c2.8-0.2,5.4-1.3,7.4-3.1l7.9,7.9
			C38.3,39.8,38.2,39.8,38.2,39.9z M39.7,38.3l-7.9-7.9c1.7-2,2.9-4.6,3.1-7.4h1.2c0.3,0.9,1,1.6,1.9,1.8l1.8,13.4
			C39.8,38.2,39.8,38.3,39.7,38.3z M41,42c-0.6,0-1-0.4-1-1s0.4-1,1-1s1,0.4,1,1S41.6,42,41,42z"/>
	</g>
</g>
<g id="cloud">
</g>
<g id="pc">
</g>
<g id="anonymous">
</g>
</svg>
