<?xml version="1.0" encoding="utf-8"?>
<!-- Generator: Adobe Illustrator 21.1.0, SVG Export Plug-In . SVG Version: 6.00 Build 0)  -->
<svg version="1.1" xmlns="http://www.w3.org/2000/svg" xmlns:xlink="http://www.w3.org/1999/xlink" x="0px" y="0px"
	 viewBox="0 0 44 44" style="enable-background:new 0 0 44 44;" xml:space="preserve">
<g id="trolley">
</g>
<g id="wallet">
</g>
<g id="shield">
</g>
<g id="pickaxe">
</g>
<g id="lock">
</g>
<g id="key">
</g>
<g id="mobile">
</g>
<g id="coins">
</g>
<g id="trade">
</g>
<g id="blockchain">
</g>
<g id="exchange">
</g>
<g id="graph">
</g>
<g id="video_x5F_card">
</g>
<g id="bitcoin">
</g>
<g id="code">
</g>
<g id="contract">
</g>
<g id="network">
</g>
<g id="cloud">
</g>
<g id="pc">
	<g>
		<path d="M41,2H3C1.3,2,0,3.3,0,5v24v4c0,1.7,1.3,3,3,3h14v3c0,0.6-0.4,1-1,1h-1c-0.6,0-1,0.4-1,1s0.4,1,1,1h1h12h1
			c0.6,0,1-0.4,1-1s-0.4-1-1-1h-1c-0.6,0-1-0.4-1-1v-3h14c1.7,0,3-1.3,3-3v-4V5C44,3.3,42.7,2,41,2z M18.8,40c0.1-0.3,0.2-0.6,0.2-1
			v-3h6v3c0,0.4,0.1,0.7,0.2,1H18.8z M42,33c0,0.6-0.4,1-1,1H26h-8H3c-0.6,0-1-0.4-1-1v-3h40V33z M42,28H2V5c0-0.6,0.4-1,1-1h38
			c0.6,0,1,0.4,1,1V28z"/>
		<path d="M14.5,12h-5C9.2,12,9,12.2,9,12.5S9.2,13,9.5,13h5c0.3,0,0.5-0.2,0.5-0.5S14.8,12,14.5,12z"/>
		<path d="M14,15.5c0,0.3,0.2,0.5,0.5,0.5h5c0.3,0,0.5-0.2,0.5-0.5S19.8,15,19.5,15h-5C14.2,15,14,15.2,14,15.5z"/>
		<path d="M15.5,21c0.3,0,0.5-0.2,0.5-0.5S15.8,20,15.5,20h-6C9.2,20,9,20.2,9,20.5S9.2,21,9.5,21H15.5z"/>
		<path d="M18.5,9h2C20.8,9,21,8.8,21,8.5S20.8,8,20.5,8h-2C18.2,8,18,8.2,18,8.5S18.2,9,18.5,9z"/>
		<path d="M5.5,12h2C7.8,12,8,11.8,8,11.5S7.8,11,7.5,11h-2C5.2,11,5,11.2,5,11.5S5.2,12,5.5,12z"/>
		<path d="M6.5,21h-1C5.2,21,5,21.2,5,21.5S5.2,22,5.5,22h1C6.8,22,7,21.8,7,21.5S6.8,21,6.5,21z"/>
		<path d="M30,6c-0.3,0-0.7,0-1,0.1C28.3,5.4,27.5,5,26.5,5C24.6,5,23,6.6,23,8.5V13h-3.2c-0.4,0-0.8-0.2-1.1-0.4l-3.8-3.8
			C14.5,8.3,13.8,8,13.2,8h-2.3c-0.2-0.6-0.8-1-1.4-1C8.7,7,8,7.7,8,8.5S8.7,10,9.5,10c0.7,0,1.2-0.4,1.4-1h2.3
			c0.4,0,0.8,0.2,1.1,0.4l3.8,3.8c0.5,0.5,1.1,0.7,1.8,0.7H23v3H7.9c-0.2-0.6-0.8-1-1.4-1C5.7,16,5,16.7,5,17.5S5.7,19,6.5,19
			c0.7,0,1.2-0.4,1.4-1H23v2h-3.2c-0.7,0-1.3,0.3-1.8,0.7l-2.8,2.8c-0.3,0.3-0.7,0.4-1.1,0.4H9.9c-0.2-0.6-0.8-1-1.4-1
			C7.7,23,7,23.7,7,24.5S7.7,26,8.5,26c0.7,0,1.2-0.4,1.4-1h4.3c0.7,0,1.3-0.3,1.8-0.7l2.8-2.8c0.3-0.3,0.7-0.4,1.1-0.4H23v2.5
			c0,0.2,0,0.3,0.1,0.5h-3.6c-0.3,0-0.5,0.2-0.5,0.5s0.2,0.5,0.5,0.5h3.9c0.6,1.2,1.8,2,3.1,2c1,0,1.8-0.4,2.5-1.1
			c0.3,0,0.7,0.1,1,0.1c5.5,0,10-4.5,10-10S35.5,6,30,6z M9.5,9C9.2,9,9,8.8,9,8.5S9.2,8,9.5,8S10,8.2,10,8.5S9.8,9,9.5,9z M6.5,18
			C6.2,18,6,17.8,6,17.5S6.2,17,6.5,17S7,17.2,7,17.5S6.8,18,6.5,18z M8.5,25C8.2,25,8,24.8,8,24.5S8.2,24,8.5,24S9,24.2,9,24.5
			S8.8,25,8.5,25z M30,24c-1.8,0-3.6-0.6-5-1.8V9.8C26.4,8.6,28.2,8,30,8c4.4,0,8,3.6,8,8S34.4,24,30,24z"/>
		<path d="M33.6,15.5C33.8,15,34,14.5,34,14c0-1.7-1.3-3-3-3c0-0.6-0.4-1-1-1s-1,0.4-1,1h-2c-0.6,0-1,0.4-1,1s0.4,1,1,1v6
			c-0.6,0-1,0.4-1,1s0.4,1,1,1h2c0,0.6,0.4,1,1,1s1-0.4,1-1h1c1.7,0,3-1.3,3-3C35,16.9,34.4,16,33.6,15.5z M29,13h2c0.6,0,1,0.4,1,1
			s-0.4,1-1,1h-2V13z M32,19h-3v-2h3c0.6,0,1,0.4,1,1S32.6,19,32,19z"/>
	</g>
</g>
<g id="anonymous">
</g>
</svg>
