<?xml version="1.0" encoding="utf-8"?>
<!-- Generator: Adobe Illustrator 21.1.0, SVG Export Plug-In . SVG Version: 6.00 Build 0)  -->
<svg version="1.1" xmlns="http://www.w3.org/2000/svg" xmlns:xlink="http://www.w3.org/1999/xlink" x="0px" y="0px"
	 viewBox="0 0 44 44" style="enable-background:new 0 0 44 44;" xml:space="preserve">
<g id="trolley">
</g>
<g id="wallet">
</g>
<g id="shield">
</g>
<g id="pickaxe">
	<g>
		<path d="M43.1,33.7L23.4,14c0.2-0.4,0.2-0.8-0.2-1.2L22.4,12l1.9-1.9c2.2-2.2,4.6-4.2,7.2-5.9l2-1.3C34,2.6,34.1,2,33.9,1.6
			C33.7,1.2,33.4,1,33,1c-0.1,0-0.2,0-0.3,0l-1.2,0.4c-4.7,1.4-9.1,3.8-12.9,6.9c-0.3-0.3-0.8-0.3-1.1-0.1l-1.2-1.2
			C15.7,6.3,15,6,14.1,6C12.4,6,11,7.4,11,9.1c0,0.8,0.3,1.6,0.9,2.2l1.2,1.2c-0.2,0.4-0.1,0.8,0.1,1.1c-3,3.7-5.3,7.9-6.7,12.4
			c-0.7,0.1-1.4,0.4-1.9,0.9l-1.8,1.8C2.3,29.3,2,30,2,30.8V40c0,0.4,0.1,0.7,0.2,1H1c-0.6,0-1,0.4-1,1s0.4,1,1,1h31h3
			c0.6,0,1-0.4,1-1s-0.4-1-1-1h-2v-1.8c0-1.1-0.6-2.2-1.7-2.7l-1.8-0.9c-0.3-0.2-0.6-0.5-0.6-0.9v-0.7c0-1-0.5-1.9-1.3-2.5l-1.6-1.1
			C25.6,30.2,25,30,24.4,30h-3.5c-0.1-0.5-0.4-0.9-0.7-1.3l-1.8-1.8C17.7,26.3,17,26,16.2,26H9.6c1.6-2.4,3.5-4.6,5.5-6.7l1.9-1.9
			l0.8,0.8c0.2,0.2,0.5,0.3,0.7,0.3c0.2,0,0.3-0.1,0.5-0.1l19.7,19.7c0.6,0.6,1.4,0.9,2.2,0.9c1.7,0,3.1-1.4,3.1-3.1
			C44,35,43.7,34.3,43.1,33.7z M24.4,32c0.2,0,0.4,0.1,0.6,0.2l1.6,1.1c0.3,0.2,0.4,0.5,0.4,0.8v0.7c0,1.1,0.6,2.2,1.7,2.7l1.8,0.9
			c0.3,0.2,0.6,0.5,0.6,0.9V41h-9v-3.5c0-0.3-0.2-0.5-0.5-0.5S21,37.2,21,37.5V41H8.3l0.5-2c0.1-0.3,0.2-0.5,0.5-0.6l3.6-2.1
			c0.7-0.4,1.2-1.1,1.4-1.8l0.4-1.7c0.1-0.4,0.5-0.8,1-0.8H17v2.5c0,0.3,0.2,0.5,0.5,0.5s0.5-0.2,0.5-0.5V32H24.4z M16.2,28
			c0.3,0,0.5,0.1,0.7,0.3l1.7,1.7h-3c-1.4,0-2.6,0.9-2.9,2.3L12.2,34c-0.1,0.3-0.2,0.5-0.5,0.6l-3.6,2.1c-0.7,0.4-1.2,1.1-1.4,1.8
			L6.2,41H5c-0.6,0-1-0.4-1-1v-9.2c0-0.3,0.1-0.5,0.3-0.7l1.8-1.8C6.3,28.1,6.6,28,6.8,28H8v3.5C8,31.8,8.2,32,8.5,32S9,31.8,9,31.5
			V28H16.2z M26.2,5.7c-1.1,0.9-2.2,1.9-3.3,3L21,10.6l-0.9-0.9C22,8.1,24,6.8,26.2,5.7z M13,9.1C13,8.5,13.5,8,14.1,8
			c0.3,0,0.6,0.1,0.8,0.3l1.2,1.2l-1.6,1.6l-1.2-1.2C13.1,9.7,13,9.4,13,9.1z M13.7,17.9c-1,1-2,2.1-3,3.3c1.1-2.2,2.4-4.2,4-6.1
			l0.9,0.9L13.7,17.9z M18.5,16.1L15.4,13l2.6-2.6l3.1,3.1L18.5,16.1z M40.9,37c-0.3,0-0.6-0.1-0.8-0.3L20.4,17l1.6-1.6l19.7,19.7
			c0.2,0.2,0.3,0.5,0.3,0.8C42,36.5,41.5,37,40.9,37z"/>
		<path d="M1,25h3c0.6,0,1-0.4,1-1s-0.4-1-1-1H1c-0.6,0-1,0.4-1,1S0.4,25,1,25z"/>
		<path d="M5.2,21.6C5.4,21.8,5.7,22,6,22c0.2,0,0.4-0.1,0.6-0.2c0.5-0.3,0.6-0.9,0.3-1.4l-2-3c-0.3-0.5-0.9-0.6-1.4-0.3
			c-0.5,0.3-0.6,0.9-0.3,1.4L5.2,21.6z"/>
		<path d="M15.6,22.1l-2,1c-0.5,0.2-0.7,0.8-0.4,1.3c0.2,0.4,0.5,0.6,0.9,0.6c0.1,0,0.3,0,0.4-0.1l2-1c0.5-0.2,0.7-0.8,0.4-1.3
			C16.6,22.1,16,21.9,15.6,22.1z"/>
		<circle cx="17.5" cy="36.5" r="0.5"/>
		<circle cx="20.5" cy="33.5" r="0.5"/>
		<circle cx="6.5" cy="31.5" r="0.5"/>
		<circle cx="24.5" cy="38.5" r="0.5"/>
		<circle cx="12.5" cy="38.5" r="0.5"/>
		<circle cx="23.5" cy="35.5" r="0.5"/>
		<circle cx="8.5" cy="33.5" r="0.5"/>
		<circle cx="11.5" cy="30.5" r="0.5"/>
		<circle cx="5.5" cy="36.5" r="0.5"/>
		<path d="M15.5,38c-0.3,0-0.5,0.2-0.5,0.5v1c0,0.3,0.2,0.5,0.5,0.5s0.5-0.2,0.5-0.5v-1C16,38.2,15.8,38,15.5,38z"/>
	</g>
</g>
<g id="lock">
</g>
<g id="key">
</g>
<g id="mobile">
</g>
<g id="coins">
</g>
<g id="trade">
</g>
<g id="blockchain">
</g>
<g id="exchange">
</g>
<g id="graph">
</g>
<g id="video_x5F_card">
</g>
<g id="bitcoin">
</g>
<g id="code">
</g>
<g id="contract">
</g>
<g id="network">
</g>
<g id="cloud">
</g>
<g id="pc">
</g>
<g id="anonymous">
</g>
</svg>
