<?xml version="1.0" encoding="utf-8"?>
<!-- Generator: Adobe Illustrator 21.1.0, SVG Export Plug-In . SVG Version: 6.00 Build 0)  -->
<svg version="1.1" xmlns="http://www.w3.org/2000/svg" xmlns:xlink="http://www.w3.org/1999/xlink" x="0px" y="0px"
	 viewBox="0 0 44 44" style="enable-background:new 0 0 44 44;" xml:space="preserve">
<g id="trolley">
</g>
<g id="wallet">
</g>
<g id="shield">
	<g>
		<path d="M39.3,3l-4.3-1.2c-8.2-2.3-17-2.4-25.3-0.1L4.7,3C4.3,3.2,4,3.5,4,4v26.3c0,1.7,0.9,3.3,2.4,4.3l15.1,9.3
			c0.2,0.1,0.3,0.1,0.5,0.1s0.4,0,0.5-0.1l15.1-9.3c1.5-0.9,2.4-2.5,2.4-4.3V4C40,3.6,39.7,3.2,39.3,3z M38,30.3c0,1-0.5,2-1.4,2.6
			v0l-14.6,9l-14.6-9C6.5,32.3,6,31.3,6,30.3V4.8l4.2-1.2c7.9-2.2,16.3-2.1,24.2,0.1l3.6,1V30.3z"/>
		<path d="M27.1,18.5c0.5-0.7,0.9-1.5,0.9-2.5c0-1.8-1.2-3.3-2.9-3.8c0,0,0,0-0.1,0C24,11.8,24,11.3,24,11v-1c0-0.6-0.4-1-1-1
			s-1,0.4-1,1v1c0,0.6-0.4,1-1,1s-1-0.4-1-1v-1c0-0.6-0.4-1-1-1s-1,0.4-1,1v1c0,0.6-0.4,1-1,1h-2h-1v2h1c0.6,0,1,0.4,1,1v10
			c0,0.6-0.4,1-1,1h-1v2h1h2c0.6,0,1,0.4,1,1v1c0,0.6,0.4,1,1,1s1-0.4,1-1v-1c0-0.6,0.4-1,1-1s1,0.4,1,1v1c0,0.6,0.4,1,1,1
			s1-0.4,1-1v-1c0-0.6,0.4-1,1-1c2.8,0,5-2.2,5-5C30,21,28.8,19.3,27.1,18.5z M20,14h2c1.1,0,2,0.9,2,2s-0.9,2-2,2h-2V14z M23,26h-3
			v-6h3c1.7,0,3,1.3,3,3S24.7,26,23,26z"/>
		<path d="M31.5,16c-0.3,0-0.5,0.2-0.5,0.5v5c0,0.3,0.2,0.5,0.5,0.5s0.5-0.2,0.5-0.5v-5C32,16.2,31.8,16,31.5,16z"/>
		<path d="M12.5,16c-0.3,0-0.5,0.2-0.5,0.5v3c0,0.3,0.2,0.5,0.5,0.5s0.5-0.2,0.5-0.5v-3C13,16.2,12.8,16,12.5,16z"/>
		<path d="M33.6,6.6C29.8,5.5,26,5,22.1,5C18.3,5,14.6,5.5,11,6.5L9.7,6.8C9.3,7,9,7.4,9,7.8v21.9c0,0.3,0.2,0.7,0.5,0.9l12,7.4
			c0.2,0.1,0.3,0.1,0.5,0.1c0.2,0,0.4,0,0.5-0.1l12-7.4c0.3-0.2,0.5-0.5,0.5-0.9V7.8c0-0.4-0.3-0.8-0.7-1L33.6,6.6z M34,29.7l-2,1.2
			v-5.4c0-0.3-0.2-0.5-0.5-0.5S31,25.2,31,25.5v6.1L27,34v-2.5c0-0.3-0.2-0.5-0.5-0.5S26,31.2,26,31.5v3.2l-4,2.5L17,34v-2.5
			c0-0.3-0.2-0.5-0.5-0.5S16,31.2,16,31.5v1.9l-3-1.9v-8.1c0-0.3-0.2-0.5-0.5-0.5S12,23.2,12,23.5v7.4l-2-1.2V7.8l1.3-0.3
			c0.2-0.1,0.5-0.1,0.7-0.2v6.2c0,0.3,0.2,0.5,0.5,0.5s0.5-0.2,0.5-0.5V7c3-0.7,6-1,9.1-1c1.3,0,2.6,0.1,3.9,0.2v2.3
			C26,8.8,26.2,9,26.5,9S27,8.8,27,8.5V6.3c1.3,0.2,2.7,0.4,4,0.7v6.5c0,0.3,0.2,0.5,0.5,0.5s0.5-0.2,0.5-0.5V7.2
			c0.4,0.1,0.9,0.2,1.3,0.3L34,7.8V29.7z"/>
	</g>
</g>
<g id="pickaxe">
</g>
<g id="lock">
</g>
<g id="key">
</g>
<g id="mobile">
</g>
<g id="coins">
</g>
<g id="trade">
</g>
<g id="blockchain">
</g>
<g id="exchange">
</g>
<g id="graph">
</g>
<g id="video_x5F_card">
</g>
<g id="bitcoin">
</g>
<g id="code">
</g>
<g id="contract">
</g>
<g id="network">
</g>
<g id="cloud">
</g>
<g id="pc">
</g>
<g id="anonymous">
</g>
</svg>
