<?xml version="1.0" encoding="utf-8"?>
<!-- Generator: Adobe Illustrator 21.1.0, SVG Export Plug-In . SVG Version: 6.00 Build 0)  -->
<svg version="1.1" xmlns="http://www.w3.org/2000/svg" xmlns:xlink="http://www.w3.org/1999/xlink" x="0px" y="0px"
	 viewBox="0 0 44 44" style="enable-background:new 0 0 44 44;" xml:space="preserve">
<g id="trolley">
</g>
<g id="wallet">
</g>
<g id="shield">
</g>
<g id="pickaxe">
</g>
<g id="lock">
</g>
<g id="key">
</g>
<g id="mobile">
</g>
<g id="coins">
</g>
<g id="trade">
	<g>
		<path d="M16.6,30.5C16.8,30,17,29.5,17,29c0-1.7-1.3-3-3-3c0-0.6-0.4-1-1-1s-1,0.4-1,1h-2c-0.6,0-1,0.4-1,1s0.4,1,1,1v6
			c-0.6,0-1,0.4-1,1s0.4,1,1,1h2c0,0.6,0.4,1,1,1s1-0.4,1-1h1c1.7,0,3-1.3,3-3C18,31.9,17.4,31,16.6,30.5z M12,28h2c0.6,0,1,0.4,1,1
			s-0.4,1-1,1h-2V28z M15,34h-3v-2h3c0.6,0,1,0.4,1,1S15.6,34,15,34z"/>
		<path d="M34.7,15.6c0.2-0.8,0.3-1.7,0.3-2.6c0-7.2-5.8-13-13-13S9,5.8,9,13c0,1.9,0.4,3.7,1.2,5.3C4.4,19.6,0,24.8,0,31
			c0,7.2,5.8,13,13,13c4.3,0,8.1-2.1,10.5-5.4c2.1,1.5,4.7,2.4,7.5,2.4c7.2,0,13-5.8,13-13C44,22.1,40.1,17.2,34.7,15.6z M11,13
			c0-6.1,4.9-11,11-11s11,4.9,11,11c0,0.7-0.1,1.4-0.2,2.1C32.2,15.1,31.6,15,31,15c-0.1,0-0.2,0-0.2,0c0.2-0.6,0.2-1.3,0.2-2
			c0-5-4-9-9-9s-9,4-9,9c0,1.9,0.6,3.7,1.6,5.1C14.1,18,13.5,18,13,18c-0.3,0-0.5,0-0.8,0C11.5,16.5,11,14.8,11,13z M23,12h-2
			c-0.6,0-1-0.4-1-1s0.4-1,1-1h3c0.6,0,1-0.4,1-1s-0.4-1-1-1h-1c0-0.6-0.4-1-1-1s-1,0.4-1,1c-1.7,0-3,1.3-3,3s1.3,3,3,3h2
			c0.6,0,1,0.4,1,1s-0.4,1-1,1h-3c-0.6,0-1,0.4-1,1s0.4,1,1,1h1c0,0.4,0.3,0.8,0.7,0.9c-0.4,0.5-0.8,0.9-1.2,1.4
			c-1.3-0.9-2.8-1.6-4.4-2C14.8,17,14,15.1,14,13c0-4.4,3.6-8,8-8s8,3.6,8,8c0,0.7-0.1,1.4-0.3,2.1c-1.4,0.1-2.7,0.5-3.9,1
			c0.1-0.3,0.2-0.7,0.2-1.1C26,13.3,24.7,12,23,12z M20,34.9c-1.4,2.5-4,4.1-7,4.1c-4.4,0-8-3.6-8-8s3.6-8,8-8
			c2.1,0,3.9,0.8,5.3,2.1C18.1,26,18,27,18,28C18,30.5,18.7,32.9,20,34.9z M13,42C6.9,42,2,37.1,2,31s4.9-11,11-11
			c2.4,0,4.6,0.8,6.4,2.1c-0.3,0.6-0.6,1.2-0.8,1.9c-1.5-1.2-3.5-2-5.6-2c-5,0-9,4-9,9c0,5,4,9,9,9c3.2,0,6-1.7,7.6-4.2
			c0.4,0.6,0.9,1.1,1.4,1.6C20,40.1,16.7,42,13,42z M31,39c-6.1,0-11-4.9-11-11s4.9-11,11-11s11,4.9,11,11S37.1,39,31,39z"/>
		<path d="M31,19c-5,0-9,4-9,9c0,5,4,9,9,9s9-4,9-9C40,23,36,19,31,19z M31,36c-4.4,0-8-3.6-8-8s3.6-8,8-8s8,3.6,8,8S35.4,36,31,36z
			"/>
		<polygon points="27,27 31,29 35,27 31,22 		"/>
		<polygon points="27,28 31,34 35,28 31,30 		"/>
	</g>
</g>
<g id="blockchain">
</g>
<g id="exchange">
</g>
<g id="graph">
</g>
<g id="video_x5F_card">
</g>
<g id="bitcoin">
</g>
<g id="code">
</g>
<g id="contract">
</g>
<g id="network">
</g>
<g id="cloud">
</g>
<g id="pc">
</g>
<g id="anonymous">
</g>
</svg>
