<?xml version="1.0" encoding="utf-8"?>
<!-- Generator: Adobe Illustrator 21.1.0, SVG Export Plug-In . SVG Version: 6.00 Build 0)  -->
<svg version="1.1" xmlns="http://www.w3.org/2000/svg" xmlns:xlink="http://www.w3.org/1999/xlink" x="0px" y="0px"
	 viewBox="0 0 44 44" style="enable-background:new 0 0 44 44;" xml:space="preserve">
<g id="trolley">
	<g>
		<path d="M12.5,24c-0.3,0-0.5,0.2-0.5,0.5v1c0,0.3,0.2,0.5,0.5,0.5s0.5-0.2,0.5-0.5v-1C13,24.2,12.8,24,12.5,24z"/>
		<path d="M25.5,27c-0.3,0-0.5,0.2-0.5,0.5v1c0,0.3,0.2,0.5,0.5,0.5s0.5-0.2,0.5-0.5v-1C26,27.2,25.8,27,25.5,27z"/>
		<path d="M30.5,22c-0.3,0-0.5,0.2-0.5,0.5v1c0,0.3,0.2,0.5,0.5,0.5s0.5-0.2,0.5-0.5v-1C31,22.2,30.8,22,30.5,22z"/>
		<path d="M35.5,23c-0.3,0-0.5,0.2-0.5,0.5v1c0,0.3,0.2,0.5,0.5,0.5s0.5-0.2,0.5-0.5v-1C36,23.2,35.8,23,35.5,23z"/>
		<path d="M16.5,22c-0.3,0-0.5,0.2-0.5,0.5v5c0,0.3,0.2,0.5,0.5,0.5s0.5-0.2,0.5-0.5v-5C17,22.2,16.8,22,16.5,22z"/>
		<path d="M22.5,26c-0.3,0-0.5,0.2-0.5,0.5v3c0,0.3,0.2,0.5,0.5,0.5s0.5-0.2,0.5-0.5v-3C23,26.2,22.8,26,22.5,26z"/>
		<path d="M8.5,23C8.2,23,8,23.2,8,23.5v3C8,26.8,8.2,27,8.5,27S9,26.8,9,26.5v-3C9,23.2,8.8,23,8.5,23z"/>
		<path d="M29.5,26c-0.3,0-0.5,0.2-0.5,0.5v2c0,0.3,0.2,0.5,0.5,0.5s0.5-0.2,0.5-0.5v-2C30,26.2,29.8,26,29.5,26z"/>
		<circle cx="13" cy="37" r="1"/>
		<path d="M43,31c-0.6,0-1,0.4-1,1v1h-2.9c0.1-0.2,0.1-0.4,0.2-0.6l1.7-13.5c1.2-0.4,2.1-1.5,2.1-2.8v-2c0-0.6-0.4-1-1-1h-1
			c0-4.4-3.6-8-8-8c-1.2,0-2.3,0.3-3.3,0.7C28.3,3.5,25.8,2,23,2c-1.5,0-2.8,0.4-4,1.1V2c0-0.6-0.4-1-1-1H2C1.4,1,1,1.4,1,2v4
			c0,0.6,0.4,1,1,1h3v2H4c-0.6,0-1,0.4-1,1v3H2c-0.6,0-1,0.4-1,1v2c0,1.3,0.9,2.5,2.1,2.8l1.7,13.5c0,0.2,0.1,0.4,0.2,0.6H2v-1
			c0-0.6-0.4-1-1-1s-1,0.4-1,1v4c0,0.6,0.4,1,1,1s1-0.4,1-1v-1h2v1c0,0.5,0.4,0.9,0.8,1L7,37.3c0.2,3.2,2.8,5.7,6,5.7
			c2.7,0,4.9-1.7,5.7-4.1C19.8,39,20.9,39,22,39c1.1,0,2.2,0,3.3-0.1c0.8,2.4,3,4.1,5.7,4.1c3.2,0,5.8-2.5,6-5.7l2.2-0.3
			c0.5-0.1,0.8-0.5,0.8-1v-1h2v1c0,0.6,0.4,1,1,1s1-0.4,1-1v-4C44,31.4,43.6,31,43,31z M33,7c3.3,0,6,2.7,6,6H27C27,9.7,29.7,7,33,7
			z M23,4c2.1,0,4,1.1,5,2.7c-1.8,1.5-3,3.7-3,6.3h-4v-2h1c0.6,0,1-0.4,1-1V6c0-0.6-0.4-1-1-1h-2.3C20.7,4.4,21.8,4,23,4z M21,7v2
			h-1H7V7h11H21z M3,5V3h14v2H6H3z M5,11h1h13v2H5V11z M4,17c-0.6,0-1-0.4-1-1v-1h1h16h21v1c0,0.6-0.4,1-1,1H4z M7.2,35.3L6,35.1V35
			h1.4C7.3,35.1,7.3,35.2,7.2,35.3z M13,41c-2.2,0-4-1.8-4-4s1.8-4,4-4s4,1.8,4,4S15.2,41,13,41z M25,36.9c-2,0.1-4,0.1-6,0
			c0-0.7-0.1-1.3-0.3-1.9h6.7C25.1,35.6,25,36.2,25,36.9z M31,41c-2.2,0-4-1.8-4-4s1.8-4,4-4s4,1.8,4,4S33.2,41,31,41z M38,35.1
			l-1.2,0.2c0-0.1-0.1-0.2-0.1-0.3H38V35.1z M37.2,32.1c-0.1,0.5-0.5,0.9-1,0.9h-0.8c-0.7-0.7-1.5-1.3-2.5-1.6v-5.9
			c0-0.3-0.2-0.5-0.5-0.5S32,25.2,32,25.5v5.6C31.7,31,31.3,31,31,31c-1.8,0-3.4,0.8-4.5,2H20v-6.5c0-0.3-0.2-0.5-0.5-0.5
			S19,26.2,19,26.5V33h-1.5c-1.1-1.2-2.7-2-4.5-2c-1.5,0-2.9,0.6-4,1.5v-4C9,28.2,8.8,28,8.5,28S8,28.2,8,28.5V33H7.8
			c-0.5,0-0.9-0.4-1-0.9L5.1,19H12v3.5c0,0.3,0.2,0.5,0.5,0.5s0.5-0.2,0.5-0.5V19h9v4.5c0,0.3,0.2,0.5,0.5,0.5s0.5-0.2,0.5-0.5V19h4
			v6.5c0,0.3,0.2,0.5,0.5,0.5s0.5-0.2,0.5-0.5V19h7v2.5c0,0.3,0.2,0.5,0.5,0.5s0.5-0.2,0.5-0.5V19h2.9L37.2,32.1z"/>
		<circle cx="31" cy="37" r="1"/>
	</g>
</g>
<g id="wallet">
</g>
<g id="shield">
</g>
<g id="pickaxe">
</g>
<g id="lock">
</g>
<g id="key">
</g>
<g id="mobile">
</g>
<g id="coins">
</g>
<g id="trade">
</g>
<g id="blockchain">
</g>
<g id="exchange">
</g>
<g id="graph">
</g>
<g id="video_x5F_card">
</g>
<g id="bitcoin">
</g>
<g id="code">
</g>
<g id="contract">
</g>
<g id="network">
</g>
<g id="cloud">
</g>
<g id="pc">
</g>
<g id="anonymous">
</g>
</svg>
