<?xml version="1.0" encoding="utf-8"?>
<!-- Generator: Adobe Illustrator 21.1.0, SVG Export Plug-In . SVG Version: 6.00 Build 0)  -->
<svg version="1.1" xmlns="http://www.w3.org/2000/svg" xmlns:xlink="http://www.w3.org/1999/xlink" x="0px" y="0px"
	 viewBox="0 0 44 44" style="enable-background:new 0 0 44 44;" xml:space="preserve">
<g id="trolley">
</g>
<g id="wallet">
</g>
<g id="shield">
</g>
<g id="pickaxe">
</g>
<g id="lock">
</g>
<g id="key">
</g>
<g id="mobile">
</g>
<g id="coins">
</g>
<g id="trade">
</g>
<g id="blockchain">
</g>
<g id="exchange">
</g>
<g id="graph">
</g>
<g id="video_x5F_card">
	<g>
		<path d="M41,6H10.8C10,6,9.3,6.3,8.7,6.9L6,9.6V9c0-0.6-0.4-1-1-1H1C0.4,8,0,8.4,0,9s0.4,1,1,1h3v6H2c-0.6,0-1,0.4-1,1s0.4,1,1,1
			h2v1H2c-0.6,0-1,0.4-1,1v5c0,0.6,0.4,1,1,1h2v1H2c-0.6,0-1,0.4-1,1s0.4,1,1,1h2v8c0,0.6,0.4,1,1,1s1-0.4,1-1v-3h5c0,0.6,0.4,1,1,1
			h1c0.6,0,1-0.4,1-1h2c0,0.6,0.4,1,1,1h10c0.6,0,1-0.4,1-1h13c1.7,0,3-1.3,3-3V9C44,7.3,42.7,6,41,6z M4,24H3v-3h1V24z M42,31
			c0,0.6-0.4,1-1,1h-1v-1.5c0-0.3-0.2-0.5-0.5-0.5S39,30.2,39,30.5V32h-2v-1.5c0-0.3-0.2-0.5-0.5-0.5S36,30.2,36,30.5V32h-2v-1.5
			c0-0.3-0.2-0.5-0.5-0.5S33,30.2,33,30.5V32h-2v-1.5c0-0.3-0.2-0.5-0.5-0.5S30,30.2,30,30.5V32h-2v-1.5c0-0.3-0.2-0.5-0.5-0.5
			S27,30.2,27,30.5V32h-2v-1.5c0-0.3-0.2-0.5-0.5-0.5S24,30.2,24,30.5V32h-2v-1.5c0-0.3-0.2-0.5-0.5-0.5S21,30.2,21,30.5V32h-2v-1.5
			c0-0.3-0.2-0.5-0.5-0.5S18,30.2,18,30.5V32h-2v-1.5c0-0.3-0.2-0.5-0.5-0.5S15,30.2,15,30.5V32h-2v-1.5c0-0.3-0.2-0.5-0.5-0.5
			S12,30.2,12,30.5V32h-2v-1.5c0-0.3-0.2-0.5-0.5-0.5S9,30.2,9,30.5V32H6v-7v-5v-7.2c0-0.3,0.1-0.5,0.3-0.7l3.8-3.8
			C10.3,8.1,10.6,8,10.8,8H12v1.5c0,0.3,0.2,0.5,0.5,0.5S13,9.8,13,9.5V8h2v1.5c0,0.3,0.2,0.5,0.5,0.5S16,9.8,16,9.5V8h2v1.5
			c0,0.3,0.2,0.5,0.5,0.5S19,9.8,19,9.5V8h2v1.5c0,0.3,0.2,0.5,0.5,0.5S22,9.8,22,9.5V8h2v1.5c0,0.3,0.2,0.5,0.5,0.5S25,9.8,25,9.5
			V8h2v1.5c0,0.3,0.2,0.5,0.5,0.5S28,9.8,28,9.5V8h2v1.5c0,0.3,0.2,0.5,0.5,0.5S31,9.8,31,9.5V8h2v1.5c0,0.3,0.2,0.5,0.5,0.5
			S34,9.8,34,9.5V8h2v1.5c0,0.3,0.2,0.5,0.5,0.5S37,9.8,37,9.5V8h2v1.5c0,0.3,0.2,0.5,0.5,0.5S40,9.8,40,9.5V8h1c0.6,0,1,0.4,1,1V31
			z"/>
		<circle cx="24.5" cy="11.5" r="0.5"/>
		<circle cx="27.5" cy="11.5" r="0.5"/>
		<circle cx="21.5" cy="11.5" r="0.5"/>
		<circle cx="24.5" cy="13.5" r="0.5"/>
		<circle cx="24.5" cy="26.5" r="0.5"/>
		<circle cx="24.5" cy="28.5" r="0.5"/>
		<circle cx="21.5" cy="28.5" r="0.5"/>
		<circle cx="27.5" cy="28.5" r="0.5"/>
		<path d="M15,12c-4.4,0-8,3.6-8,8s3.6,8,8,8s8-3.6,8-8S19.4,12,15,12z M16.2,14.1c1.2,0.3,2.3,0.9,3.1,1.7c-0.7,1.4-2,2.6-3.4,3.3
			C16.6,17.6,16.6,15.7,16.2,14.1z M15,14c0.1,0,0.1,0,0.2,0c0.5,1.5,0.5,3.2-0.1,4.7c-0.7-1.5-1.9-2.9-3.4-3.7
			C12.7,14.4,13.8,14,15,14z M9,20c0-0.1,0-0.1,0-0.2c1.5-0.5,3.2-0.5,4.7,0.1c-1.5,0.7-2.9,1.9-3.7,3.4C9.4,22.3,9,21.2,9,20z
			 M13.8,25.9c-1.2-0.3-2.3-0.9-3.1-1.7c0.7-1.4,2-2.6,3.4-3.3C13.4,22.4,13.4,24.3,13.8,25.9z M9.1,18.8c0.3-1.2,0.9-2.3,1.7-3.1
			c1.4,0.7,2.6,2,3.3,3.4C12.6,18.4,10.7,18.3,9.1,18.8z M15,26c-0.1,0-0.1,0-0.2,0c-0.5-1.5-0.5-3.2,0.1-4.7
			c0.7,1.5,1.9,2.9,3.4,3.7C17.3,25.6,16.2,26,15,26z M19.1,24.3c-1.4-0.7-2.6-2-3.3-3.4c0.9,0.3,1.9,0.5,2.9,0.5
			c0.7,0,1.4-0.1,2.1-0.3C20.6,22.4,20,23.5,19.1,24.3z M21,20.2c-1.5,0.5-3.2,0.5-4.7-0.1c1.5-0.7,2.9-1.9,3.7-3.4
			c0.6,0.9,1,2.1,1,3.3C21,20.1,21,20.1,21,20.2z"/>
		<path d="M33,12c-4.4,0-8,3.6-8,8s3.6,8,8,8s8-3.6,8-8S37.4,12,33,12z M34.2,14.1c1.2,0.3,2.3,0.9,3.1,1.7c-0.7,1.4-2,2.6-3.4,3.3
			C34.6,17.6,34.6,15.7,34.2,14.1z M33,14c0.1,0,0.1,0,0.2,0c0.5,1.5,0.5,3.2-0.1,4.7c-0.7-1.5-1.9-2.9-3.4-3.7
			C30.7,14.4,31.8,14,33,14z M27,20c0-0.1,0-0.1,0-0.2c1.5-0.5,3.2-0.5,4.7,0.1c-1.5,0.7-2.9,1.9-3.7,3.4C27.4,22.3,27,21.2,27,20z
			 M31.8,25.9c-1.2-0.3-2.3-0.9-3.1-1.7c0.7-1.4,2-2.6,3.4-3.3C31.4,22.4,31.4,24.3,31.8,25.9z M27.1,18.8c0.3-1.2,0.9-2.3,1.7-3.1
			c1.4,0.7,2.6,2,3.3,3.4C30.6,18.4,28.7,18.3,27.1,18.8z M33,26c-0.1,0-0.1,0-0.2,0c-0.5-1.5-0.5-3.2,0.1-4.7
			c0.7,1.5,1.9,2.9,3.4,3.7C35.3,25.6,34.2,26,33,26z M37.1,24.3c-1.4-0.7-2.6-2-3.3-3.4c0.9,0.3,1.9,0.5,2.9,0.5
			c0.7,0,1.4-0.1,2.1-0.3C38.6,22.4,38,23.5,37.1,24.3z M39,20.2c-1.5,0.5-3.2,0.5-4.7-0.1c1.5-0.7,2.9-1.9,3.7-3.4
			c0.6,0.9,1,2.1,1,3.3C39,20.1,39,20.1,39,20.2z"/>
	</g>
</g>
<g id="bitcoin">
</g>
<g id="code">
</g>
<g id="contract">
</g>
<g id="network">
</g>
<g id="cloud">
</g>
<g id="pc">
</g>
<g id="anonymous">
</g>
</svg>
