<?xml version="1.0" encoding="utf-8"?>
<!-- Generator: Adobe Illustrator 21.1.0, SVG Export Plug-In . SVG Version: 6.00 Build 0)  -->
<svg version="1.1" xmlns="http://www.w3.org/2000/svg" xmlns:xlink="http://www.w3.org/1999/xlink" x="0px" y="0px"
	 viewBox="0 0 44 44" style="enable-background:new 0 0 44 44;" xml:space="preserve">
<g id="trolley">
</g>
<g id="wallet">
	<g>
		<path d="M6,36c0,0.6,0.4,1,1,1h2c0,0.6,0.4,1,1,1s1-0.4,1-1h1c1.7,0,3-1.3,3-3c0-1.1-0.6-2-1.4-2.5C13.8,31,14,30.5,14,30
			c0-1.7-1.3-3-3-3c0-0.6-0.4-1-1-1s-1,0.4-1,1H7c-0.6,0-1,0.4-1,1s0.4,1,1,1v6C6.4,35,6,35.4,6,36z M9,29h2c0.6,0,1,0.4,1,1
			s-0.4,1-1,1H9V29z M9,33h3c0.6,0,1,0.4,1,1s-0.4,1-1,1H9V33z"/>
		<circle cx="35" cy="27" r="1"/>
		<path d="M33.5,19h4c0.3,0,0.5-0.2,0.5-0.5S37.8,18,37.5,18h-4c-0.3,0-0.5,0.2-0.5,0.5S33.2,19,33.5,19z"/>
		<path d="M20.5,17h7.6c0.2,0.6,0.8,1,1.4,1c0.8,0,1.5-0.7,1.5-1.5S30.3,15,29.5,15c-0.7,0-1.2,0.4-1.4,1h-7.6
			c-0.3,0-0.5,0.2-0.5,0.5S20.2,17,20.5,17z M29.5,16c0.3,0,0.5,0.2,0.5,0.5S29.8,17,29.5,17S29,16.8,29,16.5S29.2,16,29.5,16z"/>
		<path d="M28.5,36c-0.8,0-1.5,0.7-1.5,1.5s0.7,1.5,1.5,1.5c0.7,0,1.2-0.4,1.4-1h5.6c0.3,0,0.5-0.2,0.5-0.5S35.8,37,35.5,37h-5.6
			C29.7,36.4,29.2,36,28.5,36z M28.5,38c-0.3,0-0.5-0.2-0.5-0.5s0.2-0.5,0.5-0.5s0.5,0.2,0.5,0.5S28.8,38,28.5,38z"/>
		<path d="M42,22.2V15c0-1.6-1.3-3-3-3c-1.5-3.1-4.6-5-8-5c-0.3,0-0.6,0-0.9,0.1C28.6,4.1,25.6,2,22,2c-2.8,0-5.3,1.3-6.9,3.3
			C14.4,5.1,13.7,5,13,5c-4.3,0-7.9,3-8.8,7.1C2.9,12.5,2,13.6,2,15v11c-1.2,1.7-2,3.7-2,6s0.8,4.3,2,6v1c0,1.7,1.3,3,3,3h34
			c1.7,0,3-1.3,3-3v-7.2c1.2-0.4,2-1.5,2-2.8v-4C44,23.7,43.2,22.6,42,22.2z M31,9c2.3,0,4.5,1.1,5.7,3h-5.8c0-0.3,0.1-0.7,0.1-1
			c0-0.7-0.1-1.3-0.2-2C30.8,9,30.9,9,31,9z M22,4c3.9,0,7,3.1,7,7c0,0.3,0,0.7-0.1,1H15.1C15,11.7,15,11.3,15,11
			C15,7.1,18.1,4,22,4z M13,7c0.3,0,0.6,0,0.9,0.1C13.3,8.3,13,9.6,13,11c0,0.3,0,0.7,0.1,1H6.3C7.2,9.1,9.9,7,13,7z M4,15
			c0-0.6,0.4-1,1-1h0.1H39c0.6,0,1,0.4,1,1v7h-7c-0.4,0-0.7,0.1-1.1,0.2l-1.5-1.5C30,20.3,29.3,20,28.7,20h-7.3
			c-0.4,0-0.8-0.2-1.1-0.4l-2.8-2.8C17,16.3,16.3,16,15.7,16H4V15z M4,17h11.7c0.4,0,0.8,0.2,1.1,0.4l2.8,2.8
			c0.5,0.5,1.1,0.7,1.8,0.7h7.3c0.4,0,0.8,0.2,1.1,0.4l1.3,1.3c-0.4,0.3-0.7,0.8-0.9,1.3h-5.4c-0.7,0-1.3,0.3-1.8,0.7l-0.8,0.8
			c-0.3,0.3-0.7,0.4-1.1,0.4H18c-1.8-2.4-4.7-4-8-4c-2.3,0-4.3,0.8-6,2v-4h7.1c0.2,0.6,0.8,1,1.4,1c0.8,0,1.5-0.7,1.5-1.5
			S13.3,18,12.5,18c-0.7,0-1.2,0.4-1.4,1H4V17z M12,19.5c0-0.3,0.2-0.5,0.5-0.5s0.5,0.2,0.5,0.5S12.8,20,12.5,20S12,19.8,12,19.5z
			 M10,24c4.4,0,8,3.6,8,8s-3.6,8-8,8s-8-3.6-8-8S5.6,24,10,24z M40,39c0,0.6-0.4,1-1,1H16c2.4-1.8,4-4.7,4-8c0-1.8-0.5-3.5-1.4-5
			h2.5c0.7,0,1.3-0.3,1.8-0.7l0.8-0.8c0.3-0.3,0.7-0.4,1.1-0.4H30v3h-5.5c-0.3,0-0.5,0.2-0.5,0.5s0.2,0.5,0.5,0.5H30
			c0,1.3,0.8,2.4,2,2.8l-0.8,0.8c-0.3,0.3-0.7,0.4-1.1,0.4h-5.3c-0.2-0.6-0.8-1-1.4-1c-0.8,0-1.5,0.7-1.5,1.5s0.7,1.5,1.5,1.5
			c0.7,0,1.2-0.4,1.4-1h5.3c0.7,0,1.3-0.3,1.8-0.7l1.3-1.3H40V39z M24,33.5c0,0.3-0.2,0.5-0.5,0.5S23,33.8,23,33.5s0.2-0.5,0.5-0.5
			S24,33.2,24,33.5z M42,29c0,0.6-0.4,1-1,1h-8c-0.6,0-1-0.4-1-1v-4c0-0.6,0.4-1,1-1h8c0.6,0,1,0.4,1,1V29z"/>
	</g>
</g>
<g id="shield">
</g>
<g id="pickaxe">
</g>
<g id="lock">
</g>
<g id="key">
</g>
<g id="mobile">
</g>
<g id="coins">
</g>
<g id="trade">
</g>
<g id="blockchain">
</g>
<g id="exchange">
</g>
<g id="graph">
</g>
<g id="video_x5F_card">
</g>
<g id="bitcoin">
</g>
<g id="code">
</g>
<g id="contract">
</g>
<g id="network">
</g>
<g id="cloud">
</g>
<g id="pc">
</g>
<g id="anonymous">
</g>
</svg>
